<?xml version="1.0" encoding="utf-8"?>
<!-- Generator: Adobe Illustrator 22.0.1, SVG Export Plug-In . SVG Version: 6.00 Build 0)  -->
<svg version="1.1" id="Layer_1" xmlns="http://www.w3.org/2000/svg" xmlns:xlink="http://www.w3.org/1999/xlink" x="0px" y="0px"
	 viewBox="0 0 512 512" style="enable-background:new 0 0 512 512;" xml:space="preserve">
<style type="text/css">
	.st0{fill:#FFFFFF;}
</style>
<g transform="translate(1 1)">
	<g>
		<g>
			<path class="st0" d="M502.5,493.9h-42.7V50.2h17.1c5.1,0,8.5-3.4,8.5-8.5V7.5c0-5.1-3.4-8.5-8.5-8.5H33.1c-5.1,0-8.5,3.4-8.5,8.5
				v34.1c0,5.1,3.4,8.5,8.5,8.5h17.1v443.7H7.5c-5.1,0-8.5,3.4-8.5,8.5s3.4,8.5,8.5,8.5h51.2h145.1h102.4h145.1h51.2
				c5.1,0,8.5-3.4,8.5-8.5S507.6,493.9,502.5,493.9z M41.7,16.1h426.7v17.1h-17.1H58.7H41.7V16.1z M212.3,493.9V357.4h34.1v136.5
				L212.3,493.9L212.3,493.9z M263.5,493.9V357.4h34.1v136.5L263.5,493.9L263.5,493.9z M314.7,493.9V348.9c0-5.1-3.4-8.5-8.5-8.5
				H203.8c-5.1,0-8.5,3.4-8.5,8.5v145.1h-128V50.2h375.5v443.7H314.7z"/>
			<path class="st0" d="M229.4,84.3h-68.3H92.9c-5.1,0-8.5,3.4-8.5,8.5v68.3c0,5.1,3.4,8.5,8.5,8.5h68.3h68.3c5.1,0,8.5-3.4,8.5-8.5
				V92.9C237.9,87.7,234.5,84.3,229.4,84.3z M101.4,101.4h51.2v51.2h-51.2C101.4,152.6,101.4,101.4,101.4,101.4z M220.9,152.6h-51.2
				v-51.2h51.2V152.6z"/>
			<path class="st0" d="M169.7,340.3H92.9c-5.1,0-8.5,3.4-8.5,8.5v68.3c0,5.1,3.4,8.5,8.5,8.5h76.8c5.1,0,8.5-3.4,8.5-8.5v-68.3
				C178.2,343.7,174.8,340.3,169.7,340.3z M161.1,408.6h-59.7v-51.2h59.7V408.6z"/>
			<path class="st0" d="M417.1,340.3h-76.8c-5.1,0-8.5,3.4-8.5,8.5v68.3c0,5.1,3.4,8.5,8.5,8.5h76.8c5.1,0,8.5-3.4,8.5-8.5v-68.3
				C425.7,343.7,422.3,340.3,417.1,340.3z M408.6,408.6h-59.7v-51.2h59.7V408.6z"/>
			<path class="st0" d="M417.1,84.3h-68.3h-68.3c-5.1,0-8.5,3.4-8.5,8.5v68.3c0,5.1,3.4,8.5,8.5,8.5h68.3h68.3
				c5.1,0,8.5-3.4,8.5-8.5V92.9C425.7,87.7,422.3,84.3,417.1,84.3z M289.1,101.4h51.2v51.2h-51.2V101.4z M408.6,152.6h-51.2v-51.2
				h51.2V152.6z"/>
			<path class="st0" d="M229.4,203.8h-68.3H92.9c-5.1,0-8.5,3.4-8.5,8.5v68.3c0,5.1,3.4,8.5,8.5,8.5h68.3h68.3
				c5.1,0,8.5-3.4,8.5-8.5v-68.3C237.9,207.2,234.5,203.8,229.4,203.8z M101.4,220.9h51.2v51.2h-51.2
				C101.4,272.1,101.4,220.9,101.4,220.9z M220.9,272.1h-51.2v-51.2h51.2V272.1z"/>
			<path class="st0" d="M417.1,203.8h-68.3h-68.3c-5.1,0-8.5,3.4-8.5,8.5v68.3c0,5.1,3.4,8.5,8.5,8.5h68.3h68.3
				c5.1,0,8.5-3.4,8.5-8.5v-68.3C425.7,207.2,422.3,203.8,417.1,203.8z M289.1,220.9h51.2v51.2h-51.2V220.9z M408.6,272.1h-51.2
				v-51.2h51.2V272.1z"/>
		</g>
	</g>
</g>
</svg>
