<?xml version="1.0" encoding="iso-8859-1"?>
<!-- Generator: Adobe Illustrator 19.0.0, SVG Export Plug-In . SVG Version: 6.00 Build 0)  -->
<svg version="1.1" id="Layer_1" xmlns="http://www.w3.org/2000/svg" xmlns:xlink="http://www.w3.org/1999/xlink" x="0px" y="0px"
	 viewBox="0 0 512 512" style="enable-background:new 0 0 512 512;" xml:space="preserve">
<g transform="translate(1 1)">
	<g>
		<g>
			<path d="M502.467,493.933H459.8V50.2h17.067c5.12,0,8.533-3.413,8.533-8.533V7.533c0-5.12-3.413-8.533-8.533-8.533H33.133
				C28.013-1,24.6,2.413,24.6,7.533v34.133c0,5.12,3.413,8.533,8.533,8.533H50.2v443.733H7.533c-5.12,0-8.533,3.413-8.533,8.533
				S2.413,511,7.533,511h51.2H203.8h102.4h145.067h51.2c5.12,0,8.533-3.413,8.533-8.533S507.587,493.933,502.467,493.933z
				 M41.667,16.067h426.667v17.067h-17.067H58.733H41.667V16.067z M212.333,493.933V357.4h34.133v136.533H212.333z M263.533,493.933
				V357.4h34.133v136.533H263.533z M314.733,493.933V348.867c0-5.12-3.413-8.533-8.533-8.533H203.8c-5.12,0-8.533,3.413-8.533,8.533
				v145.067h-128V50.2h375.467v443.733H314.733z"/>
			<path d="M229.4,84.333h-68.267H92.867c-5.12,0-8.533,3.413-8.533,8.533v68.267c0,5.12,3.413,8.533,8.533,8.533h68.267H229.4
				c5.12,0,8.533-3.413,8.533-8.533V92.867C237.933,87.747,234.52,84.333,229.4,84.333z M101.4,101.4h51.2v51.2h-51.2V101.4z
				 M220.867,152.6h-51.2v-51.2h51.2V152.6z"/>
			<path d="M169.667,340.333h-76.8c-5.12,0-8.533,3.413-8.533,8.533v68.267c0,5.12,3.413,8.533,8.533,8.533h76.8
				c5.12,0,8.533-3.413,8.533-8.533v-68.267C178.2,343.747,174.787,340.333,169.667,340.333z M161.133,408.6H101.4v-51.2h59.733
				V408.6z"/>
			<path d="M417.133,340.333h-76.8c-5.12,0-8.533,3.413-8.533,8.533v68.267c0,5.12,3.413,8.533,8.533,8.533h76.8
				c5.12,0,8.533-3.413,8.533-8.533v-68.267C425.667,343.747,422.253,340.333,417.133,340.333z M408.6,408.6h-59.733v-51.2H408.6
				V408.6z"/>
			<path d="M417.133,84.333h-68.267H280.6c-5.12,0-8.533,3.413-8.533,8.533v68.267c0,5.12,3.413,8.533,8.533,8.533h68.267h68.267
				c5.12,0,8.533-3.413,8.533-8.533V92.867C425.667,87.747,422.253,84.333,417.133,84.333z M289.133,101.4h51.2v51.2h-51.2V101.4z
				 M408.6,152.6h-51.2v-51.2h51.2V152.6z"/>
			<path d="M229.4,203.8h-68.267H92.867c-5.12,0-8.533,3.413-8.533,8.533V280.6c0,5.12,3.413,8.533,8.533,8.533h68.267H229.4
				c5.12,0,8.533-3.413,8.533-8.533v-68.267C237.933,207.213,234.52,203.8,229.4,203.8z M101.4,220.867h51.2v51.2h-51.2V220.867z
				 M220.867,272.067h-51.2v-51.2h51.2V272.067z"/>
			<path d="M417.133,203.8h-68.267H280.6c-5.12,0-8.533,3.413-8.533,8.533V280.6c0,5.12,3.413,8.533,8.533,8.533h68.267h68.267
				c5.12,0,8.533-3.413,8.533-8.533v-68.267C425.667,207.213,422.253,203.8,417.133,203.8z M289.133,220.867h51.2v51.2h-51.2
				V220.867z M408.6,272.067h-51.2v-51.2h51.2V272.067z"/>
		</g>
	</g>
</g>
<g>
</g>
<g>
</g>
<g>
</g>
<g>
</g>
<g>
</g>
<g>
</g>
<g>
</g>
<g>
</g>
<g>
</g>
<g>
</g>
<g>
</g>
<g>
</g>
<g>
</g>
<g>
</g>
<g>
</g>
</svg>
