<svg height="512pt" viewBox="0 -51 512 512" width="512pt" xmlns="http://www.w3.org/2000/svg"><path d="m435.199219 0h-358.398438c-42.398437.046875-76.753906 34.402344-76.800781 76.800781v145.066407c0 4.710937 3.820312 8.53125 8.535156 8.53125h494.929688c4.714844 0 8.535156-3.820313 8.535156-8.53125v-145.066407c-.046875-42.398437-34.402344-76.753906-76.800781-76.800781zm25.601562 213.332031h-409.601562v-17.066406h409.601562zm-409.601562-34.132812c0-9.425781 7.640625-17.066407 17.066406-17.066407h375.46875c9.425781 0 17.066406 7.640626 17.066406 17.066407zm443.734375 34.132812h-17.066406v-34.132812c0-18.851563-15.28125-34.132813-34.132813-34.132813h-375.46875c-18.851563 0-34.132813 15.28125-34.132813 34.132813v34.132812h-17.066406v-136.53125c.039063-32.976562 26.757813-59.695312 59.734375-59.734375h358.398438c32.976562.039063 59.695312 26.757813 59.734375 59.734375zm0 0"/><path d="m119.464844 59.734375h324.269531c4.710937 0 8.53125-3.820313 8.53125-8.535156 0-4.710938-3.820313-8.53125-8.53125-8.53125h-324.269531c-4.710938 0-8.53125 3.820312-8.53125 8.53125 0 4.714843 3.820312 8.535156 8.53125 8.535156zm0 0"/><path d="m452.265625 85.332031c0-4.710937-3.820313-8.53125-8.53125-8.53125h-324.269531c-4.710938 0-8.53125 3.820313-8.53125 8.53125 0 4.714844 3.820312 8.535157 8.53125 8.535157h324.269531c4.710937 0 8.53125-3.820313 8.53125-8.535157zm0 0"/><path d="m85.332031 76.800781h-17.066406c-4.710937 0-8.53125 3.820313-8.53125 8.53125 0 4.714844 3.820313 8.535157 8.53125 8.535157h17.066406c4.714844 0 8.535157-3.820313 8.535157-8.535157 0-4.710937-3.820313-8.53125-8.535157-8.53125zm0 0"/><path d="m85.332031 42.667969h-17.066406c-4.710937 0-8.53125 3.820312-8.53125 8.53125 0 4.714843 3.820313 8.535156 8.53125 8.535156h17.066406c4.714844 0 8.535157-3.820313 8.535157-8.535156 0-4.710938-3.820313-8.53125-8.535157-8.53125zm0 0"/><path d="m409.601562 110.933594h17.066407v17.066406h-17.066407zm0 0"/><path d="m443.734375 110.933594h17.066406v17.066406h-17.066406zm0 0"/><path d="m145.066406 341.332031c4.714844 0 8.535156-3.820312 8.535156-8.53125 0-4.714843-3.820312-8.535156-8.535156-8.535156-23.5625 0-42.667968 19.101563-42.667968 42.667969 0 23.5625 19.105468 42.667968 42.667968 42.667968 23.566406 0 42.667969-19.105468 42.667969-42.667968v-59.734375c0-4.710938-3.820313-8.53125-8.535156-8.53125-4.710938 0-8.53125 3.820312-8.53125 8.53125v59.734375c0 14.136718-11.460938 25.601562-25.601563 25.601562-14.136718 0-25.601562-11.464844-25.601562-25.601562 0-14.140625 11.464844-25.601563 25.601562-25.601563zm0 0"/><path d="m230.398438 298.667969c4.714843 0 8.535156-3.820313 8.535156-8.535157v-34.132812c0-4.710938-3.820313-8.535156-8.535156-8.535156-4.710938 0-8.53125 3.824218-8.53125 8.535156v34.132812c0 4.714844 3.820312 8.535157 8.53125 8.535157zm0 0"/><path d="m221.867188 341.332031c0 4.714844 3.820312 8.535157 8.53125 8.535157 4.714843 0 8.535156-3.820313 8.535156-8.535157v-17.066406c0-4.710937-3.820313-8.53125-8.535156-8.53125-4.710938 0-8.53125 3.820313-8.53125 8.53125zm0 0"/><path d="m179.199219 281.601562c4.714843 0 8.535156-3.820312 8.535156-8.535156v-17.066406c0-4.710938-3.820313-8.535156-8.535156-8.535156-4.710938 0-8.53125 3.824218-8.53125 8.535156v17.066406c0 4.714844 3.820312 8.535156 8.53125 8.535156zm0 0"/><path d="m324.265625 366.933594c0 23.5625 19.101563 42.667968 42.667969 42.667968 23.5625 0 42.667968-19.105468 42.667968-42.667968 0-23.566406-19.105468-42.667969-42.667968-42.667969-4.714844 0-8.535156 3.820313-8.535156 8.535156 0 4.710938 3.820312 8.53125 8.535156 8.53125 14.136718 0 25.601562 11.460938 25.601562 25.601563 0 14.136718-11.464844 25.601562-25.601562 25.601562-14.140625 0-25.601563-11.464844-25.601563-25.601562v-59.734375c0-4.710938-3.820312-8.53125-8.53125-8.53125-4.714843 0-8.535156 3.820312-8.535156 8.53125zm0 0"/><path d="m332.800781 281.601562c4.710938 0 8.53125-3.820312 8.53125-8.535156v-17.066406c0-4.710938-3.820312-8.535156-8.53125-8.535156-4.714843 0-8.535156 3.824218-8.535156 8.535156v17.066406c0 4.714844 3.820313 8.535156 8.535156 8.535156zm0 0"/><path d="m221.867188 401.066406c0 4.714844 3.820312 8.535156 8.53125 8.535156 4.714843 0 8.535156-3.820312 8.535156-8.535156v-25.601562c0-4.710938-3.820313-8.53125-8.535156-8.53125-4.710938 0-8.53125 3.820312-8.53125 8.53125zm0 0"/><path d="m281.601562 298.667969c4.710938 0 8.53125-3.820313 8.53125-8.535157v-34.132812c0-4.710938-3.820312-8.535156-8.53125-8.535156-4.714843 0-8.535156 3.824218-8.535156 8.535156v34.132812c0 4.714844 3.820313 8.535157 8.535156 8.535157zm0 0"/><path d="m273.066406 341.332031c0 4.714844 3.820313 8.535157 8.535156 8.535157 4.710938 0 8.53125-3.820313 8.53125-8.535157v-17.066406c0-4.710937-3.820312-8.53125-8.53125-8.53125-4.714843 0-8.535156 3.820313-8.535156 8.53125zm0 0"/><path d="m273.066406 401.066406c0 4.714844 3.820313 8.535156 8.535156 8.535156 4.710938 0 8.53125-3.820312 8.53125-8.535156v-25.601562c0-4.710938-3.820312-8.53125-8.53125-8.53125-4.714843 0-8.535156 3.820312-8.535156 8.53125zm0 0"/></svg>