<?xml version="1.0" encoding="utf-8"?>
<!-- Generator: Adobe Illustrator 22.0.1, SVG Export Plug-In . SVG Version: 6.00 Build 0)  -->
<svg version="1.1" id="Camada_1" xmlns="http://www.w3.org/2000/svg" xmlns:xlink="http://www.w3.org/1999/xlink" x="0px" y="0px"
	 viewBox="0 0 512 512" style="enable-background:new 0 0 512 512;" xml:space="preserve">
<style type="text/css">
	.st0{fill:#FFFFFF;}
</style>
<path class="st0" d="M435.2,51H76.8C34.4,51,0,85.4,0,127.8v145.1c0,4.7,3.8,8.5,8.5,8.5h494.9c4.7,0,8.5-3.8,8.5-8.5V127.8
	C512,85.4,477.6,51,435.2,51z M460.8,264.3H51.2v-17.1h409.6V264.3z M51.2,230.2c0-9.4,7.6-17.1,17.1-17.1h375.5
	c9.4,0,17.1,7.6,17.1,17.1H51.2z M494.9,264.3h-17.1v-34.1c0-18.9-15.3-34.1-34.1-34.1H68.3c-18.9,0-34.1,15.3-34.1,34.1v34.1H17.1
	V127.8c0-33,26.8-59.7,59.7-59.7h358.4c33,0,59.7,26.8,59.7,59.7V264.3z"/>
<path class="st0" d="M119.5,110.7h324.3c4.7,0,8.5-3.8,8.5-8.5c0-4.7-3.8-8.5-8.5-8.5H119.5c-4.7,0-8.5,3.8-8.5,8.5
	C110.9,106.9,114.8,110.7,119.5,110.7z"/>
<path class="st0" d="M452.3,136.3c0-4.7-3.8-8.5-8.5-8.5H119.5c-4.7,0-8.5,3.8-8.5,8.5c0,4.7,3.8,8.5,8.5,8.5h324.3
	C448.4,144.9,452.3,141,452.3,136.3z"/>
<path class="st0" d="M85.3,127.8H68.3c-4.7,0-8.5,3.8-8.5,8.5c0,4.7,3.8,8.5,8.5,8.5h17.1c4.7,0,8.5-3.8,8.5-8.5
	C93.9,131.6,90,127.8,85.3,127.8z"/>
<path class="st0" d="M85.3,93.7H68.3c-4.7,0-8.5,3.8-8.5,8.5c0,4.7,3.8,8.5,8.5,8.5h17.1c4.7,0,8.5-3.8,8.5-8.5
	C93.9,97.5,90,93.7,85.3,93.7z"/>
<path class="st0" d="M409.6,161.9h17.1V179h-17.1V161.9z"/>
<path class="st0" d="M443.7,161.9h17.1V179h-17.1V161.9z"/>
<path class="st0" d="M145.1,392.3c4.7,0,8.5-3.8,8.5-8.5c0-4.7-3.8-8.5-8.5-8.5c-23.6,0-42.7,19.1-42.7,42.7
	c0,23.6,19.1,42.7,42.7,42.7c23.6,0,42.7-19.1,42.7-42.7v-59.7c0-4.7-3.8-8.5-8.5-8.5c-4.7,0-8.5,3.8-8.5,8.5v59.7
	c0,14.1-11.5,25.6-25.6,25.6c-14.1,0-25.6-11.5-25.6-25.6C119.5,403.8,130.9,392.3,145.1,392.3z"/>
<path class="st0" d="M230.4,349.7c4.7,0,8.5-3.8,8.5-8.5V307c0-4.7-3.8-8.5-8.5-8.5c-4.7,0-8.5,3.8-8.5,8.5v34.1
	C221.9,345.8,225.7,349.7,230.4,349.7z"/>
<path class="st0" d="M221.9,392.3c0,4.7,3.8,8.5,8.5,8.5c4.7,0,8.5-3.8,8.5-8.5v-17.1c0-4.7-3.8-8.5-8.5-8.5c-4.7,0-8.5,3.8-8.5,8.5
	V392.3z"/>
<path class="st0" d="M179.2,332.6c4.7,0,8.5-3.8,8.5-8.5V307c0-4.7-3.8-8.5-8.5-8.5c-4.7,0-8.5,3.8-8.5,8.5v17.1
	C170.7,328.8,174.5,332.6,179.2,332.6z"/>
<path class="st0" d="M324.3,417.9c0,23.6,19.1,42.7,42.7,42.7c23.6,0,42.7-19.1,42.7-42.7c0-23.6-19.1-42.7-42.7-42.7
	c-4.7,0-8.5,3.8-8.5,8.5c0,4.7,3.8,8.5,8.5,8.5c14.1,0,25.6,11.5,25.6,25.6c0,14.1-11.5,25.6-25.6,25.6c-14.1,0-25.6-11.5-25.6-25.6
	v-59.7c0-4.7-3.8-8.5-8.5-8.5c-4.7,0-8.5,3.8-8.5,8.5V417.9z"/>
<path class="st0" d="M332.8,332.6c4.7,0,8.5-3.8,8.5-8.5V307c0-4.7-3.8-8.5-8.5-8.5c-4.7,0-8.5,3.8-8.5,8.5v17.1
	C324.3,328.8,328.1,332.6,332.8,332.6z"/>
<path class="st0" d="M221.9,452.1c0,4.7,3.8,8.5,8.5,8.5c4.7,0,8.5-3.8,8.5-8.5v-25.6c0-4.7-3.8-8.5-8.5-8.5c-4.7,0-8.5,3.8-8.5,8.5
	V452.1z"/>
<path class="st0" d="M281.6,349.7c4.7,0,8.5-3.8,8.5-8.5V307c0-4.7-3.8-8.5-8.5-8.5c-4.7,0-8.5,3.8-8.5,8.5v34.1
	C273.1,345.8,276.9,349.7,281.6,349.7z"/>
<path class="st0" d="M273.1,392.3c0,4.7,3.8,8.5,8.5,8.5c4.7,0,8.5-3.8,8.5-8.5v-17.1c0-4.7-3.8-8.5-8.5-8.5c-4.7,0-8.5,3.8-8.5,8.5
	V392.3z"/>
<path class="st0" d="M273.1,452.1c0,4.7,3.8,8.5,8.5,8.5c4.7,0,8.5-3.8,8.5-8.5v-25.6c0-4.7-3.8-8.5-8.5-8.5c-4.7,0-8.5,3.8-8.5,8.5
	V452.1z"/>
</svg>
