<?xml version="1.0" encoding="utf-8"?>
<!-- Generator: Adobe Illustrator 22.0.1, SVG Export Plug-In . SVG Version: 6.00 Build 0)  -->
<svg version="1.1" id="Capa_1" xmlns="http://www.w3.org/2000/svg" xmlns:xlink="http://www.w3.org/1999/xlink" x="0px" y="0px"
	 viewBox="0 0 60 60" style="enable-background:new 0 0 60 60;" xml:space="preserve">
<style type="text/css">
	.st0{fill:#FFFFFF;}
</style>
<g>
	<path class="st0" d="M59,58H49v-2.2c2.5-0.6,4.5-2.5,5.2-5.1l3.6-12.8c1.3-0.3,2.2-1.5,2.2-2.9c0-1.7-1.3-3-3-3V2.4
		c0-1-0.6-1.9-1.5-2.2c-0.9-0.4-1.9-0.2-2.6,0.5l-2.6,2.6c-2.3-1.7-5.5-1.6-7.6,0.5c-0.4,0.4-0.4,1,0,1.4l7.1,7.1
		c0.2,0.2,0.4,0.3,0.7,0.3s0.5-0.1,0.7-0.3c2.1-2.1,2.2-5.3,0.5-7.6l2.6-2.6C54.5,2,54.6,2,54.7,2c0.1,0,0.3,0.1,0.3,0.4V32H24v-2
		H11v2H3c-1.7,0-3,1.3-3,3c0,1.4,0.9,2.5,2.2,2.9l3.6,12.8c0.7,2.6,2.8,4.5,5.2,5.1V58H1c-0.6,0-1,0.4-1,1s0.4,1,1,1h11h3h30h3h11
		c0.6,0,1-0.4,1-1S59.6,58,59,58z M50.4,10.1l-5.5-5.5c1.4-0.8,3.3-0.6,4.5,0.6l0.3,0.3C51,6.8,51.2,8.6,50.4,10.1z M57,34
		c0.6,0,1,0.4,1,1s-0.4,1-1,1H24v-2H57z M22,32v4v2v5h-9v-5v-2v-4H22z M13,45h9v2h-9V45z M3,34h8v2H3c-0.6,0-1-0.4-1-1S2.4,34,3,34z
		 M7.7,50.1L4.3,38H11v5v6h13v-6v-5h31.7l-3.4,12.1c-0.6,2.3-2.7,3.9-5.1,3.9H43H17h-4.2C10.4,54,8.3,52.4,7.7,50.1z M42.4,56l1,2
		H16.6l1-2H42.4z M13,58v-2h2.4l-1,2H13z M45.6,58l-1-2H47v2H45.6z"/>
	<path class="st0" d="M47,14c0.6,0,1-0.4,1-1v-1c0-0.6-0.4-1-1-1s-1,0.4-1,1v1C46,13.6,46.4,14,47,14z"/>
	<path class="st0" d="M46,21c0,0.6,0.4,1,1,1s1-0.4,1-1v-1c0-0.6-0.4-1-1-1s-1,0.4-1,1V21z"/>
	<path class="st0" d="M46,25c0,0.6,0.4,1,1,1s1-0.4,1-1v-1c0-0.6-0.4-1-1-1s-1,0.4-1,1V25z"/>
	<path class="st0" d="M46,29c0,0.6,0.4,1,1,1s1-0.4,1-1v-1c0-0.6-0.4-1-1-1s-1,0.4-1,1V29z"/>
	<path class="st0" d="M46,17c0,0.6,0.4,1,1,1s1-0.4,1-1v-1c0-0.6-0.4-1-1-1s-1,0.4-1,1V17z"/>
	<path class="st0" d="M37.5,12.5c0.3,0,0.5-0.1,0.7-0.3l0.7-0.7c0.4-0.4,0.4-1,0-1.4s-1-0.4-1.4,0l-0.7,0.7c-0.4,0.4-0.4,1,0,1.4
		C37,12.4,37.2,12.5,37.5,12.5z"/>
	<path class="st0" d="M34.6,15.4c0.3,0,0.5-0.1,0.7-0.3l0.7-0.7c0.4-0.4,0.4-1,0-1.4s-1-0.4-1.4,0l-0.7,0.7c-0.4,0.4-0.4,1,0,1.4
		C34.1,15.3,34.4,15.4,34.6,15.4z"/>
	<path class="st0" d="M31.8,18.2c0.3,0,0.5-0.1,0.7-0.3l0.7-0.7c0.4-0.4,0.4-1,0-1.4c-0.4-0.4-1-0.4-1.4,0l-0.7,0.7
		c-0.4,0.4-0.4,1,0,1.4C31.3,18.1,31.6,18.2,31.8,18.2z"/>
	<path class="st0" d="M40.3,9.7c0.3,0,0.5-0.1,0.7-0.3l0.7-0.7c0.4-0.4,0.4-1,0-1.4s-1-0.4-1.4,0L39.6,8c-0.4,0.4-0.4,1,0,1.4
		C39.8,9.6,40,9.7,40.3,9.7z"/>
	<path class="st0" d="M26.2,23.8c0.3,0,0.5-0.1,0.7-0.3l0.7-0.7c0.4-0.4,0.4-1,0-1.4s-1-0.4-1.4,0l-0.7,0.7c-0.4,0.4-0.4,1,0,1.4
		C25.6,23.8,25.9,23.8,26.2,23.8z"/>
	<path class="st0" d="M20.5,29.5c0.3,0,0.5-0.1,0.7-0.3l0.7-0.7c0.4-0.4,0.4-1,0-1.4s-1-0.4-1.4,0l-0.7,0.7c-0.4,0.4-0.4,1,0,1.4
		C20,29.4,20.2,29.5,20.5,29.5z"/>
	<path class="st0" d="M29,21c0.3,0,0.5-0.1,0.7-0.3l0.7-0.7c0.4-0.4,0.4-1,0-1.4c-0.4-0.4-1-0.4-1.4,0l-0.7,0.7
		c-0.4,0.4-0.4,1,0,1.4C28.5,20.9,28.7,21,29,21z"/>
	<path class="st0" d="M23.3,26.7c0.3,0,0.5-0.1,0.7-0.3l0.7-0.7c0.4-0.4,0.4-1,0-1.4s-1-0.4-1.4,0L22.6,25c-0.4,0.4-0.4,1,0,1.4
		C22.8,26.6,23.1,26.7,23.3,26.7z"/>
	<path class="st0" d="M39.1,19.7c0.2,0.1,0.3,0.1,0.5,0.1c0.4,0,0.7-0.2,0.9-0.5l0.5-0.9c0.3-0.5,0.1-1.1-0.4-1.4
		c-0.5-0.3-1.1-0.1-1.4,0.4l-0.5,0.9C38.5,18.9,38.7,19.5,39.1,19.7z"/>
	<path class="st0" d="M41.2,14l-0.5,0.9c-0.3,0.5-0.1,1.1,0.4,1.4c0.2,0.1,0.3,0.1,0.5,0.1c0.4,0,0.7-0.2,0.9-0.5l0.5-0.9
		c0.3-0.5,0.1-1.1-0.4-1.4C42.1,13.4,41.5,13.5,41.2,14z"/>
	<path class="st0" d="M43,12.7c0.2,0.1,0.3,0.1,0.5,0.1c0.4,0,0.7-0.2,0.9-0.5l0.5-0.9c0.3-0.5,0.1-1.1-0.4-1.4
		c-0.5-0.3-1.1-0.1-1.4,0.4l-0.5,0.9C42.4,11.9,42.5,12.5,43,12.7z"/>
	<path class="st0" d="M36.6,26.3l0.5-0.9c0.3-0.5,0.1-1.1-0.4-1.4c-0.5-0.3-1.1-0.1-1.4,0.4l-0.5,0.9c-0.3,0.5-0.1,1.1,0.4,1.4
		c0.2,0.1,0.3,0.1,0.5,0.1C36.1,26.9,36.4,26.7,36.6,26.3z"/>
	<path class="st0" d="M38.6,22.8L39,22c0.3-0.5,0.1-1.1-0.4-1.4c-0.5-0.3-1.1-0.1-1.4,0.4l-0.5,0.9c-0.3,0.5-0.1,1.1,0.4,1.4
		c0.2,0.1,0.3,0.1,0.5,0.1C38,23.4,38.4,23.2,38.6,22.8z"/>
	<path class="st0" d="M34.8,27.6c-0.5-0.3-1.1-0.1-1.4,0.4l-0.3,0.5c-0.3,0.5-0.1,1.1,0.4,1.4C33.7,30,33.8,30,34,30
		c0.4,0,0.7-0.2,0.9-0.5l0.3-0.5C35.4,28.5,35.3,27.9,34.8,27.6z"/>
</g>
</svg>
