<?xml version="1.0" encoding="utf-8"?>
<!-- Generator: Adobe Illustrator 22.0.1, SVG Export Plug-In . SVG Version: 6.00 Build 0)  -->
<svg version="1.1" id="Camada_1" xmlns="http://www.w3.org/2000/svg" xmlns:xlink="http://www.w3.org/1999/xlink" x="0px" y="0px"
	 viewBox="0 0 463 463" style="enable-background:new 0 0 463 463;" xml:space="preserve">
<style type="text/css">
	.st0{fill:#FFFFFF;}
</style>
<g>
	<path class="st0" d="M450.9,191.2c1.3,1.1,3,1.6,4.6,1.6c1.1,0,2.2-0.2,3.3-0.8c2.6-1.3,4.2-3.9,4.2-6.7v-40c0-2.3-1.1-4.5-2.9-5.9
		L338,43.2c-8.6-6.7-20.5-6.7-29.1,0l-46,36.2V65.3c0-4.1-3.4-7.5-7.5-7.5h-32c-4.1,0-7.5,3.4-7.5,7.5v51.1l-29.1,23
		c-1.8,1.4-2.9,3.6-2.9,5.9v40c0,2.9,1.6,5.5,4.2,6.7c2.6,1.3,5.7,0.9,7.9-0.9l3.9-3v73.1l-70-55.1c-8.6-6.7-20.5-6.7-29.1,0
		L2.9,283.4C1.1,284.9,0,287,0,289.3v40c0,2.9,1.6,5.5,4.2,6.7c1,0.5,2.2,0.8,3.3,0.8c1.7,0,3.3-0.5,4.6-1.6l3.9-3v77.6H7.5
		c-4.1,0-7.5,3.4-7.5,7.5s3.4,7.5,7.5,7.5h448c4.1,0,7.5-3.4,7.5-7.5s-3.4-7.5-7.5-7.5H447V188.2L450.9,191.2L450.9,191.2z
		 M231,72.8h17v18.4l-17,13.4V72.8z M199,149L318.2,55c3.1-2.4,7.4-2.4,10.5,0L448,149v20.9L328.1,75.4c-1.4-1.1-3-1.6-4.6-1.6
		s-3.3,0.5-4.6,1.6L199,169.9V149z M15,293l95.2-75c3.1-2.4,7.4-2.4,10.5,0l79.2,62.4v20.9l-79.9-62.9c-2.7-2.1-6.6-2.1-9.3,0
		L15,313.9V293L15,293z M31,320.4l84.5-66.6l84.5,66.6v89.5h-33v-88.5c0-4.1-3.4-7.5-7.5-7.5h-88c-4.1,0-7.5,3.4-7.5,7.5v88.5H31
		V320.4L31,320.4z M79,360.8h73v17H79V360.8z M152,345.8H79v-17h73V345.8z M79,392.8h73v17H79V392.8z M296,353.9c-0.2,0-0.3,0-0.5,0
		c-2,0-3.9,0.8-5.3,2.2c-1.4,1.4-2.2,3.3-2.2,5.3s0.8,3.9,2.2,5.3c1.4,1.4,3.3,2.2,5.3,2.2c0.2,0,0.3,0,0.5,0v41h-33v-97h33V353.9z
		 M432,409.8H311V305.3c0-4.1-3.4-7.5-7.5-7.5h-48c-4.1,0-7.5,3.4-7.5,7.5v104.5h-33V176.4l108.5-85.5L432,176.4V409.8z"/>
	<path class="st0" d="M343.5,376.8h48c4.1,0,7.5-3.4,7.5-7.5v-64c0-4.1-3.4-7.5-7.5-7.5h-48c-4.1,0-7.5,3.4-7.5,7.5v64
		C336,373.5,339.4,376.8,343.5,376.8z M351,361.8v-25h33v25H351z M384,312.8v9h-33v-9H384z"/>
	<path class="st0" d="M343.5,264.8h48c4.1,0,7.5-3.4,7.5-7.5v-64c0-4.1-3.4-7.5-7.5-7.5h-48c-4.1,0-7.5,3.4-7.5,7.5v64
		C336,261.5,339.4,264.8,343.5,264.8z M351,249.8v-25h33v25H351z M384,200.8v9h-33v-9H384z"/>
	<path class="st0" d="M303.5,185.8h-48c-4.1,0-7.5,3.4-7.5,7.5v64c0,4.1,3.4,7.5,7.5,7.5h48c4.1,0,7.5-3.4,7.5-7.5v-64
		C311,189.2,307.6,185.8,303.5,185.8L303.5,185.8z M296,200.8v9h-33v-9H296z M263,249.8v-25h33v25H263z"/>
</g>
</svg>
