<?xml version="1.0" encoding="utf-8"?>
<!-- Generator: Adobe Illustrator 22.0.1, SVG Export Plug-In . SVG Version: 6.00 Build 0)  -->
<svg version="1.1" id="Camada_1" xmlns="http://www.w3.org/2000/svg" xmlns:xlink="http://www.w3.org/1999/xlink" x="0px" y="0px"
	 viewBox="0 0 512 512" style="enable-background:new 0 0 512 512;" xml:space="preserve">
<style type="text/css">
	.st0{fill:#FFFFFF;}
</style>
<path class="st0" d="M66.6,492h378.4V196.3c0-5.5,4.5-10,10-10h28.5v-22.1L255.8,21.8L28,164.2v22.1h28.5c5.5,0,10,4.5,10,10V492z
	 M162.2,332.9c1.8,1.8,3,4.4,3,7.1c0,5.5-4.5,10-10,10c-2.8,0-5.4-1.2-7.2-3.1l-18.5-18.5c-31.5-31.5-31.5-83.7,0-115.2
	c15.8-15.8,36.7-23.8,57.6-23.8c20.9,0,41.8,7.9,57.6,23.8l11.1,11.1l11.1-11.1c15.8-15.8,36.7-23.8,57.6-23.8
	c20.9,0,41.8,7.9,57.6,23.8c31.7,31.7,31.7,83.6,0,115.2L262.8,447.8c-3.9,3.9-10.3,3.9-14.2,0l-43.9-43.9c-1.9-1.9-3-4.4-3-7.1
	c0-5.5,4.5-10,10-10c2.8,0,5.4,1.2,7.2,3l36.8,36.8L368,314.3c23.9-23.9,23.9-63,0-86.9c-12-12-27.7-17.9-43.5-17.9
	s-31.5,6-43.5,17.9l-18.2,18.2c-3.9,3.9-10.3,3.9-14.2,0l-18.2-18.2c-12-12-27.7-17.9-43.5-17.9s-31.5,6-43.5,17.9
	c-23.8,23.8-23.8,63.1,0,86.9L162.2,332.9z M183.4,358.3c5.5,0,10,4.5,10,10s-4.5,10-10,10s-10-4.5-10-10S177.9,358.3,183.4,358.3z
	 M454.9,512H56.6c-5.5,0-10-4.5-10-10V206.3H18c-5.5,0-10-4.5-10-10l0-37.6c0-3.3,1.7-6.6,4.7-8.5L250.3,1.6c3.1-2,7.3-2.2,10.7-0.1
	l237.2,148.4c3.1,1.7,5.2,5,5.2,8.8v37.6c0,5.5-4.5,10-10,10H465V502C465,507.5,460.5,512,454.9,512z"/>
</svg>
