<svg viewBox="-8 0 512 512.00046" xmlns="http://www.w3.org/2000/svg"><path d="m58.59375 491.988281h378.351562v-295.660156c0-5.527344 4.476563-10.007813 10.003907-10.007813h28.546875v-22.109374l-227.742188-142.417969-227.710937 142.417969v22.109374h28.515625c5.527344 0 10.035156 4.480469 10.035156 10.007813zm95.558594-159.085937c1.84375 1.84375 3.003906 4.367187 3.003906 7.144531 0 5.527344-4.476562 10.035156-10.035156 10.035156-2.804688 0-5.355469-1.1875-7.171875-3.058593l-18.539063-18.542969c-31.546875-31.546875-31.546875-83.679688 0-115.230469 15.847656-15.84375 36.738282-23.78125 57.601563-23.78125 20.894531 0 41.785156 7.9375 57.632812 23.78125l11.109375 11.113281 11.113282-11.113281c15.84375-15.84375 36.738281-23.78125 57.628906-23.78125 20.863281 0 41.753906 7.9375 57.601562 23.78125 31.691406 31.691406 31.691406 83.566406 0 115.230469l-119.257812 119.285156c-3.910156 3.914063-10.261719 3.914063-14.171875 0l-43.910157-43.9375c-1.929687-1.925781-3.003906-4.394531-3.003906-7.144531 0-5.527344 4.476563-10.007813 10.003906-10.007813 2.808594 0 5.359376 1.164063 7.203126 3.035157l36.792968 36.792968 112.199219-112.167968c23.894531-23.925782 23.894531-63.015626 0-86.914063-11.964844-11.960937-27.695313-17.914063-43.457031-17.914063-15.761719 0-31.523438 5.953126-43.457032 17.914063l-18.199218 18.171875c-3.910156 3.914062-10.261719 3.914062-14.171875 0l-18.171875-18.171875c-11.960938-11.960937-27.722656-17.914063-43.484375-17.914063s-31.492188 5.953126-43.457031 17.914063c-23.753907 23.757813-23.753907 63.132813 0 86.914063zm21.230468 25.371094c5.527344 0 10.007813 4.480468 10.007813 10.007812s-4.480469 10.035156-10.007813 10.035156c-5.527343 0-10.035156-4.507812-10.035156-10.035156s4.507813-10.007812 10.035156-10.007812zm271.566407 153.726562h-398.390625c-5.527344 0-10.007813-4.480469-10.007813-10.007812v-295.660157h-28.542969c-5.527343 0-10.007812-4.476562-10.007812-10.003906l.0273438-37.617187c0-3.347657 1.6757812-6.605469 4.7070312-8.503907l237.578125-148.597656c3.144531-2.039063 7.3125-2.210937 10.714844-.113281l237.238281 148.398437c3.117187 1.699219 5.242187 4.988281 5.242187 8.816407v37.617187c0 5.527344-4.476562 10.003906-10.007812 10.003906h-28.542969v295.660157c0 5.527343-4.480469 10.007812-10.007812 10.007812zm0 0"/></svg>