<?xml version="1.0" encoding="utf-8"?>
<!-- Generator: Adobe Illustrator 22.1.0, SVG Export Plug-In . SVG Version: 6.00 Build 0)  -->
<svg version="1.1" id="Layer_1" xmlns="http://www.w3.org/2000/svg" xmlns:xlink="http://www.w3.org/1999/xlink" x="0px" y="0px"
	 viewBox="0 0 291 70" style="enable-background:new 0 0 291 70;" xml:space="preserve">
<style type="text/css">
	.st0{fill:url(#SVGID_1_);}
	.st1{fill:url(#SVGID_2_);}
</style>
<g id="Camada_x0020_1">
	<g id="_1838688193920">
		<linearGradient id="SVGID_1_" gradientUnits="userSpaceOnUse" x1="16.2767" y1="17.9927" x2="53.408" y2="49.1496">
			<stop  offset="0" style="stop-color:#B81EFD"/>
			<stop  offset="0.8973" style="stop-color:#5518AC"/>
		</linearGradient>
		<path class="st0" d="M11.8,19c-2.1-1.2-4.2-2.4-6.3-3.7c-0.7-0.4-0.9-0.9-0.6-1.4c0.2-0.2,0.4-0.4,0.6-0.5C11,10.2,16.5,7,22,3.7
			c1-0.6,2.6-0.6,3.6,0c2.2,1.2,4.3,2.5,6.5,3.7c1,0.6,2.6,0.6,3.6,0c2.2-1.2,4.3-2.5,6.5-3.7c1-0.6,2.6-0.6,3.6,0
			c5.5,3.2,11,6.5,16.5,9.7c0.2,0.1,0.4,0.3,0.6,0.5c0.2,0.5,0,1-0.6,1.4c-8.8,5.1-17.7,10.3-26.5,15.4c-0.5,0.3-1.1,0.4-1.8,0.4
			S32.5,31,32,30.8C25.3,26.9,18.5,22.9,11.8,19z M11.6,55.5c-1.8-1-4.3-2.5-6.1-3.5c-1-0.6-1.8-2-1.8-3.1c0-10.2,0-20.4,0-30.6
			c0-0.5,0.1-1,0.4-1.5c0.2,0.4,0.5,0.8,1,1c8.8,5.1,17.7,10.3,26.5,15.4c0.6,0.3,1.4,0.5,2.2,0.5s1.6-0.2,2.2-0.5
			c8.8-5.1,17.7-10.3,26.5-15.4c0.5-0.3,0.8-0.6,1-1c0.2,0.5,0.4,1,0.4,1.5c0,10.2,0,20.4,0,30.6c0,1.1-0.8,2.5-1.8,3.1
			C53.3,57,44.4,62.1,35.6,67.2c-1,0.6-2.6,0.6-3.6,0c-2.1-1.2-4.2-2.4-6.3-3.6c-1-0.6-1.8-2-1.8-3.1c0-2.5,0-10.1,0-12.6
			c0-1.1-0.1-2.5-1.1-3.1c-0.7-0.4-1.4-0.6-2.1-1c-1.5-0.9-3.6-1.7-5.2-2.6c-1-0.6-1.8-0.1-1.8,1c0,2.5,0,9.5,0,12
			C13.7,55.4,13.1,56.3,11.6,55.5z M48,39.2c-1,0.6-1.8,2-1.8,3.1v7.5c0,1.1,0.8,1.6,1.8,1l6.7-3.9c1-0.6,1.8-2,1.8-3.1v-7.5
			c0-1.1-0.8-1.6-1.8-1L48,39.2z"/>
		<g>
			<g>
				<g>
					<linearGradient id="SVGID_2_" gradientUnits="userSpaceOnUse" x1="125.9312" y1="-18.8299" x2="248.6088" y2="84.1088">
						<stop  offset="0" style="stop-color:#971EFD"/>
						<stop  offset="0.8973" style="stop-color:#6018AC"/>
					</linearGradient>
					<path class="st1" d="M94.1,27.3c1.4-0.8,3-1.2,4.7-1.2c1.6,0,2.9,0.4,4.2,1c1,0.5,1.8,1.2,2.5,2c0.4,0.4,1.1,0.6,1.6,0.3
						l1.9-1.2c0.5-0.4,0.6-1,0.3-1.5c-1-1.4-2.3-2.5-3.9-3.3c-1.9-1-4.1-1.5-6.6-1.5c-2.8,0-5.2,0.6-7.3,1.8
						c-2.1,1.2-3.8,2.8-5.1,4.9c-1.3,2-1.8,4.4-1.8,7.1c0,2.6,0.6,5,1.8,7.1c1.2,2.1,2.9,3.7,5.1,4.9c2.1,1.2,4.6,1.8,7.3,1.8
						c2.5,0,4.6-0.5,6.6-1.5c1.6-0.8,2.8-1.9,3.8-3.2c0.4-0.6,0.2-1.3-0.4-1.6l-1.8-1.1c-0.5-0.3-1.1-0.2-1.6,0.3
						c-0.7,0.8-1.6,1.6-2.5,2c-1.3,0.6-2.6,1-4.2,1c-1.8,0-3.3-0.4-4.7-1.2c-1.4-0.8-2.5-1.9-3.3-3.3c-0.8-1.4-1.2-3.1-1.2-5
						c0-1.8,0.4-3.5,1.2-4.9C91.5,29.2,92.7,28,94.1,27.3z M133.1,23.6c-2.1-1.2-4.5-1.8-7.2-1.8s-5.1,0.6-7.2,1.8
						c-2.1,1.2-3.8,2.8-5,4.9c-1.2,2.1-1.8,4.4-1.8,7.1c0,2.6,0.6,5,1.8,7.1c1.2,2.1,2.9,3.7,5,4.9c2.1,1.2,4.5,1.8,7.2,1.8
						c2.7,0,5.1-0.6,7.2-1.8c2.1-1.2,3.8-2.8,5-4.9c1.2-2.1,1.8-4.4,1.8-7.1c0-2.6-0.6-5-1.8-7.1C136.9,26.4,135.2,24.8,133.1,23.6z
						 M133.8,40.5c-0.8,1.4-1.8,2.5-3.2,3.4c-1.3,0.8-2.9,1.2-4.7,1.2c-1.7,0-3.2-0.4-4.7-1.2c-1.3-0.8-2.5-1.9-3.2-3.4
						c-0.8-1.4-1.2-3.1-1.2-4.9c0-1.8,0.4-3.5,1.2-4.9c0.8-1.4,1.9-2.5,3.2-3.3c1.3-0.8,2.9-1.2,4.7-1.2c1.7,0,3.2,0.4,4.7,1.2
						c1.3,0.8,2.5,1.9,3.2,3.3c0.8,1.4,1.2,3.1,1.2,4.9C134.9,37.4,134.5,39.1,133.8,40.5z M198,22.1h-2.5c-0.4,0-0.8,0.3-1,0.6
						l-8.5,20c-0.4,0.8-1.1,0.8-1.4,0l-8.3-20c-0.1-0.4-0.6-0.6-1-0.6l-2.8,0c-0.8,0-1.3,0.8-1,1.5l10.9,24.9c0.1,0.4,0.6,0.6,1,0.6
						h3.6c0.4,0,0.8-0.3,1-0.6L199,23.6C199.3,22.9,198.8,22.1,198,22.1z M207.3,22.1h-2.8c-0.6,0-1.1,0.5-1.1,1.1V48
						c0,0.6,0.5,1.1,1.1,1.1l2.8,0c0.6,0,1.1-0.5,1.1-1.1V23.2C208.4,22.6,207.9,22.1,207.3,22.1z M262.3,23.5
						c-2-1.1-4.2-1.6-6.6-1.6c-2.5,0-4.9,0.6-6.9,1.8c-2,1.2-3.7,2.8-4.8,4.9c-1.2,2.1-1.8,4.4-1.8,7.1c0,2.6,0.6,5,1.8,7.1
						c1.2,2.1,2.9,3.7,5.1,4.9c2.2,1.2,4.7,1.8,7.6,1.8c2.3,0,4.2-0.4,6.1-1.1c1.5-0.6,2.8-1.5,3.8-2.5c0.4-0.4,0.4-1.1,0.1-1.5
						l-1.3-1.6c-0.4-0.5-1.1-0.5-1.6-0.1c-1.8,1.6-4.2,2.5-7,2.5c-2.3,0-4.2-0.5-5.8-1.6c-1.2-0.8-2.1-1.8-2.8-3
						c-0.4-0.6,0-1.5,0.7-1.6l19.1-3.7c0.6-0.1,0.9-0.6,0.8-1.1c-0.1-2.2-0.8-4.2-1.8-5.9C265.9,26.1,264.3,24.6,262.3,23.5z
						 M262.8,32.8l-16,3v-0.5c0-1.8,0.4-3.5,1.1-4.9c0.8-1.4,1.8-2.5,3.1-3.2s2.8-1.2,4.5-1.2c2.1,0,4,0.6,5.5,1.8
						c1.2,1,2,2.2,2.6,3.6C263.9,32,263.5,32.7,262.8,32.8L262.8,32.8z M157.5,21.8h-0.3c-0.7,0-1.3,0-1.9,0H155c-3.4,0-6.1,1-8.2,3
						c-2,2-3,4.9-3,8.7V48c0,0.6,0.5,1.1,1.1,1.1l2.7,0c0.6,0,1.1-0.5,1.1-1.1V34.1c0-2.6,0.6-4.6,1.9-5.9c1.1-1.1,2.6-1.8,4.5-2
						c0.3,0,0.6,0,0.8,0c0.1,0,0.1,0,0.3,0c0.1,0,0.1,0,0.2,0c0.3,0,0.6,0,0.8,0c1.9,0.1,3.5,0.8,4.5,2c1.3,1.3,1.9,3.3,1.9,5.9
						v13.8c0,0.6,0.5,1.1,1.1,1.1l2.6,0c0.6,0,1.1-0.5,1.1-1.1V33.5c0-3.8-1-6.7-3-8.7C163.6,22.8,160.9,21.8,157.5,21.8z
						 M285.2,21.5h-0.3c-3.4,0-5.7,1.6-7.8,3.5c-2,2-3.4,4.7-3.4,8.5V48c0,0.6,0.5,1.1,1.1,1.1h2.5c0.6,0,1.2-0.6,1.2-1.2V34.1
						c0-2.6,0.8-4.9,2-6.2c1.1-1.1,2.3-2,4.2-2.1c0,0,0,0,0-0.1h0.3c0.6,0,1.1-0.5,1.1-1.1v-2c0-0.1,0-0.1,0-0.2
						C286.3,22,285.8,21.5,285.2,21.5L285.2,21.5z M239.7,22.1h-2.5c-0.4,0-0.8,0.3-1,0.6l-8.5,20c-0.4,0.8-1.1,0.8-1.4,0l-8.3-20
						c-0.1-0.4-0.6-0.6-1-0.6l-2.8,0c-0.8,0-1.3,0.8-1,1.5l10.9,24.9c0.1,0.4,0.6,0.6,1,0.6h3.6c0.4,0,0.8-0.3,1-0.6l10.9-24.9
						C241,22.9,240.5,22.1,239.7,22.1z M289.2,22.5c0,0.1,0,0.1,0,0.2V22.5L289.2,22.5z"/>
				</g>
			</g>
		</g>
	</g>
</g>
</svg>
