<?xml version="1.0" encoding="UTF-8"?>
<!DOCTYPE svg PUBLIC "-//W3C//DTD SVG 1.1//EN" "http://www.w3.org/Graphics/SVG/1.1/DTD/svg11.dtd">
<!-- Creator: CorelDRAW 2018 (64 Bit Versão de avaliação) -->
<svg xmlns="http://www.w3.org/2000/svg" xml:space="preserve" width="100mm" height="22.7mm" version="1.1" style="shape-rendering:geometricPrecision; text-rendering:geometricPrecision; image-rendering:optimizeQuality; fill-rule:evenodd; clip-rule:evenodd"
viewBox="0 0 10000 2270"
 xmlns:xlink="http://www.w3.org/1999/xlink">
 <defs>
  <style type="text/css">
   <![CDATA[
    .fil0 {fill:#650ECE}
   ]]>
  </style>
 </defs>
 <g id="Camada_x0020_1">
  <metadata id="CorelCorpID_0Corel-Layer"/>
  <g id="_1838688193920">
   <path class="fil0" d="M285.52 583.06c-74.23,-43.04 -148.42,-86.05 -222.62,-129.1 -23.4,-13.57 -30.94,-33.01 -22.7,-50.37 6.99,-7.26 14.53,-13.51 22.46,-18.17 194.1,-114.33 388.24,-228.66 582.34,-343.02 34.1,-20.07 90.72,-20.77 125.66,-0.64 75.95,43.68 151.86,87.36 227.81,131.07 34.63,19.92 91.39,19.92 126.01,0 75.95,-43.71 151.87,-87.39 227.82,-131.07 34.98,-20.13 91.53,-19.46 125.66,0.64 194.1,114.36 388.24,228.69 582.34,343.02 7.93,4.66 15.47,10.91 22.45,18.17 8.25,17.36 0.71,36.8 -22.69,50.37 -311.91,180.88 -623.78,361.76 -935.68,542.6 -17.3,10.03 -40.1,15.05 -62.9,15.05 -22.8,0 -45.61,-5.02 -62.9,-15.05 -237.68,-137.83 -475.38,-275.66 -713.06,-413.5zm-5.99 1286.84c-63.85,-36.77 -152.64,-88.33 -216.49,-125.07 -34.66,-19.92 -63.04,-68.96 -63.04,-108.96 0,-360.38 0,-720.73 0,-1081.12 0,-16.8 5.02,-35.25 13.37,-52.51 6.45,14.31 18.41,27.01 34.94,36.59 311.9,180.87 623.81,361.75 935.67,542.63 21.12,12.21 48.63,18.98 77.5,18.98 28.87,0 56.37,-6.77 77.49,-18.98 311.87,-180.88 623.78,-361.76 935.68,-542.63 16.52,-9.58 28.49,-22.28 34.94,-36.59 8.35,17.26 13.37,35.71 13.37,52.51 0,360.35 0,720.74 0,1081.09 0,39.99 -28.35,89.03 -63.01,108.96 -311.55,179.27 -623.11,358.49 -934.66,537.76 -34.52,19.85 -91.24,19.99 -126.01,0 -74.58,-42.91 -149.17,-85.85 -223.75,-128.75 -34.66,-19.93 -63.04,-68.97 -63.04,-108.96 0,-88.65 0,-356.67 0,-445.32 0,-39.99 -4.06,-89.1 -38.69,-109.13 -23.08,-13.37 -51.01,-21.47 -74.13,-34.31 -54.51,-30.24 -128.39,-59.22 -182.91,-90.79 -34.62,-20.03 -62.93,-3.69 -62.93,36.31 0,89.38 0,333.9 0,423.28 0,39.99 -23.26,74.37 -74.3,45.01zm1281.04 -575.92c-34.59,20.06 -62.86,69.21 -62.86,109.21l0 264.05c0,39.99 28.27,56.27 62.86,36.2l237.71 -138.04c34.56,-20.07 62.87,-69.22 62.87,-109.21l0 -264.05c0,-40 -28.31,-56.27 -62.87,-36.21l-237.71 138.05z"/>
   <g>
    <g>
     <g>
      <path class="fil0" d="M3117.23 873.27c49.81,-27.4 104.62,-42.35 166.9,-42.35 54.8,0 102.14,12.46 146.98,34.87 34.88,17.45 64.76,42.36 89.67,72.25 12.47,14.95 37.38,19.93 54.81,9.96l67.26 -42.35c17.45,-12.46 22.43,-34.88 9.97,-52.31 -34.88,-49.83 -79.72,-89.68 -137.02,-117.09 -67.26,-34.88 -144.48,-52.31 -231.67,-52.31 -97.15,0 -184.33,19.92 -259.07,62.27 -74.73,42.36 -134.51,99.65 -179.35,171.89 -44.84,72.25 -64.77,156.94 -64.77,249.11 0,92.16 22.42,176.86 64.77,249.1 42.35,74.73 102.14,132.03 179.35,171.88 74.74,42.36 161.92,62.29 259.07,62.29 87.19,0 161.93,-17.45 231.67,-52.32 54.81,-27.4 99.65,-67.26 134.52,-114.59 12.46,-19.92 7.48,-44.84 -12.46,-57.3l-64.76 -39.85c-17.45,-9.97 -39.87,-7.48 -54.81,9.97 -24.91,29.88 -54.8,54.79 -89.68,72.24 -44.84,22.42 -92.17,34.87 -146.98,34.87 -62.27,0 -117.08,-14.94 -166.9,-42.35 -49.82,-27.4 -89.68,-67.26 -117.09,-117.08 -27.4,-49.82 -42.34,-109.61 -42.34,-176.88 0,-64.76 14.94,-124.54 42.34,-174.37 29.91,-52.28 69.77,-92.14 119.59,-119.55zm1375.05 -129.54c-74.72,-42.34 -159.42,-62.27 -254.08,-62.27 -94.66,0 -179.35,19.93 -254.09,62.27 -74.73,42.36 -134.52,99.65 -176.87,171.89 -42.35,74.74 -64.77,156.94 -64.77,249.11 0,92.16 22.43,176.87 64.77,249.11 42.35,74.72 102.14,132.02 176.87,171.88 74.74,42.36 159.43,62.28 254.09,62.28 94.66,0 179.36,-19.92 254.08,-62.28 74.74,-42.35 134.52,-99.64 176.88,-171.88 42.34,-74.74 64.76,-156.95 64.76,-249.11 0,-92.17 -22.42,-176.87 -64.76,-249.11 -42.36,-72.24 -102.14,-129.53 -176.88,-171.89zm24.91 597.86c-27.4,49.82 -64.76,89.68 -114.59,119.57 -47.33,27.4 -102.13,42.35 -164.4,42.35 -59.79,0 -114.59,-14.95 -164.41,-42.35 -47.33,-27.41 -87.19,-67.26 -114.59,-119.57 -27.41,-49.82 -42.35,-109.61 -42.35,-174.37 0,-64.77 14.94,-124.56 42.35,-174.38 27.41,-49.82 67.26,-89.68 114.59,-117.08 47.33,-27.41 102.14,-42.35 164.41,-42.35 59.78,0 114.59,14.94 164.4,42.35 47.34,27.4 87.2,67.26 114.59,117.08 27.41,49.82 42.36,109.61 42.36,174.38 -2.5,64.76 -14.95,124.55 -42.36,174.37zm2266.86 -650.16l-87.18 0c-14.95,0 -27.41,9.96 -34.88,22.42l-298.93 704.96c-12.46,29.9 -37.36,29.9 -49.81,0l-291.46 -704.96c-4.99,-14.95 -19.93,-22.43 -34.87,-22.43l-97.15 0.01c-27.41,0 -44.84,27.41 -34.88,52.32l383.63 876.83c4.98,12.47 19.92,22.43 34.87,22.43l127.04 0c14.95,0 27.4,-9.96 34.88,-22.43l383.62 -876.85c9.96,-24.91 -7.48,-52.3 -34.88,-52.3zm328.82 0l-97.15 0c-19.93,0 -37.37,17.44 -37.37,37.37l0 876.85c0,19.93 17.44,37.37 37.37,37.37l97.15 -0.01c19.93,0 37.37,-17.44 37.37,-37.37l0 -876.85c0,-19.93 -17.44,-37.36 -37.37,-37.36zm1938.03 49.82c-69.75,-39.86 -149.46,-57.3 -234.15,-57.3 -89.69,0 -171.89,19.93 -244.13,62.28 -72.25,42.36 -129.54,99.64 -169.39,171.89 -42.35,74.73 -62.28,156.94 -62.28,249.1 0,92.18 22.43,176.87 64.76,251.6 42.36,74.74 102.14,132.04 179.36,171.89 77.23,42.35 166.91,62.28 266.55,62.28 79.71,0 149.46,-12.45 214.23,-39.85 52.31,-22.43 97.15,-52.32 134.51,-89.68 14.95,-14.95 14.95,-37.37 2.5,-52.32l-44.84 -54.8c-14.95,-17.44 -37.37,-17.44 -54.8,-2.5 -64.77,57.3 -146.98,87.2 -246.62,87.2 -79.72,0 -149.46,-17.45 -204.26,-54.81 -42.36,-27.41 -74.74,-62.28 -99.65,-104.62 -12.45,-22.42 0,-52.32 24.91,-57.3l675.08 -132.03c19.93,-2.5 32.39,-22.43 29.89,-39.86 -4.98,-77.23 -27.4,-146.97 -62.28,-209.24 -42.34,-69.77 -99.64,-124.57 -169.39,-161.93zm19.93 326.32l-565.46 107.12 0 -17.44c0,-64.76 12.46,-124.56 39.86,-171.89 27.4,-49.82 62.27,-87.19 109.6,-114.59 47.33,-27.4 99.65,-42.35 159.43,-42.35 74.73,0 139.5,22.43 194.3,64.77 42.35,34.87 72.25,77.23 92.17,127.05 7.47,19.93 -4.99,44.84 -29.9,47.33zm-3716.64 -386.1l-9.97 0c-24.91,0 -47.33,0 -67.26,0l-9.96 0c-119.57,0 -216.72,34.87 -288.96,104.62 -69.75,69.75 -107.12,171.89 -107.12,306.4l0 510.67c0,19.93 17.45,37.38 37.37,37.38l94.67 -0.03c22.42,0 39.85,-17.44 39.85,-39.85l0 -485.75c0,-92.17 22.42,-161.92 67.26,-209.25 39.86,-39.86 92.18,-62.28 159.43,-69.75 9.97,0 19.93,0 29.89,0 2.5,0 4.99,0 9.97,0 2.5,0 4.98,0 7.47,0 9.97,0 19.94,0 29.9,0 67.26,4.98 122.06,27.41 159.42,69.75 44.84,47.34 67.27,117.08 67.27,209.25l0 485.76c0,22.42 17.44,39.85 39.86,39.85l92.15 -0.01c22.43,0 39.86,-17.44 39.86,-39.85l0 -505.68c0,-134.52 -34.88,-236.66 -107.13,-306.41 -67.24,-72.23 -164.4,-107.1 -283.97,-107.1zm4506.3 -9.97l-9.95 0c-119.58,0 -201.79,54.8 -274.02,124.55 -69.75,69.75 -119.57,164.41 -119.57,298.93l0 508.17c0,22.43 17.44,39.86 39.85,39.86l89.68 0c22.43,0 42.36,-19.93 42.36,-42.35l0 -485.75c0,-92.17 27.4,-171.89 72.24,-219.21 37.37,-39.86 82.21,-69.75 146.98,-74.74 0,0 0,0 0,-2.49l9.94 0c22.42,0 39.86,-17.44 39.86,-39.86l0 -69.75c0,-2.49 0,-4.98 0,-7.47 0,-14.94 -17.44,-29.89 -37.37,-29.89zm-1606.72 19.93l-87.18 0c-14.95,0 -27.41,9.96 -34.88,22.42l-298.92 704.96c-12.46,29.9 -37.38,29.9 -49.83,0l-291.45 -704.96c-4.98,-14.95 -19.93,-22.43 -34.88,-22.43l-97.14 0.01c-27.41,0 -44.84,27.41 -34.88,52.32l383.62 876.83c4.98,12.47 19.93,22.43 34.88,22.43l127.04 0c14.94,0 27.4,-9.96 34.87,-22.43l383.62 -876.85c9.97,-24.91 -7.46,-52.3 -34.87,-52.3zm1746.23 12.45c0,2.49 0,4.98 0,7.48l0 -7.48c0,0 0,0 0,0z"/>
     </g>
    </g>
   </g>
  </g>
 </g>
</svg>
