<?xml version="1.0" encoding="utf-8"?>
<!-- Generator: Adobe Illustrator 22.1.0, SVG Export Plug-In . SVG Version: 6.00 Build 0)  -->
<svg version="1.1" id="Layer_1" xmlns="http://www.w3.org/2000/svg" xmlns:xlink="http://www.w3.org/1999/xlink" x="0px" y="0px"
	 viewBox="0 0 203.7 203.4" style="enable-background:new 0 0 203.7 203.4;" xml:space="preserve">
<style type="text/css">
	.st0{fill:#888888;}
</style>
<g id="Camada_x0020_1">
	<g id="_1838688193920">
		<path class="st0" d="M52.7,40.5c-4.9-2.9-9.9-5.7-14.8-8.6c-1.6-0.9-2.1-2.2-1.5-3.3c0.5-0.5,1-0.9,1.5-1.2
			c12.9-7.6,25.8-15.2,38.7-22.8c2.3-1.3,6-1.4,8.4,0c5,2.9,10.1,5.8,15.1,8.7c2.3,1.3,6.1,1.3,8.4,0c5-2.9,10.1-5.8,15.1-8.7
			c2.3-1.3,6.1-1.3,8.4,0c12.9,7.6,25.8,15.2,38.7,22.8c0.5,0.3,1,0.7,1.5,1.2c0.5,1.2,0,2.4-1.5,3.3c-20.7,12-41.5,24-62.2,36.1
			c-1.1,0.7-2.7,1-4.2,1s-3-0.3-4.2-1C84.3,58.8,68.5,49.7,52.7,40.5z M52.3,126c-4.2-2.4-10.1-5.9-14.4-8.3
			c-2.3-1.3-4.2-4.6-4.2-7.2c0-24,0-47.9,0-71.9c0-1.1,0.3-2.3,0.9-3.5c0.4,1,1.2,1.8,2.3,2.4c20.7,12,41.5,24,62.2,36.1
			c1.4,0.8,3.2,1.3,5.2,1.3s3.7-0.4,5.2-1.3c20.7-12,41.5-24,62.2-36.1c1.1-0.6,1.9-1.5,2.3-2.4c0.6,1.1,0.9,2.4,0.9,3.5
			c0,23.9,0,47.9,0,71.9c0,2.7-1.9,5.9-4.2,7.2c-20.7,11.9-41.4,23.8-62.1,35.7c-2.3,1.3-6.1,1.3-8.4,0c-5-2.9-9.9-5.7-14.9-8.6
			c-2.3-1.3-4.2-4.6-4.2-7.2c0-5.9,0-23.7,0-29.6c0-2.7-0.3-5.9-2.6-7.3c-1.5-0.9-3.4-1.4-4.9-2.3c-3.6-2-8.5-3.9-12.2-6
			c-2.3-1.3-4.2-0.2-4.2,2.4c0,5.9,0,22.2,0,28.1C57.3,125.7,55.7,128,52.3,126z M137.5,87.8c-2.3,1.3-4.2,4.6-4.2,7.3v17.5
			c0,2.7,1.9,3.7,4.2,2.4l15.8-9.2c2.3-1.3,4.2-4.6,4.2-7.3V81c0-2.7-1.9-3.7-4.2-2.4L137.5,87.8z"/>
		<g>
			<g>
				<g>
					<path class="st0" d="M11.5,181.3c1.4-0.8,3-1.2,4.7-1.2c1.6,0,2.9,0.4,4.2,1c1,0.5,1.8,1.2,2.5,2c0.4,0.4,1.1,0.6,1.6,0.3
						l1.9-1.2c0.5-0.4,0.6-1,0.3-1.5c-1-1.4-2.3-2.5-3.9-3.3c-1.9-1-4.1-1.5-6.6-1.5c-2.8,0-5.2,0.6-7.3,1.8
						c-2.1,1.2-3.8,2.8-5.1,4.9c-1.3,2-1.8,4.4-1.8,7.1c0,2.6,0.6,5,1.8,7.1c1.2,2.1,2.9,3.7,5.1,4.9c2.1,1.2,4.6,1.8,7.3,1.8
						c2.5,0,4.6-0.5,6.6-1.5c1.6-0.8,2.8-1.9,3.8-3.2c0.4-0.6,0.2-1.3-0.4-1.6l-1.8-1.1c-0.5-0.3-1.1-0.2-1.6,0.3
						c-0.7,0.8-1.6,1.6-2.5,2c-1.3,0.6-2.6,1-4.2,1c-1.8,0-3.3-0.4-4.7-1.2c-1.4-0.8-2.5-1.9-3.3-3.3c-0.8-1.4-1.2-3.1-1.2-5
						c0-1.8,0.4-3.5,1.2-4.9C9,183.2,10.1,182.1,11.5,181.3z M50.5,177.6c-2.1-1.2-4.5-1.8-7.2-1.8s-5.1,0.6-7.2,1.8
						c-2.1,1.2-3.8,2.8-5,4.9c-1.2,2.1-1.8,4.4-1.8,7.1c0,2.6,0.6,5,1.8,7.1c1.2,2.1,2.9,3.7,5,4.9c2.1,1.2,4.5,1.8,7.2,1.8
						c2.7,0,5.1-0.6,7.2-1.8c2.1-1.2,3.8-2.8,5-4.9c1.2-2.1,1.8-4.4,1.8-7.1c0-2.6-0.6-5-1.8-7.1C54.3,180.4,52.6,178.8,50.5,177.6z
						 M51.2,194.6c-0.8,1.4-1.8,2.5-3.2,3.4c-1.3,0.8-2.9,1.2-4.7,1.2c-1.7,0-3.2-0.4-4.7-1.2c-1.3-0.8-2.5-1.9-3.2-3.4
						c-0.8-1.4-1.2-3.1-1.2-4.9c0-1.8,0.4-3.5,1.2-4.9c0.8-1.4,1.9-2.5,3.2-3.3c1.3-0.8,2.9-1.2,4.7-1.2c1.7,0,3.2,0.4,4.7,1.2
						c1.3,0.8,2.5,1.9,3.2,3.3c0.8,1.4,1.2,3.1,1.2,4.9C52.3,191.5,52,193.1,51.2,194.6z M115.5,176.1H113c-0.4,0-0.8,0.3-1,0.6
						l-8.5,20c-0.4,0.8-1.1,0.8-1.4,0l-8.3-20c-0.1-0.4-0.6-0.6-1-0.6l-2.8,0c-0.8,0-1.3,0.8-1,1.5l10.9,24.9c0.1,0.4,0.6,0.6,1,0.6
						h3.6c0.4,0,0.8-0.3,1-0.6l10.9-24.9C116.7,176.9,116.2,176.1,115.5,176.1z M124.8,176.1H122c-0.6,0-1.1,0.5-1.1,1.1V202
						c0,0.6,0.5,1.1,1.1,1.1l2.8,0c0.6,0,1.1-0.5,1.1-1.1v-24.9C125.8,176.6,125.3,176.1,124.8,176.1z M179.7,177.5
						c-2-1.1-4.2-1.6-6.6-1.6c-2.5,0-4.9,0.6-6.9,1.8c-2,1.2-3.7,2.8-4.8,4.9c-1.2,2.1-1.8,4.4-1.8,7.1c0,2.6,0.6,5,1.8,7.1
						c1.2,2.1,2.9,3.7,5.1,4.9c2.2,1.2,4.7,1.8,7.6,1.8c2.3,0,4.2-0.4,6.1-1.1c1.5-0.6,2.8-1.5,3.8-2.5c0.4-0.4,0.4-1.1,0.1-1.5
						l-1.3-1.6c-0.4-0.5-1.1-0.5-1.6-0.1c-1.8,1.6-4.2,2.5-7,2.5c-2.3,0-4.2-0.5-5.8-1.6c-1.2-0.8-2.1-1.8-2.8-3
						c-0.4-0.6,0-1.5,0.7-1.6l19.1-3.7c0.6-0.1,0.9-0.6,0.8-1.1c-0.1-2.2-0.8-4.2-1.8-5.9C183.3,180.2,181.7,178.6,179.7,177.5z
						 M180.3,186.8l-16,3v-0.5c0-1.8,0.4-3.5,1.1-4.9c0.8-1.4,1.8-2.5,3.1-3.2c1.3-0.8,2.8-1.2,4.5-1.2c2.1,0,4,0.6,5.5,1.8
						c1.2,1,2,2.2,2.6,3.6C181.3,186,181,186.7,180.3,186.8L180.3,186.8z M74.9,175.8h-0.3c-0.7,0-1.3,0-1.9,0h-0.3
						c-3.4,0-6.1,1-8.2,3c-2,2-3,4.9-3,8.7V202c0,0.6,0.5,1.1,1.1,1.1l2.7,0c0.6,0,1.1-0.5,1.1-1.1v-13.8c0-2.6,0.6-4.6,1.9-5.9
						c1.1-1.1,2.6-1.8,4.5-2c0.3,0,0.6,0,0.8,0c0.1,0,0.1,0,0.3,0c0.1,0,0.1,0,0.2,0c0.3,0,0.6,0,0.8,0c1.9,0.1,3.5,0.8,4.5,2
						c1.3,1.3,1.9,3.3,1.9,5.9v13.8c0,0.6,0.5,1.1,1.1,1.1l2.6,0c0.6,0,1.1-0.5,1.1-1.1v-14.3c0-3.8-1-6.7-3-8.7
						C81.1,176.8,78.3,175.8,74.9,175.8z M202.7,175.6h-0.3c-3.4,0-5.7,1.6-7.8,3.5c-2,2-3.4,4.7-3.4,8.5V202c0,0.6,0.5,1.1,1.1,1.1
						h2.5c0.6,0,1.2-0.6,1.2-1.2v-13.8c0-2.6,0.8-4.9,2-6.2c1.1-1.1,2.3-2,4.2-2.1c0,0,0,0,0-0.1h0.3c0.6,0,1.1-0.5,1.1-1.1v-2
						c0-0.1,0-0.1,0-0.2C203.7,176,203.2,175.6,202.7,175.6L202.7,175.6z M157.1,176.1h-2.5c-0.4,0-0.8,0.3-1,0.6l-8.5,20
						c-0.4,0.8-1.1,0.8-1.4,0l-8.3-20c-0.1-0.4-0.6-0.6-1-0.6l-2.8,0c-0.8,0-1.3,0.8-1,1.5l10.9,24.9c0.1,0.4,0.6,0.6,1,0.6h3.6
						c0.4,0,0.8-0.3,1-0.6l10.9-24.9C158.4,176.9,157.9,176.1,157.1,176.1z M206.6,176.5c0,0.1,0,0.1,0,0.2V176.5L206.6,176.5z"/>
				</g>
			</g>
		</g>
	</g>
</g>
</svg>
