<?xml version="1.0" encoding="utf-8"?>
<!-- Generator: Adobe Illustrator 22.1.0, SVG Export Plug-In . SVG Version: 6.00 Build 0)  -->
<svg version="1.1" id="Layer_1" xmlns="http://www.w3.org/2000/svg" xmlns:xlink="http://www.w3.org/1999/xlink" x="0px" y="0px"
	 viewBox="0 0 296.5 79.1" style="enable-background:new 0 0 296.5 79.1;" xml:space="preserve">
<style type="text/css">
	.st0{fill:url(#SVGID_1_);}
	.st1{fill:url(#SVGID_2_);}
</style>
<g id="Camada_x0020_1">
	<g id="_1838688193920">
		<linearGradient id="SVGID_1_" gradientUnits="userSpaceOnUse" x1="18.5614" y1="22.2627" x2="55.6927" y2="53.4196">
			<stop  offset="0" style="stop-color:#B81EFD"/>
			<stop  offset="0.8973" style="stop-color:#5518AC"/>
		</linearGradient>
		<path class="st0" d="M14.1,23.3c-2.1-1.2-4.2-2.4-6.3-3.7c-0.7-0.4-0.9-0.9-0.6-1.4c0.2-0.2,0.4-0.4,0.6-0.5
			c5.5-3.2,11-6.5,16.5-9.7c1-0.6,2.6-0.6,3.6,0c2.2,1.2,4.3,2.5,6.5,3.7c1,0.6,2.6,0.6,3.6,0c2.2-1.2,4.3-2.5,6.5-3.7
			c1-0.6,2.6-0.6,3.6,0c5.5,3.2,11,6.5,16.5,9.7c0.2,0.1,0.4,0.3,0.6,0.5c0.2,0.5,0,1-0.6,1.4C55.6,24.8,46.7,29.9,37.9,35
			c-0.5,0.3-1.1,0.4-1.8,0.4s-1.3-0.1-1.8-0.4C27.6,31.1,20.8,27.2,14.1,23.3z M13.9,59.8c-1.8-1-4.3-2.5-6.1-3.5
			c-1-0.6-1.8-2-1.8-3.1c0-10.2,0-20.4,0-30.6c0-0.5,0.1-1,0.4-1.5c0.2,0.4,0.5,0.8,1,1c8.8,5.1,17.7,10.3,26.5,15.4
			c0.6,0.3,1.4,0.5,2.2,0.5c0.8,0,1.6-0.2,2.2-0.5c8.8-5.1,17.7-10.3,26.5-15.4c0.5-0.3,0.8-0.6,1-1c0.2,0.5,0.4,1,0.4,1.5
			c0,10.2,0,20.4,0,30.6c0,1.1-0.8,2.5-1.8,3.1c-8.8,5.1-17.7,10.2-26.5,15.2c-1,0.6-2.6,0.6-3.6,0c-2.1-1.2-4.2-2.4-6.3-3.6
			c-1-0.6-1.8-2-1.8-3.1c0-2.5,0-10.1,0-12.6c0-1.1-0.1-2.5-1.1-3.1c-0.7-0.4-1.4-0.6-2.1-1c-1.5-0.9-3.6-1.7-5.2-2.6
			c-1-0.6-1.8-0.1-1.8,1c0,2.5,0,9.5,0,12C16,59.6,15.4,60.6,13.9,59.8z M50.2,43.5c-1,0.6-1.8,2-1.8,3.1V54c0,1.1,0.8,1.6,1.8,1
			l6.7-3.9c1-0.6,1.8-2,1.8-3.1v-7.5c0-1.1-0.8-1.6-1.8-1L50.2,43.5z"/>
		<g>
			<g>
				<g>
					<linearGradient id="SVGID_2_" gradientUnits="userSpaceOnUse" x1="131.2159" y1="-14.5598" x2="253.8934" y2="88.3789">
						<stop  offset="0" style="stop-color:#971EFD"/>
						<stop  offset="0.8973" style="stop-color:#6018AC"/>
					</linearGradient>
					<path class="st1" d="M99.4,31.5c1.4-0.8,3-1.2,4.7-1.2c1.6,0,2.9,0.4,4.2,1c1,0.5,1.8,1.2,2.5,2c0.4,0.4,1.1,0.6,1.6,0.3
						l1.9-1.2c0.5-0.4,0.6-1,0.3-1.5c-1-1.4-2.3-2.5-3.9-3.3c-1.9-1-4.1-1.5-6.6-1.5c-2.8,0-5.2,0.6-7.3,1.8
						c-2.1,1.2-3.8,2.8-5.1,4.9c-1.3,2-1.8,4.4-1.8,7.1c0,2.6,0.6,5,1.8,7.1c1.2,2.1,2.9,3.7,5.1,4.9c2.1,1.2,4.6,1.8,7.3,1.8
						c2.5,0,4.6-0.5,6.6-1.5c1.6-0.8,2.8-1.9,3.8-3.2c0.4-0.6,0.2-1.3-0.4-1.6l-1.8-1.1c-0.5-0.3-1.1-0.2-1.6,0.3
						c-0.7,0.8-1.6,1.6-2.5,2c-1.3,0.6-2.6,1-4.2,1c-1.8,0-3.3-0.4-4.7-1.2c-1.4-0.8-2.5-1.9-3.3-3.3c-0.8-1.4-1.2-3.1-1.2-5
						c0-1.8,0.4-3.5,1.2-4.9C96.8,33.4,98,32.3,99.4,31.5z M138.3,27.9c-2.1-1.2-4.5-1.8-7.2-1.8c-2.7,0-5.1,0.6-7.2,1.8
						c-2.1,1.2-3.8,2.8-5,4.9c-1.2,2.1-1.8,4.4-1.8,7.1c0,2.6,0.6,5,1.8,7.1c1.2,2.1,2.9,3.7,5,4.9c2.1,1.2,4.5,1.8,7.2,1.8
						c2.7,0,5.1-0.6,7.2-1.8c2.1-1.2,3.8-2.8,5-4.9c1.2-2.1,1.8-4.4,1.8-7.1c0-2.6-0.6-5-1.8-7.1C142.2,30.7,140.5,29.1,138.3,27.9z
						 M139,44.8c-0.8,1.4-1.8,2.5-3.2,3.4c-1.3,0.8-2.9,1.2-4.7,1.2c-1.7,0-3.2-0.4-4.7-1.2c-1.3-0.8-2.5-1.9-3.2-3.4
						c-0.8-1.4-1.2-3.1-1.2-4.9c0-1.8,0.4-3.5,1.2-4.9s1.9-2.5,3.2-3.3c1.3-0.8,2.9-1.2,4.7-1.2c1.7,0,3.2,0.4,4.7,1.2
						c1.3,0.8,2.5,1.9,3.2,3.3c0.8,1.4,1.2,3.1,1.2,4.9C140.2,41.7,139.8,43.4,139,44.8z M203.3,26.4h-2.5c-0.4,0-0.8,0.3-1,0.6
						l-8.5,20c-0.4,0.8-1.1,0.8-1.4,0l-8.3-20c-0.1-0.4-0.6-0.6-1-0.6l-2.8,0c-0.8,0-1.3,0.8-1,1.5l10.9,24.9c0.1,0.4,0.6,0.6,1,0.6
						h3.6c0.4,0,0.8-0.3,1-0.6l10.9-24.9C204.6,27.2,204.1,26.4,203.3,26.4z M212.6,26.4h-2.8c-0.6,0-1.1,0.5-1.1,1.1v24.9
						c0,0.6,0.5,1.1,1.1,1.1l2.8,0c0.6,0,1.1-0.5,1.1-1.1V27.4C213.7,26.9,213.2,26.4,212.6,26.4z M267.6,27.8
						c-2-1.1-4.2-1.6-6.6-1.6c-2.5,0-4.9,0.6-6.9,1.8c-2,1.2-3.7,2.8-4.8,4.9c-1.2,2.1-1.8,4.4-1.8,7.1c0,2.6,0.6,5,1.8,7.1
						c1.2,2.1,2.9,3.7,5.1,4.9c2.2,1.2,4.7,1.8,7.6,1.8c2.3,0,4.2-0.4,6.1-1.1c1.5-0.6,2.8-1.5,3.8-2.5c0.4-0.4,0.4-1.1,0.1-1.5
						l-1.3-1.6c-0.4-0.5-1.1-0.5-1.6-0.1c-1.8,1.6-4.2,2.5-7,2.5c-2.3,0-4.2-0.5-5.8-1.6c-1.2-0.8-2.1-1.8-2.8-3
						c-0.4-0.6,0-1.5,0.7-1.6l19.1-3.7c0.6-0.1,0.9-0.6,0.8-1.1c-0.1-2.2-0.8-4.2-1.8-5.9C271.2,30.4,269.5,28.8,267.6,27.8z
						 M268.1,37l-16,3v-0.5c0-1.8,0.4-3.5,1.1-4.9c0.8-1.4,1.8-2.5,3.1-3.2c1.3-0.8,2.8-1.2,4.5-1.2c2.1,0,4,0.6,5.5,1.8
						c1.2,1,2,2.2,2.6,3.6C269.2,36.3,268.8,37,268.1,37L268.1,37z M162.8,26.1h-0.3c-0.7,0-1.3,0-1.9,0h-0.3c-3.4,0-6.1,1-8.2,3
						c-2,2-3,4.9-3,8.7v14.5c0,0.6,0.5,1.1,1.1,1.1l2.7,0c0.6,0,1.1-0.5,1.1-1.1V38.4c0-2.6,0.6-4.6,1.9-5.9c1.1-1.1,2.6-1.8,4.5-2
						c0.3,0,0.6,0,0.8,0c0.1,0,0.1,0,0.3,0c0.1,0,0.1,0,0.2,0c0.3,0,0.6,0,0.8,0c1.9,0.1,3.5,0.8,4.5,2c1.3,1.3,1.9,3.3,1.9,5.9
						v13.8c0,0.6,0.5,1.1,1.1,1.1l2.6,0c0.6,0,1.1-0.5,1.1-1.1V37.8c0-3.8-1-6.7-3-8.7C168.9,27.1,166.2,26.1,162.8,26.1z
						 M290.5,25.8h-0.3c-3.4,0-5.7,1.6-7.8,3.5c-2,2-3.4,4.7-3.4,8.5v14.4c0,0.6,0.5,1.1,1.1,1.1h2.5c0.6,0,1.2-0.6,1.2-1.2V38.4
						c0-2.6,0.8-4.9,2-6.2c1.1-1.1,2.3-2,4.2-2.1c0,0,0,0,0-0.1h0.3c0.6,0,1.1-0.5,1.1-1.1v-2c0-0.1,0-0.1,0-0.2
						C291.6,26.2,291.1,25.8,290.5,25.8L290.5,25.8z M245,26.4h-2.5c-0.4,0-0.8,0.3-1,0.6L233,47c-0.4,0.8-1.1,0.8-1.4,0l-8.3-20
						c-0.1-0.4-0.6-0.6-1-0.6l-2.8,0c-0.8,0-1.3,0.8-1,1.5l10.9,24.9c0.1,0.4,0.6,0.6,1,0.6h3.6c0.4,0,0.8-0.3,1-0.6L246,27.9
						C246.2,27.2,245.7,26.4,245,26.4z M294.5,26.7c0,0.1,0,0.1,0,0.2V26.7L294.5,26.7z"/>
				</g>
			</g>
		</g>
	</g>
</g>
</svg>
