<?xml version="1.0" encoding="utf-8"?>
<!-- Generator: Adobe Illustrator 22.0.1, SVG Export Plug-In . SVG Version: 6.00 Build 0)  -->
<svg version="1.1" id="Capa_1" xmlns="http://www.w3.org/2000/svg" xmlns:xlink="http://www.w3.org/1999/xlink" x="0px" y="0px"
	 viewBox="0 0 512 512" style="enable-background:new 0 0 512 512;" xml:space="preserve">
<style type="text/css">
	.st0{fill:#FFFFFF;}
</style>
<g id="SVGCleanerId_0">
	<g>
		<path class="st0" d="M366.9,307.2H145.1c-4.7,0-8.5,3.8-8.5,8.5v187.7c0,4.7,3.8,8.5,8.5,8.5h221.9c4.7,0,8.5-3.8,8.5-8.5V315.7
			C375.5,311,371.7,307.2,366.9,307.2z M358.4,494.9H153.6V324.3h204.8L358.4,494.9L358.4,494.9z"/>
	</g>
</g>
<g>
	<g>
		<path class="st0" d="M366.9,307.2H145.1c-4.7,0-8.5,3.8-8.5,8.5v187.7c0,4.7,3.8,8.5,8.5,8.5h221.9c4.7,0,8.5-3.8,8.5-8.5V315.7
			C375.5,311,371.7,307.2,366.9,307.2z M358.4,494.9H153.6V324.3h204.8L358.4,494.9L358.4,494.9z"/>
	</g>
</g>
<g>
	<g>
		<path class="st0" d="M145.1,307.2H8.5c-4.7,0-8.5,3.8-8.5,8.5v187.7c0,4.7,3.8,8.5,8.5,8.5h136.5c4.7,0,8.5-3.8,8.5-8.5V315.7
			C153.6,311,149.8,307.2,145.1,307.2z M136.5,494.9H17.1V324.3h119.5L136.5,494.9L136.5,494.9z"/>
	</g>
</g>
<g>
	<g>
		<path class="st0" d="M503.5,307.2H366.9c-4.7,0-8.5,3.8-8.5,8.5v187.7c0,4.7,3.8,8.5,8.5,8.5h136.5c4.7,0,8.5-3.8,8.5-8.5V315.7
			C512,311,508.2,307.2,503.5,307.2z M494.9,494.9H375.5V324.3h119.5L494.9,494.9L494.9,494.9z"/>
	</g>
</g>
<g>
	<g>
		<path class="st0" d="M332.8,375.5H179.2c-4.7,0-8.5,3.8-8.5,8.5v85.3c0,4.7,3.8,8.5,8.5,8.5h153.6c4.7,0,8.5-3.8,8.5-8.5V384
			C341.3,379.3,337.5,375.5,332.8,375.5z M324.3,460.8H187.7v-68.3h136.5L324.3,460.8L324.3,460.8z"/>
	</g>
</g>
<g>
	<g>
		<rect x="264.5" y="341.3" class="st0" width="17.1" height="17.1"/>
	</g>
</g>
<g>
	<g>
		<rect x="230.4" y="341.3" class="st0" width="17.1" height="17.1"/>
	</g>
</g>
<g>
	<g>
		<rect x="196.3" y="341.3" class="st0" width="17.1" height="17.1"/>
	</g>
</g>
<g>
	<g>
		<rect x="298.7" y="341.3" class="st0" width="17.1" height="17.1"/>
	</g>
</g>
<g>
	<g>
		<rect x="8.5" y="375.5" class="st0" width="136.5" height="17.1"/>
	</g>
</g>
<g>
	<g>
		<rect x="59.7" y="341.3" class="st0" width="34.1" height="17.1"/>
	</g>
</g>
<g>
	<g>
		<rect x="59.7" y="409.6" class="st0" width="34.1" height="17.1"/>
	</g>
</g>
<g>
	<g>
		<rect x="366.9" y="375.5" class="st0" width="136.5" height="17.1"/>
	</g>
</g>
<g>
	<g>
		<rect x="426.7" y="384" class="st0" width="17.1" height="119.5"/>
	</g>
</g>
<g>
	<g>
		<rect x="418.1" y="341.3" class="st0" width="34.1" height="17.1"/>
	</g>
</g>
<g>
	<g>
		<rect x="392.5" y="426.7" class="st0" width="17.1" height="25.6"/>
	</g>
</g>
<g>
	<g>
		<rect x="460.8" y="426.7" class="st0" width="17.1" height="25.6"/>
	</g>
</g>
<g>
	<g>
		<path class="st0" d="M364.4,139l-31.6-31.6V8.5c0-4.7-3.8-8.5-8.5-8.5H187.7c-4.7,0-8.5,3.8-8.5,8.5v98.9L147.6,139
			c-2.4,2.4-3.2,6.1-1.9,9.3c1.3,3.2,4.4,5.3,7.9,5.3h204.8c3.4,0,6.6-2.1,7.9-5.3C367.6,145.1,366.9,141.5,364.4,139z M174.2,136.5
			l19.6-19.6c1.6-1.6,2.5-3.8,2.5-6V17.1h119.5v93.9c0,2.3,0.9,4.4,2.5,6l19.6,19.6L174.2,136.5L174.2,136.5z"/>
	</g>
</g>
<g>
	<g>
		<path class="st0" d="M460.8,187.7c-18.8,0-34.1,15.3-34.1,34.1v8.5h17.1v-8.5c0-9.4,7.7-17.1,17.1-17.1c9.4,0,17.1,7.7,17.1,17.1
			v93.9h17.1v-93.9C494.9,203,479.6,187.7,460.8,187.7z"/>
	</g>
</g>
<g>
	<g>
		<rect x="460.8" y="273.1" class="st0" width="25.6" height="17.1"/>
	</g>
</g>
<g>
	<g>
		<path class="st0" d="M247.5,256h-85.3c-4.7,0-8.5,3.8-8.5,8.5v51.2c0,4.7,3.8,8.5,8.5,8.5h85.3c4.7,0,8.5-3.8,8.5-8.5v-51.2
			C256,259.8,252.2,256,247.5,256z M238.9,307.2h-68.3v-34.1h68.3V307.2z"/>
	</g>
</g>
<g>
	<g>
		<rect x="136.5" y="273.1" class="st0" width="25.6" height="17.1"/>
	</g>
</g>
<g>
	<g>
		<rect x="247.5" y="273.1" class="st0" width="25.6" height="17.1"/>
	</g>
</g>
<g>
	<g>
		<path class="st0" d="M145.1,0H8.5C3.8,0,0,3.8,0,8.5v102.4c0,4.7,3.8,8.5,8.5,8.5h136.5c4.7,0,8.5-3.8,8.5-8.5V8.5
			C153.6,3.8,149.8,0,145.1,0z M136.5,102.4H17.1V17.1h119.5L136.5,102.4L136.5,102.4z"/>
	</g>
</g>
<g>
	<g>
		<rect x="102.4" y="51.2" class="st0" width="17.1" height="34.1"/>
	</g>
</g>
<g>
	<g>
		<path class="st0" d="M503.5,0H366.9c-4.7,0-8.5,3.8-8.5,8.5v102.4c0,4.7,3.8,8.5,8.5,8.5h136.5c4.7,0,8.5-3.8,8.5-8.5V8.5
			C512,3.8,508.2,0,503.5,0z M494.9,102.4H375.5V17.1h119.5L494.9,102.4L494.9,102.4z"/>
	</g>
</g>
<g>
	<g>
		<rect x="392.5" y="51.2" class="st0" width="17.1" height="34.1"/>
	</g>
</g>
<g>
	<g>
		<rect y="170.7" class="st0" width="153.6" height="17.1"/>
	</g>
</g>
<g>
	<g>
		<rect x="17.1" y="153.6" class="st0" width="17.1" height="76.8"/>
	</g>
</g>
<g>
	<g>
		<path class="st0" d="M25.6,221.9C11.5,221.9,0,233.4,0,247.5s11.5,25.6,25.6,25.6s25.6-11.5,25.6-25.6S39.7,221.9,25.6,221.9z
			 M25.6,256c-4.7,0-8.5-3.8-8.5-8.5c0-4.7,3.8-8.5,8.5-8.5s8.5,3.8,8.5,8.5C34.1,252.2,30.3,256,25.6,256z"/>
	</g>
</g>
<g>
	<g>
		<rect x="51.2" y="153.6" class="st0" width="17.1" height="76.8"/>
	</g>
</g>
<g>
	<g>
		<path class="st0" d="M59.7,221.9c-14.1,0-25.6,11.5-25.6,25.6s11.5,25.6,25.6,25.6s25.6-11.5,25.6-25.6S73.8,221.9,59.7,221.9z
			 M59.7,256c-4.7,0-8.5-3.8-8.5-8.5c0-4.7,3.8-8.5,8.5-8.5s8.5,3.8,8.5,8.5C68.3,252.2,64.4,256,59.7,256z"/>
	</g>
</g>
<g>
	<g>
		<rect x="85.3" y="153.6" class="st0" width="17.1" height="76.8"/>
	</g>
</g>
<g>
	<g>
		<path class="st0" d="M93.9,221.9c-14.1,0-25.6,11.5-25.6,25.6s11.5,25.6,25.6,25.6s25.6-11.5,25.6-25.6S108,221.9,93.9,221.9z
			 M93.9,256c-4.7,0-8.5-3.8-8.5-8.5c0-4.7,3.8-8.5,8.5-8.5c4.7,0,8.5,3.8,8.5,8.5C102.4,252.2,98.6,256,93.9,256z"/>
	</g>
</g>
</svg>
