<?xml version="1.0" encoding="iso-8859-1"?>
<!-- Generator: Adobe Illustrator 19.0.0, SVG Export Plug-In . SVG Version: 6.00 Build 0)  -->
<svg version="1.1" id="Capa_1" xmlns="http://www.w3.org/2000/svg" xmlns:xlink="http://www.w3.org/1999/xlink" x="0px" y="0px"
	 viewBox="0 0 512 512" style="enable-background:new 0 0 512 512;" xml:space="preserve">
<g>
	<g>
		<path d="M42.667,0H8.533C3.823,0,0,3.823,0,8.533v494.933C0,508.177,3.823,512,8.533,512h34.133c4.71,0,8.533-3.823,8.533-8.533
			V8.533C51.2,3.823,47.377,0,42.667,0z M34.133,494.933H17.067V17.067h17.067V494.933z"/>
	</g>
</g>
<g>
	<g>
		<path d="M503.467,0h-34.133c-4.71,0-8.533,3.823-8.533,8.533v494.933c0,4.71,3.823,8.533,8.533,8.533h34.133
			c4.71,0,8.533-3.823,8.533-8.533V8.533C512,3.823,508.177,0,503.467,0z M494.933,494.933h-17.067V17.067h17.067V494.933z"/>
	</g>
</g>
<g>
	<g>
		<path d="M469.333,426.667H42.667c-4.71,0-8.533,3.823-8.533,8.533v34.133c0,4.71,3.823,8.533,8.533,8.533h426.667
			c4.71,0,8.533-3.823,8.533-8.533V435.2C477.867,430.49,474.044,426.667,469.333,426.667z M460.8,460.8H51.2v-17.067h409.6V460.8z"
			/>
	</g>
</g>
<g>
	<g>
		<path d="M469.333,34.133H42.667c-4.71,0-8.533,3.823-8.533,8.533V76.8c0,4.71,3.823,8.533,8.533,8.533h426.667
			c4.71,0,8.533-3.823,8.533-8.533V42.667C477.867,37.956,474.044,34.133,469.333,34.133z M460.8,68.267H51.2V51.2h409.6V68.267z"/>
	</g>
</g>
<g>
	<g>
		<path d="M469.333,230.4H42.667c-4.71,0-8.533,3.823-8.533,8.533v34.133c0,4.71,3.823,8.533,8.533,8.533h426.667
			c4.71,0,8.533-3.823,8.533-8.533v-34.133C477.867,234.223,474.044,230.4,469.333,230.4z M460.8,264.533H51.2v-17.067h409.6
			V264.533z"/>
	</g>
</g>
<g>
	<g>
		<path d="M409.6,179.2H290.133c-4.71,0-8.533,3.823-8.533,8.533v51.2c0,4.71,3.823,8.533,8.533,8.533H409.6
			c4.71,0,8.533-3.823,8.533-8.533v-51.2C418.133,183.023,414.31,179.2,409.6,179.2z M401.067,230.4h-102.4v-34.133h102.4V230.4z"/>
	</g>
</g>
<g>
	<g>
		<path d="M418.133,145.067H281.6c-4.71,0-8.533,3.823-8.533,8.533v34.133c0,4.71,3.823,8.533,8.533,8.533h136.533
			c4.71,0,8.533-3.823,8.533-8.533V153.6C426.667,148.89,422.844,145.067,418.133,145.067z M409.6,179.2H290.133v-17.067H409.6
			V179.2z"/>
	</g>
</g>
<g>
	<g>
		<path d="M230.4,375.467H110.933c-4.71,0-8.533,3.823-8.533,8.533v51.2c0,4.71,3.823,8.533,8.533,8.533H230.4
			c4.71,0,8.533-3.823,8.533-8.533V384C238.933,379.29,235.11,375.467,230.4,375.467z M221.867,426.667h-102.4v-34.133h102.4
			V426.667z"/>
	</g>
</g>
<g>
	<g>
		<path d="M238.933,341.333H102.4c-4.71,0-8.533,3.823-8.533,8.533V384c0,4.71,3.823,8.533,8.533,8.533h136.533
			c4.71,0,8.533-3.823,8.533-8.533v-34.133C247.467,345.156,243.644,341.333,238.933,341.333z M230.4,375.467H110.933V358.4H230.4
			V375.467z"/>
	</g>
</g>
<g>
	<g>
		<path d="M401.067,375.467h-85.333c-4.71,0-8.533,3.823-8.533,8.533v51.2c0,4.71,3.823,8.533,8.533,8.533h85.333
			c4.71,0,8.533-3.823,8.533-8.533V384C409.6,379.29,405.777,375.467,401.067,375.467z M392.533,426.667h-68.267v-34.133h68.267
			V426.667z"/>
	</g>
</g>
<g>
	<g>
		<path d="M409.6,341.333H307.2c-4.71,0-8.533,3.823-8.533,8.533V384c0,4.71,3.823,8.533,8.533,8.533h102.4
			c4.71,0,8.533-3.823,8.533-8.533v-34.133C418.133,345.156,414.31,341.333,409.6,341.333z M401.067,375.467h-85.333V358.4h85.333
			V375.467z"/>
	</g>
</g>
<g>
	<g>
		<path d="M110.933,162.133c-14.114,0-25.6,11.486-25.6,25.6v51.2c0,4.71,3.823,8.533,8.533,8.533H128
			c4.71,0,8.533-3.823,8.533-8.533v-51.2C136.533,173.619,125.047,162.133,110.933,162.133z M119.467,230.4H102.4v-42.667
			c0-4.702,3.823-8.533,8.533-8.533s8.533,3.831,8.533,8.533V230.4z"/>
	</g>
</g>
<g>
	<g>
		<path d="M110.933,136.533c-4.71,0-8.533,3.823-8.533,8.533v25.6c0,4.71,3.823,8.533,8.533,8.533s8.533-3.823,8.533-8.533v-25.6
			C119.467,140.356,115.644,136.533,110.933,136.533z"/>
	</g>
</g>
<g>
	<g>
		<path d="M204.8,162.133c-14.114,0-25.6,11.486-25.6,25.6v51.2c0,4.71,3.823,8.533,8.533,8.533h34.133
			c4.71,0,8.533-3.823,8.533-8.533v-51.2C230.4,173.619,218.914,162.133,204.8,162.133z M213.333,230.4h-17.067v-42.667
			c0-4.702,3.823-8.533,8.533-8.533c4.71,0,8.533,3.831,8.533,8.533V230.4z"/>
	</g>
</g>
<g>
	<g>
		<path d="M204.8,136.533c-4.71,0-8.533,3.823-8.533,8.533v25.6c0,4.71,3.823,8.533,8.533,8.533c4.71,0,8.533-3.823,8.533-8.533
			v-25.6C213.333,140.356,209.51,136.533,204.8,136.533z"/>
	</g>
</g>
<g>
</g>
<g>
</g>
<g>
</g>
<g>
</g>
<g>
</g>
<g>
</g>
<g>
</g>
<g>
</g>
<g>
</g>
<g>
</g>
<g>
</g>
<g>
</g>
<g>
</g>
<g>
</g>
<g>
</g>
</svg>
