<?xml version="1.0" encoding="utf-8"?>
<!-- Generator: Adobe Illustrator 22.0.1, SVG Export Plug-In . SVG Version: 6.00 Build 0)  -->
<svg version="1.1" id="Capa_1" xmlns="http://www.w3.org/2000/svg" xmlns:xlink="http://www.w3.org/1999/xlink" x="0px" y="0px"
	 viewBox="0 0 512 512" style="enable-background:new 0 0 512 512;" xml:space="preserve">
<style type="text/css">
	.st0{fill:#FFFFFF;}
</style>
<g>
	<g>
		<path class="st0" d="M42.7,0H8.5C3.8,0,0,3.8,0,8.5v494.9c0,4.7,3.8,8.5,8.5,8.5h34.1c4.7,0,8.5-3.8,8.5-8.5V8.5
			C51.2,3.8,47.4,0,42.7,0z M34.1,494.9H17.1V17.1h17.1L34.1,494.9L34.1,494.9z"/>
	</g>
</g>
<g>
	<g>
		<path class="st0" d="M503.5,0h-34.1c-4.7,0-8.5,3.8-8.5,8.5v494.9c0,4.7,3.8,8.5,8.5,8.5h34.1c4.7,0,8.5-3.8,8.5-8.5V8.5
			C512,3.8,508.2,0,503.5,0z M494.9,494.9h-17.1V17.1h17.1V494.9z"/>
	</g>
</g>
<g>
	<g>
		<path class="st0" d="M469.3,426.7H42.7c-4.7,0-8.5,3.8-8.5,8.5v34.1c0,4.7,3.8,8.5,8.5,8.5h426.7c4.7,0,8.5-3.8,8.5-8.5v-34.1
			C477.9,430.5,474,426.7,469.3,426.7z M460.8,460.8H51.2v-17.1h409.6L460.8,460.8L460.8,460.8z"/>
	</g>
</g>
<g>
	<g>
		<path class="st0" d="M469.3,34.1H42.7c-4.7,0-8.5,3.8-8.5,8.5v34.1c0,4.7,3.8,8.5,8.5,8.5h426.7c4.7,0,8.5-3.8,8.5-8.5V42.7
			C477.9,38,474,34.1,469.3,34.1z M460.8,68.3H51.2V51.2h409.6L460.8,68.3L460.8,68.3z"/>
	</g>
</g>
<g>
	<g>
		<path class="st0" d="M469.3,230.4H42.7c-4.7,0-8.5,3.8-8.5,8.5v34.1c0,4.7,3.8,8.5,8.5,8.5h426.7c4.7,0,8.5-3.8,8.5-8.5v-34.1
			C477.9,234.2,474,230.4,469.3,230.4z M460.8,264.5H51.2v-17.1h409.6L460.8,264.5L460.8,264.5z"/>
	</g>
</g>
<g>
	<g>
		<path class="st0" d="M409.6,179.2H290.1c-4.7,0-8.5,3.8-8.5,8.5v51.2c0,4.7,3.8,8.5,8.5,8.5h119.5c4.7,0,8.5-3.8,8.5-8.5v-51.2
			C418.1,183,414.3,179.2,409.6,179.2z M401.1,230.4H298.7v-34.1h102.4V230.4z"/>
	</g>
</g>
<g>
	<g>
		<path class="st0" d="M418.1,145.1H281.6c-4.7,0-8.5,3.8-8.5,8.5v34.1c0,4.7,3.8,8.5,8.5,8.5h136.5c4.7,0,8.5-3.8,8.5-8.5v-34.1
			C426.7,148.9,422.8,145.1,418.1,145.1z M409.6,179.2H290.1v-17.1h119.5V179.2z"/>
	</g>
</g>
<g>
	<g>
		<path class="st0" d="M230.4,375.5H110.9c-4.7,0-8.5,3.8-8.5,8.5v51.2c0,4.7,3.8,8.5,8.5,8.5h119.5c4.7,0,8.5-3.8,8.5-8.5V384
			C238.9,379.3,235.1,375.5,230.4,375.5z M221.9,426.7H119.5v-34.1h102.4V426.7z"/>
	</g>
</g>
<g>
	<g>
		<path class="st0" d="M238.9,341.3H102.4c-4.7,0-8.5,3.8-8.5,8.5V384c0,4.7,3.8,8.5,8.5,8.5h136.5c4.7,0,8.5-3.8,8.5-8.5v-34.1
			C247.5,345.2,243.6,341.3,238.9,341.3z M230.4,375.5H110.9v-17.1h119.5V375.5z"/>
	</g>
</g>
<g>
	<g>
		<path class="st0" d="M401.1,375.5h-85.3c-4.7,0-8.5,3.8-8.5,8.5v51.2c0,4.7,3.8,8.5,8.5,8.5h85.3c4.7,0,8.5-3.8,8.5-8.5V384
			C409.6,379.3,405.8,375.5,401.1,375.5z M392.5,426.7h-68.3v-34.1h68.3V426.7z"/>
	</g>
</g>
<g>
	<g>
		<path class="st0" d="M409.6,341.3H307.2c-4.7,0-8.5,3.8-8.5,8.5V384c0,4.7,3.8,8.5,8.5,8.5h102.4c4.7,0,8.5-3.8,8.5-8.5v-34.1
			C418.1,345.2,414.3,341.3,409.6,341.3z M401.1,375.5h-85.3v-17.1h85.3V375.5z"/>
	</g>
</g>
<g>
	<g>
		<path class="st0" d="M110.9,162.1c-14.1,0-25.6,11.5-25.6,25.6v51.2c0,4.7,3.8,8.5,8.5,8.5H128c4.7,0,8.5-3.8,8.5-8.5v-51.2
			C136.5,173.6,125,162.1,110.9,162.1z M119.5,230.4h-17.1v-42.7c0-4.7,3.8-8.5,8.5-8.5s8.5,3.8,8.5,8.5L119.5,230.4L119.5,230.4z"
			/>
	</g>
</g>
<g>
	<g>
		<path class="st0" d="M110.9,136.5c-4.7,0-8.5,3.8-8.5,8.5v25.6c0,4.7,3.8,8.5,8.5,8.5s8.5-3.8,8.5-8.5v-25.6
			C119.5,140.4,115.6,136.5,110.9,136.5z"/>
	</g>
</g>
<g>
	<g>
		<path class="st0" d="M204.8,162.1c-14.1,0-25.6,11.5-25.6,25.6v51.2c0,4.7,3.8,8.5,8.5,8.5h34.1c4.7,0,8.5-3.8,8.5-8.5v-51.2
			C230.4,173.6,218.9,162.1,204.8,162.1z M213.3,230.4h-17.1v-42.7c0-4.7,3.8-8.5,8.5-8.5s8.5,3.8,8.5,8.5L213.3,230.4L213.3,230.4z
			"/>
	</g>
</g>
<g>
	<g>
		<path class="st0" d="M204.8,136.5c-4.7,0-8.5,3.8-8.5,8.5v25.6c0,4.7,3.8,8.5,8.5,8.5s8.5-3.8,8.5-8.5v-25.6
			C213.3,140.4,209.5,136.5,204.8,136.5z"/>
	</g>
</g>
</svg>
