<?xml version="1.0" encoding="utf-8"?>
<!-- Generator: Adobe Illustrator 22.0.1, SVG Export Plug-In . SVG Version: 6.00 Build 0)  -->
<svg version="1.1" id="Capa_1" xmlns="http://www.w3.org/2000/svg" xmlns:xlink="http://www.w3.org/1999/xlink" x="0px" y="0px"
	 viewBox="0 0 512 512" style="enable-background:new 0 0 512 512;" xml:space="preserve">
<style type="text/css">
	.st0{fill:#FFFFFF;}
</style>
<g>
	<g>
		<path class="st0" d="M376,96H88c-4.4,0-8,3.6-8,8v400c0,4.4,3.6,8,8,8s8-3.6,8-8V112h272v392c0,4.4,3.6,8,8,8s8-3.6,8-8V104
			C384,99.6,380.4,96,376,96z"/>
	</g>
</g>
<g>
	<g>
		<path class="st0" d="M352,120H112c-4.4,0-8,3.6-8,8v376c0,4.4,3.6,8,8,8s8-3.6,8-8V136h224v368c0,4.4,3.6,8,8,8s8-3.6,8-8V128
			C360,123.6,356.4,120,352,120z"/>
	</g>
</g>
<g>
	<g>
		<path class="st0" d="M429.7,258.3c-3.1-3.1-8.2-3.1-11.3,0l-16,16c-3.1,3.1-3.1,8.2,0,11.3c1.6,1.6,3.6,2.3,5.7,2.3
			s4.1-0.8,5.7-2.3l16-16C432.8,266.5,432.8,261.5,429.7,258.3z"/>
	</g>
</g>
<g>
	<g>
		<path class="st0" d="M445.7,274.3l-16-16c-3.1-3.1-8.2-3.1-11.3,0c-3.1,3.1-3.1,8.2,0,11.3l16,16c1.6,1.6,3.6,2.3,5.7,2.3
			s4.1-0.8,5.7-2.3C448.8,282.5,448.8,277.5,445.7,274.3z"/>
	</g>
</g>
<g>
	<g>
		<path class="st0" d="M445.7,322.3c-3.1-3.1-8.2-3.1-11.3,0l-16,16c-3.1,3.1-3.1,8.2,0,11.3c1.6,1.6,3.6,2.3,5.7,2.3
			s4.1-0.8,5.7-2.3l16-16C448.8,330.5,448.8,325.5,445.7,322.3z"/>
	</g>
</g>
<g>
	<g>
		<path class="st0" d="M429.7,338.3l-16-16c-3.1-3.1-8.2-3.1-11.3,0c-3.1,3.1-3.1,8.2,0,11.3l16,16c1.6,1.6,3.6,2.3,5.7,2.3
			s4.1-0.8,5.7-2.3C432.8,346.5,432.8,341.5,429.7,338.3z"/>
	</g>
</g>
<g>
	<g>
		<path class="st0" d="M232,120c-4.4,0-8,3.6-8,8v376c0,4.4,3.6,8,8,8s8-3.6,8-8V128C240,123.6,236.4,120,232,120z"/>
	</g>
</g>
<g>
	<g>
		<path class="st0" d="M392,496H72c-4.4,0-8,3.6-8,8s3.6,8,8,8h320c4.4,0,8-3.6,8-8S396.4,496,392,496z"/>
	</g>
</g>
<g>
	<g>
		<path class="st0" d="M232,0c-39.7,0-72,32.3-72,72c0,4.4,3.6,8,8,8s8-3.6,8-8c0-30.9,25.1-56,56-56s56,25.1,56,56c0,4.4,3.6,8,8,8
			s8-3.6,8-8C304,32.3,271.7,0,232,0z"/>
	</g>
</g>
<g>
	<g>
		<path class="st0" d="M296,64H168c-4.4,0-8,3.6-8,8s3.6,8,8,8h128c4.4,0,8-3.6,8-8S300.4,64,296,64z"/>
	</g>
</g>
<g>
	<g>
		<path class="st0" d="M232,32c-4.4,0-8,3.6-8,8v32c0,4.4,3.6,8,8,8s8-3.6,8-8V40C240,35.6,236.4,32,232,32z"/>
	</g>
</g>
</svg>
