<?xml version="1.0" encoding="iso-8859-1"?>
<!-- Generator: Adobe Illustrator 19.0.0, SVG Export Plug-In . SVG Version: 6.00 Build 0)  -->
<svg version="1.1" id="Capa_1" xmlns="http://www.w3.org/2000/svg" xmlns:xlink="http://www.w3.org/1999/xlink" x="0px" y="0px"
	 viewBox="0 0 512 512" style="enable-background:new 0 0 512 512;" xml:space="preserve">
<g>
	<g>
		<path d="M375.999,96h-288c-4.424,0-8,3.576-8,8v400c0,4.424,3.576,8,8,8s8-3.576,8-8V112h272v392c0,4.424,3.576,8,8,8s8-3.576,8-8
			V104C383.999,99.576,380.423,96,375.999,96z"/>
	</g>
</g>
<g>
	<g>
		<path d="M351.999,120h-240c-4.424,0-8,3.576-8,8v376c0,4.424,3.576,8,8,8s8-3.576,8-8V136h224v368c0,4.424,3.576,8,8,8
			s8-3.576,8-8V128C359.999,123.576,356.423,120,351.999,120z"/>
	</g>
</g>
<g>
	<g>
		<path d="M429.655,258.344c-3.128-3.128-8.184-3.128-11.312,0l-16,16c-3.128,3.128-3.128,8.184,0,11.312
			c1.56,1.56,3.608,2.344,5.656,2.344c2.048,0,4.096-0.784,5.656-2.344l16-16C432.783,266.528,432.783,261.472,429.655,258.344z"/>
	</g>
</g>
<g>
	<g>
		<path d="M445.655,274.344l-16-16c-3.128-3.128-8.184-3.128-11.312,0c-3.128,3.128-3.128,8.184,0,11.312l16,16
			c1.56,1.56,3.608,2.344,5.656,2.344c2.048,0,4.096-0.784,5.656-2.344C448.783,282.528,448.783,277.472,445.655,274.344z"/>
	</g>
</g>
<g>
	<g>
		<path d="M445.655,322.344c-3.128-3.128-8.184-3.128-11.312,0l-16,16c-3.128,3.128-3.128,8.184,0,11.312
			c1.56,1.56,3.608,2.344,5.656,2.344c2.048,0,4.096-0.784,5.656-2.344l16-16C448.783,330.528,448.783,325.472,445.655,322.344z"/>
	</g>
</g>
<g>
	<g>
		<path d="M429.655,338.344l-16-16c-3.128-3.128-8.184-3.128-11.312,0c-3.128,3.128-3.128,8.184,0,11.312l16,16
			c1.56,1.56,3.608,2.344,5.656,2.344c2.048,0,4.096-0.784,5.656-2.344C432.783,346.528,432.783,341.472,429.655,338.344z"/>
	</g>
</g>
<g>
	<g>
		<path d="M231.999,120c-4.424,0-8,3.576-8,8v376c0,4.424,3.576,8,8,8s8-3.576,8-8V128C239.999,123.576,236.423,120,231.999,120z"/>
	</g>
</g>
<g>
	<g>
		<path d="M391.999,496h-320c-4.424,0-8,3.576-8,8s3.576,8,8,8h320c4.424,0,8-3.576,8-8S396.423,496,391.999,496z"/>
	</g>
</g>
<g>
	<g>
		<path d="M231.999,0c-39.704,0-72,32.296-72,72c0,4.424,3.576,8,8,8s8-3.576,8-8c0-30.872,25.128-56,56-56s56,25.128,56,56
			c0,4.424,3.576,8,8,8s8-3.576,8-8C303.999,32.296,271.703,0,231.999,0z"/>
	</g>
</g>
<g>
	<g>
		<path d="M295.999,64h-128c-4.424,0-8,3.576-8,8s3.576,8,8,8h128c4.424,0,8-3.576,8-8S300.423,64,295.999,64z"/>
	</g>
</g>
<g>
	<g>
		<path d="M231.999,32c-4.424,0-8,3.576-8,8v32c0,4.424,3.576,8,8,8s8-3.576,8-8V40C239.999,35.576,236.423,32,231.999,32z"/>
	</g>
</g>
<g>
</g>
<g>
</g>
<g>
</g>
<g>
</g>
<g>
</g>
<g>
</g>
<g>
</g>
<g>
</g>
<g>
</g>
<g>
</g>
<g>
</g>
<g>
</g>
<g>
</g>
<g>
</g>
<g>
</g>
</svg>
