<?xml version="1.0" encoding="utf-8"?>
<!-- Generator: Adobe Illustrator 22.0.1, SVG Export Plug-In . SVG Version: 6.00 Build 0)  -->
<svg version="1.1" id="Capa_1" xmlns="http://www.w3.org/2000/svg" xmlns:xlink="http://www.w3.org/1999/xlink" x="0px" y="0px"
	 viewBox="0 0 512 512" style="enable-background:new 0 0 512 512;" xml:space="preserve">
<style type="text/css">
	.st0{fill:#FFFFFF;}
</style>
<g>
	<g>
		<path class="st0" d="M254.9,49.5c-5.5,0-10,4.5-10,10v73.2c0,5.5,4.5,10,10,10c5.5,0,10-4.5,10-10V59.5
			C264.9,54,260.4,49.5,254.9,49.5z"/>
	</g>
</g>
<g>
	<g>
		<path class="st0" d="M262,10.6c-1.9-1.9-4.4-2.9-7.1-2.9c-2.6,0-5.2,1.1-7.1,2.9s-2.9,4.4-2.9,7.1s1.1,5.2,2.9,7.1
			s4.4,2.9,7.1,2.9c2.6,0,5.2-1.1,7.1-2.9s2.9-4.4,2.9-7.1S263.8,12.4,262,10.6z"/>
	</g>
</g>
<g>
	<g>
		<path class="st0" d="M290.7,173.9v-20.4c0-16.9-13.8-30.7-30.7-30.7h-10.2c-16.9,0-30.7,13.8-30.7,30.7v20.4
			c-21.8,4.9-42,14.2-59.6,26.9c-0.7,0.4-1.3,0.9-1.9,1.4c-40,29.8-66,77.4-66,131c0,53.6,26,101.2,66,131c0.6,0.5,1.2,1,1.8,1.3
			c26.9,19.4,59.8,30.9,95.5,30.9c90,0,163.2-73.2,163.2-163.2C418.1,255.5,363.6,190.3,290.7,173.9z M147.2,238.8
			c-2.5,12.5-4.5,25-6,37.7c-0.4,0.1-0.8,0.1-1.1,0.2l-18.4,3.8C127.8,265.1,136.5,251.1,147.2,238.8z M115.2,365.1
			c-2.3-10.3-3.6-21-3.6-31.9c0-10.6,1.2-21,3.4-30.9c0.2,0,0.4,0,0.5-0.1l23.6-4.9c-1.8,24.1-1.8,48.4,0.1,72.5l-23.8-4.7
			C115.4,365.1,115.3,365.1,115.2,365.1z M122.1,386.8l18.1,3.6c0.4,0.1,0.8,0.1,1.2,0.2c1.5,12.4,3.5,24.7,5.9,36.9
			C136.7,415.5,128.2,401.8,122.1,386.8z M173.1,215.6c12.2-8.5,25.9-15.2,40.5-19.6c-4.8,23.6-8.4,47.4-10.7,71.4
			c-13.7,1.3-27.4,3-41.1,5.3C164.4,253.5,168.1,234.4,173.1,215.6z M159.6,293.4c13.9-2.4,27.8-4.4,41.7-5.7
			c-0.9,14.1-1.4,28.2-1.5,42.3c0,16.4,0.5,32.8,1.7,49.2c-14-1.3-27.9-3.2-41.9-5.5C157.3,346.9,157.2,320.1,159.6,293.4z
			 M173.1,450.7c-4.9-18.6-8.7-37.5-11.2-56.4c13.8,2.2,27.5,3.9,41.3,5.1c2.4,23.9,6,47.7,11,71.1
			C199.3,466.1,185.5,459.4,173.1,450.7z M388.1,280.5l-18.4-3.8c-1-0.2-2.1-0.4-3.1-0.6c-1.6-13.4-3.8-26.7-6.5-40
			C372,248.9,381.5,264,388.1,280.5z M334.4,214c5.2,19.2,9,38.7,11.7,58.3c-13.7-2.2-27.3-3.9-41-5.2c-2.3-24.1-5.9-48.1-10.8-71.8
			C308.6,199.5,322.2,205.9,334.4,214z M239.1,153.5c0-5.9,4.8-10.7,10.7-10.7H260c5.9,0,10.7,4.8,10.7,10.7v17.2
			c-5.2-0.5-10.5-0.8-15.8-0.8s-10.6,0.3-15.8,0.8L239.1,153.5L239.1,153.5z M235,191.3c6.5-0.9,13.1-1.4,19.9-1.4
			c6.1,0,12.1,0.4,18,1.1c5.4,24.6,9.4,49.6,11.9,74.7c-20.5-1.1-41-1-61.5,0.1C225.7,240.8,229.6,215.9,235,191.3z M272.2,475.2
			l0,0.1c-5.7,0.7-11.4,1-17.3,1c-6.5,0-13-0.4-19.3-1.3c-5.5-24.5-9.5-49.3-12.1-74.3c10.4,0.6,20.9,0.8,31.4,0.8
			c9.8,0,19.7-0.3,29.5-0.7C281.8,425.9,277.7,450.8,272.2,475.2z M334.4,452.3c-12.4,8.3-26.1,14.7-40.8,18.8
			c5-23.6,8.7-47.5,11.1-71.6c13.8-1.2,27.5-2.8,41.3-5C343.3,414,339.5,433.3,334.4,452.3z M348.2,373.9
			c-13.9,2.3-27.9,4.1-41.8,5.4c0.2-2.6,0.4-5.1,0.5-7.7c0.3-5.5-3.9-10.2-9.4-10.6c-5.5-0.3-10.2,3.9-10.6,9.4
			c-0.2,3.5-0.4,6.9-0.7,10.4c-21.5,1.2-43,1.2-64.5-0.1c-2.3-31.5-2.4-63.2-0.2-94.7c21.6-1.3,43.3-1.4,64.9-0.1
			c0.3,3.9,0.5,7.9,0.7,11.8c0.3,5.3,4.7,9.5,10,9.5c0.2,0,0.4,0,0.5,0c5.5-0.3,9.8-5,9.5-10.5c-0.2-3.1-0.3-6.2-0.5-9.2
			c13.9,1.3,27.8,3.2,41.7,5.6C350.6,319.9,350.6,347,348.2,373.9z M360.1,430.2c2.7-13,4.8-26.1,6.4-39.3c1-0.2,2.1-0.4,3.1-0.6
			l18.1-3.6C381.2,403,371.8,417.6,360.1,430.2z M394.3,365.1l-25.7,5.1c1.9-24.4,1.9-48.9,0.1-73.3l25.6,5.2c0.2,0,0.4,0.1,0.5,0.1
			c2.2,10,3.4,20.3,3.4,30.9c0,11-1.2,21.7-3.6,31.9C394.5,365.1,394.4,365.1,394.3,365.1z"/>
	</g>
</g>
<g>
	<g>
		<path class="st0" d="M304.4,326.1c-1.9-1.9-4.4-2.9-7.1-2.9s-5.2,1.1-7.1,2.9c-1.9,1.9-2.9,4.4-2.9,7.1c0,2.6,1.1,5.2,2.9,7.1
			c1.9,1.9,4.4,2.9,7.1,2.9s5.2-1.1,7.1-2.9c1.9-1.9,2.9-4.4,2.9-7.1C307.4,330.5,306.3,328,304.4,326.1z"/>
	</g>
</g>
<g>
	<g>
		<path class="st0" d="M89.8,445c-15.5-4.1-27.5-16.3-31.4-31.8c-1.1-4.5-5.1-7.6-9.7-7.6s-8.6,3.1-9.7,7.6
			c-3.9,15.5-15.9,27.7-31.4,31.8c-4.5,1.2-7.6,5.2-7.6,9.8s3.1,8.7,7.6,9.8c0,0,0,0,0,0c15.5,4.1,27.5,16.3,31.4,31.8
			c1.1,4.5,5.1,7.6,9.7,7.6s8.6-3.1,9.7-7.6c3.9-15.5,15.9-27.7,31.4-31.8c4.5-1.2,7.6-5.2,7.6-9.9C97.3,450.2,94.2,446.1,89.8,445z
			 M48.7,470.4c-4.3-6-9.5-11.3-15.6-15.6c6.1-4.3,11.3-9.5,15.6-15.6c4.3,6,9.5,11.3,15.6,15.6C58.2,459.1,52.9,464.4,48.7,470.4z"
			/>
	</g>
</g>
<g>
	<g>
		<path class="st0" d="M173.6,140.8c-0.2-0.4-0.4-0.7-0.5-1.1c-0.1-0.2-0.2-0.4-0.3-0.7l-34.7-73.3c-1.2-2.5-3.4-4.4-6.1-5.3
			c-2.7-0.8-5.6-0.5-8,0.9L48,105.2c-4.5,2.6-6.3,8.2-4,12.9l21.3,45.1c-5,0.4-10,1.7-14.7,3.9c-7.9,3.8-14.6,9.8-18.8,16.9
			c-4.9,8.4-5.7,17.5-2.2,24.9s11.1,12.6,20.7,14.1c2,0.3,4.1,0.5,6.1,0.5c6.4,0,12.9-1.5,18.9-4.3c8-3.8,14.5-9.8,18.2-16.9
			c4.2-8,4.6-16.7,1.1-24.1c-0.2-0.4-0.4-0.7-0.5-1c-0.1-0.2-0.2-0.5-0.3-0.7L65.9,118l58.7-33.8l19.7,41.6c-4.8,0.4-9.8,1.7-14.7,4
			c-7.9,3.8-14.6,9.8-18.8,16.9c-4.9,8.4-5.7,17.5-2.2,24.9c4.4,9.3,15,14.5,27,14.5c6.1,0,12.6-1.4,18.7-4.3
			C172.1,173.4,180.5,155.4,173.6,140.8z M68.1,183.2c1.1,0,2.1,0.1,3.1,0.3c1.5,0.3,4.2,1.2,5.3,3.4c1,2.2,0,4.8-0.7,6.2
			c-1.7,3.3-5,6.3-9.1,8.2c-4.2,2-9.2,2.8-13.4,2.2c-2.8-0.4-5.1-1.6-5.7-2.9c-0.6-1.3-0.1-3.7,1.4-6.2c2.1-3.6,5.9-7,10.1-9
			C62,183.9,65.2,183.2,68.1,183.2z M145.8,163.8c-8.4,4-17.6,2.4-19.1-0.7c-0.6-1.3-0.1-3.7,1.4-6.2c2.1-3.6,5.9-7,10.1-9
			c3.1-1.5,6.3-2.1,9-2.1c4.1,0,7.3,1.4,8.3,3.7C157.3,153.1,153.5,160.1,145.8,163.8z"/>
	</g>
</g>
<g>
	<g>
		<path class="st0" d="M449.2,125.9c-15.5-4.1-27.5-16.3-31.4-31.8c-1.1-4.5-5.1-7.6-9.7-7.6c-4.6,0-8.6,3.1-9.7,7.6
			c-3.9,15.5-15.9,27.7-31.4,31.8c-4.5,1.2-7.6,5.2-7.6,9.9c0,4.6,3.1,8.7,7.6,9.9c15.5,4.1,27.5,16.3,31.4,31.8
			c1.1,4.4,5.1,7.6,9.7,7.6c4.6,0,8.6-3.1,9.7-7.6c3.9-15.5,15.9-27.7,31.4-31.8c4.5-1.2,7.6-5.2,7.6-9.8
			C456.8,131.1,453.7,127.1,449.2,125.9z M408.1,151.3c-4.3-6-9.5-11.3-15.6-15.6c6.1-4.3,11.3-9.5,15.6-15.6
			c4.3,6.1,9.5,11.3,15.6,15.6C417.7,140,412.4,145.2,408.1,151.3z"/>
	</g>
</g>
<g>
	<g>
		<path class="st0" d="M502.4,396.2c-19-0.8-43.8-11.3-44-11.4c-2.9-1.2-6.2-1.1-8.9,0.5c-2.7,1.5-4.6,4.3-5,7.4l-7.6,57.9
			c-4.5-2.5-9.6-4.2-15.3-4.9c-8.9-1.2-18,0.3-25.6,4.1c-8.9,4.5-14.6,11.8-15.7,20.1c-1.1,8.3,2.5,16.9,10,23.5
			c6.4,5.7,14.8,9.4,23.7,10.6c2,0.3,4,0.4,5.9,0.4c17.3,0,31.5-10.2,33.4-24.9v0c0-0.2,0-0.3,0-0.5c0-0.1,0-0.2,0.1-0.3l9.3-70.9
			c10.3,3.5,25.4,7.9,38.9,8.4c5.5,0.2,10.2-4.1,10.4-9.6C512.2,401.1,507.9,396.5,502.4,396.2z M433.5,476.9
			c-0.6,4.4-7.9,8.4-16.9,7.3c-4.8-0.6-9.7-2.8-13-5.7c-2.3-2.1-3.6-4.3-3.4-5.9c0.2-1.6,2.1-3.5,4.8-4.9c3-1.5,6.9-2.4,10.7-2.4
			c1.1,0,2.2,0.1,3.3,0.2C428,466.7,434.1,472.5,433.5,476.9z"/>
	</g>
</g>
</svg>
