<?xml version="1.0" encoding="utf-8"?>
<!-- Generator: Adobe Illustrator 22.0.1, SVG Export Plug-In . SVG Version: 6.00 Build 0)  -->
<svg version="1.1" id="Camada_1" xmlns="http://www.w3.org/2000/svg" xmlns:xlink="http://www.w3.org/1999/xlink" x="0px" y="0px"
	 viewBox="0 0 512 512" style="enable-background:new 0 0 512 512;" xml:space="preserve">
<style type="text/css">
	.st0{fill:#FFFFFF;}
</style>
<path class="st0" d="M461.3,292.5l-76.5-5.5l-50.6-84.2L309,160.7V149c0-12.7-10.3-23-22.9-23c-2.8,0-5.7,0.5-8.3,1.5l-72.7,28
	l5.5-18.4c4.3-15.5-2.7-31.9-16.9-39.5l-57-30.6c-4.1-2.2-9.3-0.8-11.7,3.2l-83.7,134l-1.8-1c-4.2-2.4-9.6-1-12,3.3
	c-0.1,0.1-0.1,0.2-0.2,0.3L1,256.1c-2.3,4.3-0.7,9.5,3.5,11.9l318.5,176.6c1.3,0.7,2.8,1.1,4.3,1.1H459c29.2,0,52.9-23.7,53-53V347
	C511.9,318.4,489.8,294.6,461.3,292.5z M366.3,290.6l-10.1,3.4l-79-102.7l20.3-15.2L366.3,290.6z M135.7,86.6l49.6,26.6
	c6.9,3.6,10.3,11.6,8.3,19.1l-7.3,24.6l-50.7-30.4L118,115.9L135.7,86.6z M83.4,170.8l4.5-7.1l29,21.6
	c14.8,11.1,22.3,29.4,19.7,47.7l-1.1,25.5l-78.9-45.5L83.4,170.8z M459,427.9H329.6l-309-171.3l17.8-33.5L331,391.4
	c1.3,0.8,2.9,1.2,4.4,1.2h158.9C494.3,412.1,478.5,427.9,459,427.9z M494.3,375H337.8l-60.5-34.9l20.4-20.8
	c3.4-3.5,3.2-9.1-0.3-12.5c-3.5-3.3-8.9-3.2-12.3,0.1l-23.6,24l-33.5-19.3l33.6-26.9c3.8-3,4.4-8.6,1.4-12.4
	c-3-3.8-8.6-4.4-12.4-1.4l-39,31.2l-28.7-16.5l43.6-36.3c3.8-3.1,4.3-8.7,1.1-12.4c-3.1-3.8-8.7-4.3-12.4-1.1l-48.6,40.5l-13.6-7.9
	l1.4-33.9c3.3-24.4-7-48.7-26.7-63.4l-30.1-22.4l11.4-17.8l78.1,46.9c1.1,0.6,2.2,1,3.4,1.1c0.2,0,0.4,0.1,0.6,0.1
	c0.2,0,0.3,0.1,0.5,0.1c1.1,0,2.2-0.2,3.2-0.6l89.4-34.5c1.6-0.6,3.5-0.4,4.9,0.6c1.5,1,2.3,2.6,2.3,4.4v9.7l-31.8,23.8
	c-3.9,2.9-4.7,8.5-1.8,12.4c0,0,0,0.1,0.1,0.1l88.3,114.8c2.3,3,6.2,4.2,9.8,3l24.8-8.3l79.3,5.7c19.3,1.4,34.3,17.5,34.3,36.8V375z
	"/>
<path class="st0" d="M53,322H8.8C4,322,0,326,0,330.8s4,8.8,8.8,8.8H53c4.9,0,8.8-4,8.8-8.8S57.8,322,53,322z"/>
<path class="st0" d="M0,383.8c0,4.9,4,8.8,8.8,8.8h114.8c4.9,0,8.8-4,8.8-8.8s-4-8.8-8.8-8.8H8.8C4,375,0,378.9,0,383.8z"/>
<path class="st0" d="M220.7,427.9H8.8c-4.9,0-8.8,3.9-8.8,8.8s4,8.8,8.8,8.8h211.9c4.9,0,8.8-4,8.8-8.8S225.6,427.9,220.7,427.9z"/>
</svg>
