<?xml version="1.0" encoding="iso-8859-1"?>
<!-- Generator: Adobe Illustrator 19.0.0, SVG Export Plug-In . SVG Version: 6.00 Build 0)  -->
<svg version="1.1" id="Capa_1" xmlns="http://www.w3.org/2000/svg" xmlns:xlink="http://www.w3.org/1999/xlink" x="0px" y="0px"
	 viewBox="0 0 480 480" style="enable-background:new 0 0 480 480;" xml:space="preserve">
<g>
	<g>
		<g>
			<path d="M456,0H24C10.745,0,0,10.745,0,24v432c0,13.255,10.745,24,24,24h432c13.255,0,24-10.745,24-24V24
				C480,10.745,469.255,0,456,0z M464,416H104c-4.418,0-8,3.582-8,8s3.582,8,8,8h360v24c0,4.418-3.582,8-8,8H24
				c-4.418,0-8-3.582-8-8v-24h56c4.418,0,8-3.582,8-8s-3.582-8-8-8H16V24c0-4.418,3.582-8,8-8h432c4.418,0,8,3.582,8,8V416z"/>
			<path d="M80,96c17.673,0,32-14.327,32-32S97.673,32,80,32S48,46.327,48,64S62.327,96,80,96z M80,48c8.837,0,16,7.163,16,16
				s-7.163,16-16,16s-16-7.163-16-16S71.163,48,80,48z"/>
			<path d="M160,96c17.673,0,32-14.327,32-32s-14.327-32-32-32s-32,14.327-32,32S142.327,96,160,96z M160,48c8.837,0,16,7.163,16,16
				s-7.163,16-16,16s-16-7.163-16-16S151.163,48,160,48z"/>
			<path d="M320,96c17.673,0,32-14.327,32-32s-14.327-32-32-32c-17.673,0-32,14.327-32,32S302.327,96,320,96z M320,48
				c8.837,0,16,7.163,16,16s-7.163,16-16,16s-16-7.163-16-16S311.163,48,320,48z"/>
			<path d="M400,96c17.673,0,32-14.327,32-32s-14.327-32-32-32c-17.673,0-32,14.327-32,32S382.327,96,400,96z M400,48
				c8.837,0,16,7.163,16,16s-7.163,16-16,16s-16-7.163-16-16S391.163,48,400,48z"/>
			<path d="M440,112H40c-4.418,0-8,3.582-8,8v48c0,4.418,3.582,8,8,8h400c4.418,0,8-3.582,8-8v-48C448,115.582,444.418,112,440,112z
				 M432,160H48v-32h384V160z"/>
			<path d="M424,208H56c-4.418,0-8,3.582-8,8v160c0,4.418,3.582,8,8,8h368c4.418,0,8-3.582,8-8V216C432,211.582,428.418,208,424,208
				z M416,368H64V224h352V368z"/>
			<path d="M70.96,152H408c4.418,0,8-3.582,8-8s-3.582-8-8-8H70.96c-4.418,0-8,3.582-8,8S66.542,152,70.96,152z"/>
			<path d="M86.056,312l45.256,45.256c3.07,3.178,8.134,3.266,11.312,0.196c3.178-3.07,3.266-8.134,0.196-11.312
				c-0.064-0.067-0.13-0.132-0.196-0.196l-45.256-45.256c-3.069-3.178-8.134-3.266-11.312-0.196
				c-3.178,3.07-3.266,8.134-0.196,11.312C85.924,311.87,85.989,311.936,86.056,312z"/>
			<path d="M178.912,351.592c3.178,3.07,8.243,2.982,11.312-0.196c2.994-3.1,2.994-8.015,0-11.116l-90.512-90.504
				c-3.178-3.07-8.242-2.982-11.312,0.196c-2.995,3.1-2.995,8.016,0,11.116L178.912,351.592z"/>
			<path d="M341.376,250.056l45.256,45.256c3.178,3.07,8.242,2.982,11.312-0.196c2.995-3.1,2.995-8.016,0-11.116l-45.256-45.256
				c-3.069-3.178-8.134-3.266-11.312-0.196c-3.178,3.07-3.266,8.134-0.196,11.312C341.244,249.926,341.309,249.992,341.376,250.056z
				"/>
			<path d="M384.288,346.224c3.178,3.07,8.242,2.982,11.312-0.196c2.995-3.1,2.995-8.016,0-11.116l-90.512-90.504
				c-3.178-3.07-8.242-2.982-11.312,0.196c-2.995,3.1-2.995,8.016,0,11.116L384.288,346.224z"/>
		</g>
	</g>
</g>
<g>
</g>
<g>
</g>
<g>
</g>
<g>
</g>
<g>
</g>
<g>
</g>
<g>
</g>
<g>
</g>
<g>
</g>
<g>
</g>
<g>
</g>
<g>
</g>
<g>
</g>
<g>
</g>
<g>
</g>
</svg>
