<?xml version="1.0" encoding="utf-8"?>
<!-- Generator: Adobe Illustrator 22.0.1, SVG Export Plug-In . SVG Version: 6.00 Build 0)  -->
<svg version="1.1" id="Capa_1" xmlns="http://www.w3.org/2000/svg" xmlns:xlink="http://www.w3.org/1999/xlink" x="0px" y="0px"
	 viewBox="0 0 480 480" style="enable-background:new 0 0 480 480;" xml:space="preserve">
<style type="text/css">
	.st0{fill:#FFFFFF;}
</style>
<g>
	<g>
		<g>
			<path class="st0" d="M456,0H24C10.7,0,0,10.7,0,24v432c0,13.3,10.7,24,24,24h432c13.3,0,24-10.7,24-24V24C480,10.7,469.3,0,456,0
				z M464,416H104c-4.4,0-8,3.6-8,8s3.6,8,8,8h360v24c0,4.4-3.6,8-8,8H24c-4.4,0-8-3.6-8-8v-24h56c4.4,0,8-3.6,8-8s-3.6-8-8-8H16V24
				c0-4.4,3.6-8,8-8h432c4.4,0,8,3.6,8,8V416z"/>
			<path class="st0" d="M80,96c17.7,0,32-14.3,32-32S97.7,32,80,32S48,46.3,48,64S62.3,96,80,96z M80,48c8.8,0,16,7.2,16,16
				s-7.2,16-16,16s-16-7.2-16-16S71.2,48,80,48z"/>
			<path class="st0" d="M160,96c17.7,0,32-14.3,32-32s-14.3-32-32-32s-32,14.3-32,32S142.3,96,160,96z M160,48c8.8,0,16,7.2,16,16
				s-7.2,16-16,16s-16-7.2-16-16S151.2,48,160,48z"/>
			<path class="st0" d="M320,96c17.7,0,32-14.3,32-32s-14.3-32-32-32s-32,14.3-32,32S302.3,96,320,96z M320,48c8.8,0,16,7.2,16,16
				s-7.2,16-16,16s-16-7.2-16-16S311.2,48,320,48z"/>
			<path class="st0" d="M400,96c17.7,0,32-14.3,32-32s-14.3-32-32-32s-32,14.3-32,32S382.3,96,400,96z M400,48c8.8,0,16,7.2,16,16
				s-7.2,16-16,16s-16-7.2-16-16S391.2,48,400,48z"/>
			<path class="st0" d="M440,112H40c-4.4,0-8,3.6-8,8v48c0,4.4,3.6,8,8,8h400c4.4,0,8-3.6,8-8v-48C448,115.6,444.4,112,440,112z
				 M432,160H48v-32h384V160z"/>
			<path class="st0" d="M424,208H56c-4.4,0-8,3.6-8,8v160c0,4.4,3.6,8,8,8h368c4.4,0,8-3.6,8-8V216C432,211.6,428.4,208,424,208z
				 M416,368H64V224h352V368z"/>
			<path class="st0" d="M71,152h337c4.4,0,8-3.6,8-8s-3.6-8-8-8H71c-4.4,0-8,3.6-8,8S66.5,152,71,152z"/>
			<path class="st0" d="M86.1,312l45.3,45.3c3.1,3.2,8.1,3.3,11.3,0.2c3.2-3.1,3.3-8.1,0.2-11.3c-0.1-0.1-0.1-0.1-0.2-0.2
				l-45.3-45.3c-3.1-3.2-8.1-3.3-11.3-0.2c-3.2,3.1-3.3,8.1-0.2,11.3C85.9,311.9,86,311.9,86.1,312z"/>
			<path class="st0" d="M178.9,351.6c3.2,3.1,8.2,3,11.3-0.2c3-3.1,3-8,0-11.1l-90.5-90.5c-3.2-3.1-8.2-3-11.3,0.2
				c-3,3.1-3,8,0,11.1L178.9,351.6z"/>
			<path class="st0" d="M341.4,250.1l45.3,45.3c3.2,3.1,8.2,3,11.3-0.2c3-3.1,3-8,0-11.1l-45.3-45.3c-3.1-3.2-8.1-3.3-11.3-0.2
				s-3.3,8.1-0.2,11.3C341.2,249.9,341.3,250,341.4,250.1z"/>
			<path class="st0" d="M384.3,346.2c3.2,3.1,8.2,3,11.3-0.2c3-3.1,3-8,0-11.1l-90.5-90.5c-3.2-3.1-8.2-3-11.3,0.2
				c-3,3.1-3,8,0,11.1L384.3,346.2z"/>
		</g>
	</g>
</g>
</svg>
