<svg viewBox="0 0 512 512" xmlns="http://www.w3.org/2000/svg"><path d="m451.769531 91.0625c-2.671875-3.167969-7.402343-3.570312-10.570312-.898438-3.164063 2.671876-3.566407 7.402344-.894531 10.570313 36.558593 43.351563 56.695312 98.492187 56.695312 155.265625 0 132.886719-108.113281 241-241 241s-241-108.113281-241-241 108.113281-241 241-241c61.050781 0 119.300781 22.886719 164.011719 64.441406 3.035156 2.820313 7.78125 2.644532 10.601562-.386718 2.820313-3.035157 2.644531-7.78125-.390625-10.601563-47.496094-44.140625-109.371094-68.453125-174.222656-68.453125-68.378906 0-132.667969 26.628906-181.019531 74.980469-48.351563 48.351562-74.980469 112.640625-74.980469 181.019531s26.628906 132.667969 74.980469 181.019531c48.351562 48.351563 112.640625 74.980469 181.019531 74.980469s132.667969-26.628906 181.019531-74.980469c48.351563-48.351562 74.980469-112.640625 74.980469-181.019531 0-60.308594-21.390625-118.882812-60.230469-164.9375zm0 0"/><path d="m240.855469 28.242188c-57.742188 3.785156-111.433594 29.15625-151.191407 71.4375-39.9375 42.472656-61.933593 97.988281-61.933593 156.320312 0 60.972656 23.742187 118.296875 66.859375 161.410156 43.113281 43.117188 100.4375 66.859375 161.410156 66.859375s118.296875-23.742187 161.410156-66.859375c43.113282-43.113281 66.859375-100.4375 66.859375-161.410156 0-58.152344-21.878906-113.539062-61.601562-155.96875-39.53125-42.222656-92.976563-67.691406-150.488281-71.722656-4.140626-.300782-7.71875 2.824218-8.007813 6.957031-.289063 4.128906 2.824219 7.714844 6.957031 8.003906 111.109375 7.789063 198.140625 101.226563 198.140625 212.730469 0 117.597656-95.671875 213.269531-213.269531 213.269531s-213.269531-95.671875-213.269531-213.269531c0-112.003906 87.457031-205.472656 199.101562-212.789062 4.136719-.273438 7.265625-3.84375 6.996094-7.976563-.273437-4.132813-3.855469-7.257813-7.972656-6.992187zm0 0"/><path d="m312.113281 220.164062c0 10.34375 4.058594 20.042969 11.425781 27.3125 1.464844 1.441407 3.367188 2.160157 5.269532 2.160157 1.9375 0 3.871094-.746094 5.339844-2.234375 2.90625-2.949219 2.875-7.699219-.074219-10.605469-4.488281-4.429687-6.960938-10.332031-6.960938-16.632813 0-6.296874 2.472657-12.203124 6.960938-16.632812 7.371093-7.269531 11.429687-16.96875 11.429687-27.3125s-4.058594-20.042969-11.429687-27.3125c-4.488281-4.425781-6.960938-10.332031-6.960938-16.628906 0-6.300782 2.472657-12.207032 6.960938-16.632813 2.949219-2.910156 2.980469-7.65625.074219-10.605469-2.910157-2.953124-7.660157-2.984374-10.605469-.074218-7.371094 7.269531-11.429688 16.96875-11.429688 27.3125s4.058594 20.042968 11.429688 27.3125c4.488281 4.425781 6.960937 10.335937 6.960937 16.632812s-2.472656 12.203125-6.960937 16.632813c-7.371094 7.265625-11.429688 16.964843-11.429688 27.308593zm0 0"/><path d="m361.550781 212.476562c0 10.34375 4.058594 20.042969 11.429688 27.3125 1.460937 1.441407 3.363281 2.160157 5.265625 2.160157 1.9375 0 3.871094-.746094 5.339844-2.234375 2.90625-2.949219 2.875-7.695313-.074219-10.605469-4.488281-4.425781-6.960938-10.332031-6.960938-16.632813 0-6.296874 2.472657-12.203124 6.960938-16.628906 7.371093-7.269531 11.429687-16.96875 11.429687-27.316406 0-10.34375-4.058594-20.042969-11.429687-27.3125-2.949219-2.90625-7.695313-2.875-10.605469.078125-2.910156 2.945313-2.875 7.695313.074219 10.605469 4.488281 4.425781 6.960937 10.332031 6.960937 16.628906 0 6.300781-2.472656 12.207031-6.960937 16.632812-7.371094 7.269532-11.429688 16.96875-11.429688 27.3125zm0 0"/><path d="m301.304688 196.113281c4.085937 0 7.433593-3.277343 7.496093-7.382812.0625-4.140625-3.238281-7.550781-7.382812-7.613281l-.0625-.003907c-.039063 0-.078125 0-.117188 0-4.089843 0-7.402343 3.28125-7.46875 7.382813-.0625 4.144531 3.273438 7.554687 7.414063 7.617187zm0 0"/><path d="m348.882812 137.171875h-.0625c-4.144531 0-7.46875 3.355469-7.46875 7.5 0 4.140625 3.386719 7.5 7.53125 7.5 4.140626 0 7.5-3.359375 7.5-7.5 0-4.144531-3.359374-7.5-7.5-7.5zm0 0"/><path d="m348.882812 222.558594h-.0625c-4.144531 0-7.46875 3.355468-7.46875 7.5 0 4.140625 3.386719 7.5 7.53125 7.5 4.140626 0 7.5-3.359375 7.5-7.5 0-4.144532-3.359374-7.5-7.5-7.5zm0 0"/><path d="m87.128906 276.835938v37.796874c0 8.355469 6.796875 15.152344 15.152344 15.152344h280.550781c8.355469 0 15.152344-6.796875 15.152344-15.152344v-37.796874c0-8.355469-6.796875-15.15625-15.152344-15.15625h-40.675781c-4.144531 0-7.5 3.359374-7.5 7.5 0 4.144531 3.355469 7.5 7.5 7.5h5.976562v38.105468h-180.945312v-38.105468h144.65625c4.144531 0 7.5-3.355469 7.5-7.5 0-4.140626-3.355469-7.5-7.5-7.5h-209.5625c-8.355469 0-15.152344 6.800781-15.152344 15.15625zm276.003906-.15625h19.699219c.085938 0 .152344.070312.152344.15625v37.796874c0 .085938-.066406.152344-.152344.152344h-19.699219zm-210.945312 38.105468h-49.90625c-.085938 0-.152344-.066406-.152344-.152344v-37.796874c0-.085938.066406-.15625.152344-.15625h49.90625zm0 0"/><path d="m184.289062 293.773438c-4.144531 0-7.5 3.359374-7.5 7.5 0 4.144531 3.355469 7.5 7.5 7.5h19.691407c4.144531 0 7.5-3.355469 7.5-7.5 0-4.140626-3.355469-7.5-7.5-7.5zm0 0"/></svg>