<?xml version="1.0" encoding="utf-8"?>
<!-- Generator: Adobe Illustrator 22.0.1, SVG Export Plug-In . SVG Version: 6.00 Build 0)  -->
<svg version="1.1" id="Camada_1" xmlns="http://www.w3.org/2000/svg" xmlns:xlink="http://www.w3.org/1999/xlink" x="0px" y="0px"
	 viewBox="0 0 512 512" style="enable-background:new 0 0 512 512;" xml:space="preserve">
<style type="text/css">
	.st0{fill:#FFFFFF;}
</style>
<path class="st0" d="M451.8,91.1c-2.7-3.2-7.4-3.6-10.6-0.9c-3.2,2.7-3.6,7.4-0.9,10.6C476.9,144.1,497,199.2,497,256
	c0,132.9-108.1,241-241,241S15,388.9,15,256S123.1,15,256,15c61.1,0,119.3,22.9,164,64.4c3,2.8,7.8,2.6,10.6-0.4
	c2.8-3,2.6-7.8-0.4-10.6C382.7,24.3,320.9,0,256,0C187.6,0,123.3,26.6,75,75S0,187.6,0,256s26.6,132.7,75,181s112.6,75,181,75
	s132.7-26.6,181-75s75-112.6,75-181C512,195.7,490.6,137.1,451.8,91.1z"/>
<path class="st0" d="M240.9,28.2C183.1,32,129.4,57.4,89.7,99.7c-39.9,42.5-61.9,98-61.9,156.3c0,61,23.7,118.3,66.9,161.4
	c43.1,43.1,100.4,66.9,161.4,66.9s118.3-23.7,161.4-66.9c43.1-43.1,66.9-100.4,66.9-161.4c0-58.2-21.9-113.5-61.6-156
	c-39.5-42.2-93-67.7-150.5-71.7c-4.1-0.3-7.7,2.8-8,7c-0.3,4.1,2.8,7.7,7,8C382.2,51.1,469.3,144.5,469.3,256
	c0,117.6-95.7,213.3-213.3,213.3S42.7,373.6,42.7,256c0-112,87.5-205.5,199.1-212.8c4.1-0.3,7.3-3.8,7-8
	C248.6,31.1,245,28,240.9,28.2z"/>
<path class="st0" d="M312.1,220.2c0,10.3,4.1,20,11.4,27.3c1.5,1.4,3.4,2.2,5.3,2.2c1.9,0,3.9-0.7,5.3-2.2c2.9-2.9,2.9-7.7-0.1-10.6
	c-4.5-4.4-7-10.3-7-16.6c0-6.3,2.5-12.2,7-16.6c7.4-7.3,11.4-17,11.4-27.3s-4.1-20-11.4-27.3c-4.5-4.4-7-10.3-7-16.6
	c0-6.3,2.5-12.2,7-16.6c2.9-2.9,3-7.7,0.1-10.6c-2.9-3-7.7-3-10.6-0.1c-7.4,7.3-11.4,17-11.4,27.3s4.1,20,11.4,27.3
	c4.5,4.4,7,10.3,7,16.6s-2.5,12.2-7,16.6C316.2,200.1,312.1,209.8,312.1,220.2z"/>
<path class="st0" d="M361.6,212.5c0,10.3,4.1,20,11.4,27.3c1.5,1.4,3.4,2.2,5.3,2.2c1.9,0,3.9-0.7,5.3-2.2c2.9-2.9,2.9-7.7-0.1-10.6
	c-4.5-4.4-7-10.3-7-16.6c0-6.3,2.5-12.2,7-16.6c7.4-7.3,11.4-17,11.4-27.3c0-10.3-4.1-20-11.4-27.3c-2.9-2.9-7.7-2.9-10.6,0.1
	c-2.9,2.9-2.9,7.7,0.1,10.6c4.5,4.4,7,10.3,7,16.6c0,6.3-2.5,12.2-7,16.6C365.6,192.4,361.6,202.1,361.6,212.5z"/>
<path class="st0" d="M301.3,196.1c4.1,0,7.4-3.3,7.5-7.4c0.1-4.1-3.2-7.6-7.4-7.6l-0.1,0c0,0-0.1,0-0.1,0c-4.1,0-7.4,3.3-7.5,7.4
	c-0.1,4.1,3.3,7.6,7.4,7.6H301.3z"/>
<path class="st0" d="M348.9,137.2L348.9,137.2c-4.2,0-7.5,3.4-7.5,7.5c0,4.1,3.4,7.5,7.5,7.5c4.1,0,7.5-3.4,7.5-7.5
	C356.4,140.5,353,137.2,348.9,137.2z"/>
<path class="st0" d="M348.9,222.6L348.9,222.6c-4.2,0-7.5,3.4-7.5,7.5c0,4.1,3.4,7.5,7.5,7.5c4.1,0,7.5-3.4,7.5-7.5
	C356.4,225.9,353,222.6,348.9,222.6z"/>
<path class="st0" d="M87.1,276.8v37.8c0,8.4,6.8,15.2,15.2,15.2h280.6c8.4,0,15.2-6.8,15.2-15.2v-37.8c0-8.4-6.8-15.2-15.2-15.2
	h-40.7c-4.1,0-7.5,3.4-7.5,7.5c0,4.1,3.4,7.5,7.5,7.5h6v38.1H167.2v-38.1h144.7c4.1,0,7.5-3.4,7.5-7.5c0-4.1-3.4-7.5-7.5-7.5H102.3
	C93.9,261.7,87.1,268.5,87.1,276.8z M363.1,276.7h19.7c0.1,0,0.2,0.1,0.2,0.2v37.8c0,0.1-0.1,0.2-0.2,0.2h-19.7V276.7z M152.2,314.8
	h-49.9c-0.1,0-0.2-0.1-0.2-0.2v-37.8c0-0.1,0.1-0.2,0.2-0.2h49.9V314.8z"/>
<path class="st0" d="M184.3,293.8c-4.1,0-7.5,3.4-7.5,7.5c0,4.1,3.4,7.5,7.5,7.5H204c4.1,0,7.5-3.4,7.5-7.5c0-4.1-3.4-7.5-7.5-7.5
	H184.3z"/>
</svg>
