<svg height="512pt" viewBox="0 -4 512.00001 512" width="512pt" xmlns="http://www.w3.org/2000/svg"><path d="m503.464844 0h-494.929688c-4.714844 0-8.535156 3.820312-8.535156 8.535156v51.199219c0 4.710937 3.820312 8.53125 8.535156 8.53125v426.667969c0 4.710937 3.820313 8.53125 8.53125 8.53125 4.714844 0 8.535156-3.820313 8.535156-8.53125v-358.402344h460.796876v358.402344c0 4.710937 3.820312 8.53125 8.535156 8.53125 4.710937 0 8.53125-3.820313 8.53125-8.53125v-426.667969c4.714844 0 8.535156-3.820313 8.535156-8.53125v-51.199219c0-4.714844-3.820312-8.535156-8.535156-8.535156zm-486.398438 17.066406h477.867188v34.132813h-477.867188zm8.535156 102.398438v-17.066406h460.796876v17.066406zm460.796876-34.132813h-460.796876v-17.066406h460.796876zm0 0"/><path d="m136.53125 307.199219c-14.136719 0-25.597656 11.460937-25.597656 25.601562 0 14.136719 11.460937 25.597657 25.597656 25.597657 14.140625 0 25.601562-11.460938 25.601562-25.597657 0-14.140625-11.460937-25.601562-25.601562-25.601562zm0 34.132812c-4.710938 0-8.53125-3.820312-8.53125-8.53125 0-4.714843 3.820312-8.535156 8.53125-8.535156 4.714844 0 8.535156 3.820313 8.535156 8.535156 0 4.710938-3.820312 8.53125-8.535156 8.53125zm0 0"/><path d="m375.46875 307.199219c-14.140625 0-25.601562 11.460937-25.601562 25.601562 0 14.136719 11.460937 25.597657 25.601562 25.597657 14.136719 0 25.597656-11.460938 25.597656-25.597657 0-14.140625-11.460937-25.601562-25.597656-25.601562zm0 34.132812c-4.714844 0-8.535156-3.820312-8.535156-8.53125 0-4.714843 3.820312-8.535156 8.535156-8.535156 4.710938 0 8.53125 3.820313 8.53125 8.535156 0 4.710938-3.820312 8.53125-8.53125 8.53125zm0 0"/><path d="m324.265625 315.734375h-136.53125c-4.714844 0-8.535156 3.820313-8.535156 8.53125 0 4.714844 3.820312 8.535156 8.535156 8.535156h136.53125c4.714844 0 8.535156-3.820312 8.535156-8.535156 0-4.710937-3.820312-8.53125-8.535156-8.53125zm0 0"/><path d="m324.265625 341.332031h-136.53125c-4.714844 0-8.535156 3.820313-8.535156 8.535157 0 4.710937 3.820312 8.53125 8.535156 8.53125h136.53125c4.714844 0 8.535156-3.820313 8.535156-8.53125 0-4.714844-3.820312-8.535157-8.535156-8.535157zm0 0"/><path d="m469.332031 221.867188h-25.597656c-4.714844 0-8.535156 3.820312-8.535156 8.53125v17.070312h-17.066407v-34.136719c-.027343-28.265625-22.933593-51.171875-51.199218-51.199219h-221.867188c-28.265625.027344-51.171875 22.933594-51.199218 51.199219v34.136719h-17.066407v-17.070312c0-4.710938-3.820312-8.53125-8.535156-8.53125h-25.597656c-4.714844 0-8.535157 3.820312-8.535157 8.53125v51.203124c0 4.710938 3.820313 8.53125 8.535157 8.53125h25.597656c4.714844 0 8.535156-3.820312 8.535156-8.53125v-17.066406h17.066407v17.066406c-14.140626 0-25.601563 11.460938-25.601563 25.597657v59.734375h-8.53125c-4.714844 0-8.535156 3.820312-8.535156 8.535156v51.199219c0 4.710937 3.820312 8.53125 8.535156 8.53125h25.597656v51.199219c0 9.425781 7.640625 17.066406 17.066407 17.066406h51.203124c9.425782 0 17.066407-7.640625 17.066407-17.066406v-51.199219h170.664062v51.199219c0 9.425781 7.640625 17.066406 17.066407 17.066406h51.199218c9.429688 0 17.070313-7.640625 17.070313-17.066406v-51.199219h25.597656c4.714844 0 8.535156-3.820313 8.535156-8.53125v-51.199219c0-4.714844-3.820312-8.535156-8.535156-8.535156h-8.53125v-59.734375c0-14.136719-11.464844-25.597657-25.601563-25.597657v-17.066406h17.066407v17.066406c0 4.710938 3.820312 8.53125 8.535156 8.53125h25.597656c4.714844 0 8.535157-3.820312 8.535157-8.53125v-51.203124c0-4.710938-3.820313-8.53125-8.535157-8.53125zm-409.597656 51.199218h-8.535156v-34.132812h8.535156zm93.867187 213.332032h-51.203124v-51.199219h51.203124zm256 0h-51.203124v-51.199219h51.203124zm34.132813-68.265626h-375.46875v-34.132812h375.46875zm-17.066406-110.933593v59.734375h-341.335938v-59.734375c0-4.710938 3.820313-8.53125 8.535157-8.53125h324.265624c4.714844 0 8.535157 3.820312 8.535157 8.53125zm-280.03125-25.597657c4.625-13.273437 19.128906-20.28125 32.402343-15.660156 7.335938 2.558594 13.101563 8.324219 15.65625 15.660156zm65.84375 0c-4.6875-23.09375-27.210938-38.011718-50.304688-33.324218-16.789062 3.410156-29.914062 16.53125-33.324219 33.324218h-17.917968v-68.269531c0-18.851562 15.28125-34.132812 34.132812-34.132812h221.867188c18.851562 0 34.132812 15.28125 34.132812 34.132812v68.269531zm248.320312-8.535156h-8.535156v-34.132812h8.535156zm0 0"/><path d="m273.066406 196.265625h-34.132812c-4.710938 0-8.535156 3.820313-8.535156 8.535156 0 4.710938 3.824218 8.53125 8.535156 8.53125h34.132812c4.714844 0 8.535156-3.820312 8.535156-8.53125 0-4.714843-3.820312-8.535156-8.535156-8.535156zm0 0"/></svg>