<?xml version="1.0" encoding="utf-8"?>
<!-- Generator: Adobe Illustrator 22.0.1, SVG Export Plug-In . SVG Version: 6.00 Build 0)  -->
<svg version="1.1" id="Camada_1" xmlns="http://www.w3.org/2000/svg" xmlns:xlink="http://www.w3.org/1999/xlink" x="0px" y="0px"
	 viewBox="0 0 512 512" style="enable-background:new 0 0 512 512;" xml:space="preserve">
<style type="text/css">
	.st0{fill:#FFFFFF;}
</style>
<path class="st0" d="M503.5,4H8.5C3.8,4,0,7.8,0,12.5v51.2c0,4.7,3.8,8.5,8.5,8.5v426.7c0,4.7,3.8,8.5,8.5,8.5
	c4.7,0,8.5-3.8,8.5-8.5V140.5h460.8v358.4c0,4.7,3.8,8.5,8.5,8.5c4.7,0,8.5-3.8,8.5-8.5V72.3c4.7,0,8.5-3.8,8.5-8.5V12.5
	C512,7.8,508.2,4,503.5,4z M17.1,21.1h477.9v34.1H17.1V21.1z M25.6,123.5v-17.1h460.8v17.1H25.6z M486.4,89.3H25.6V72.3h460.8V89.3z
	"/>
<path class="st0" d="M136.5,311.2c-14.1,0-25.6,11.5-25.6,25.6c0,14.1,11.5,25.6,25.6,25.6c14.1,0,25.6-11.5,25.6-25.6
	C162.1,322.7,150.7,311.2,136.5,311.2z M136.5,345.3c-4.7,0-8.5-3.8-8.5-8.5c0-4.7,3.8-8.5,8.5-8.5c4.7,0,8.5,3.8,8.5,8.5
	C145.1,341.5,141.2,345.3,136.5,345.3z"/>
<path class="st0" d="M375.5,311.2c-14.1,0-25.6,11.5-25.6,25.6c0,14.1,11.5,25.6,25.6,25.6c14.1,0,25.6-11.5,25.6-25.6
	C401.1,322.7,389.6,311.2,375.5,311.2z M375.5,345.3c-4.7,0-8.5-3.8-8.5-8.5c0-4.7,3.8-8.5,8.5-8.5c4.7,0,8.5,3.8,8.5,8.5
	C384,341.5,380.2,345.3,375.5,345.3z"/>
<path class="st0" d="M324.3,319.7H187.7c-4.7,0-8.5,3.8-8.5,8.5c0,4.7,3.8,8.5,8.5,8.5h136.5c4.7,0,8.5-3.8,8.5-8.5
	C332.8,323.6,329,319.7,324.3,319.7z"/>
<path class="st0" d="M324.3,345.3H187.7c-4.7,0-8.5,3.8-8.5,8.5c0,4.7,3.8,8.5,8.5,8.5h136.5c4.7,0,8.5-3.8,8.5-8.5
	C332.8,349.2,329,345.3,324.3,345.3z"/>
<path class="st0" d="M469.3,225.9h-25.6c-4.7,0-8.5,3.8-8.5,8.5v17.1h-17.1v-34.1c0-28.3-22.9-51.2-51.2-51.2H145.1
	c-28.3,0-51.2,22.9-51.2,51.2v34.1H76.8v-17.1c0-4.7-3.8-8.5-8.5-8.5H42.7c-4.7,0-8.5,3.8-8.5,8.5v51.2c0,4.7,3.8,8.5,8.5,8.5h25.6
	c4.7,0,8.5-3.8,8.5-8.5v-17.1h17.1v17.1c-14.1,0-25.6,11.5-25.6,25.6v59.7h-8.5c-4.7,0-8.5,3.8-8.5,8.5v51.2c0,4.7,3.8,8.5,8.5,8.5
	h25.6v51.2c0,9.4,7.6,17.1,17.1,17.1h51.2c9.4,0,17.1-7.6,17.1-17.1v-51.2h170.7v51.2c0,9.4,7.6,17.1,17.1,17.1h51.2
	c9.4,0,17.1-7.6,17.1-17.1v-51.2h25.6c4.7,0,8.5-3.8,8.5-8.5v-51.2c0-4.7-3.8-8.5-8.5-8.5h-8.5v-59.7c0-14.1-11.5-25.6-25.6-25.6
	v-17.1h17.1v17.1c0,4.7,3.8,8.5,8.5,8.5h25.6c4.7,0,8.5-3.8,8.5-8.5v-51.2C477.9,229.7,474,225.9,469.3,225.9z M59.7,277.1h-8.5
	v-34.1h8.5V277.1z M153.6,490.4h-51.2v-51.2h51.2V490.4z M409.6,490.4h-51.2v-51.2h51.2V490.4z M443.7,422.1H68.3V388h375.5V422.1z
	 M426.7,311.2v59.7H85.3v-59.7c0-4.7,3.8-8.5,8.5-8.5h324.3C422.8,302.7,426.7,306.5,426.7,311.2z M146.6,285.6
	c4.6-13.3,19.1-20.3,32.4-15.7c7.3,2.6,13.1,8.3,15.7,15.7H146.6z M212.5,285.6c-4.7-23.1-27.2-38-50.3-33.3
	c-16.8,3.4-29.9,16.5-33.3,33.3h-17.9v-68.3c0-18.9,15.3-34.1,34.1-34.1h221.9c18.9,0,34.1,15.3,34.1,34.1v68.3H212.5z M460.8,277.1
	h-8.5v-34.1h8.5V277.1z"/>
<path class="st0" d="M273.1,200.3h-34.1c-4.7,0-8.5,3.8-8.5,8.5c0,4.7,3.8,8.5,8.5,8.5h34.1c4.7,0,8.5-3.8,8.5-8.5
	C281.6,204.1,277.8,200.3,273.1,200.3z"/>
</svg>
