<?xml version="1.0" encoding="utf-8"?>
<!-- Generator: Adobe Illustrator 22.0.1, SVG Export Plug-In . SVG Version: 6.00 Build 0)  -->
<svg version="1.1" id="Capa_1" xmlns="http://www.w3.org/2000/svg" xmlns:xlink="http://www.w3.org/1999/xlink" x="0px" y="0px"
	 viewBox="0 0 480.1 480.1" style="enable-background:new 0 0 480.1 480.1;" xml:space="preserve">
<style type="text/css">
	.st0{fill:#FFFFFF;}
</style>
<g>
	<g>
		<path class="st0" d="M184,328h-32v-32c0-4.4-3.6-8-8-8h-32c-4.4,0-8,3.6-8,8v32H72c-4.4,0-8,3.6-8,8v32c0,4.4,3.6,8,8,8h32v32
			c0,4.4,3.6,8,8,8h32c4.4,0,8-3.6,8-8v-32h32c4.4,0,8-3.6,8-8v-32C192,331.6,188.5,328,184,328z M176,360h-32c-4.4,0-8,3.6-8,8v32
			h-16v-32c0-4.4-3.6-8-8-8H80v-16h32c4.4,0,8-3.6,8-8v-32h16v32c0,4.4,3.6,8,8,8h32V360z"/>
	</g>
</g>
<g>
	<g>
		<path class="st0" d="M479.2,337.4c-6.1-55.1-57.9-106.7-113.1-112.6c-4.7-0.5-9.4-0.8-14.1-0.8h-88v-32h-16v-16
			c0-17.7-14.3-32-32-32h-40c-8.8,0-16-7.2-16-16s7.2-16,16-16h128c17.7,0,32-14.3,32-32s-14.3-32-32-32h-40c-8.8,0-16-7.2-16-16V0
			h-16v32c0,17.7,14.3,32,32,32h40c8.8,0,16,7.2,16,16s-7.2,16-16,16H176c-17.7,0-32,14.3-32,32s14.3,32,32,32h40
			c8.8,0,16,7.2,16,16v16h-16v32h-88c-4.7,0-9.4,0.3-14.1,0.8C58.7,230.8,7,282.3,0.8,337.5c-8,70.2,42.4,133.7,112.6,141.7
			c28.6,3.3,57.5-3.2,81.9-18.3c10.5-6.9,22.6-11.2,35.1-12.4c6.2-0.5,12.4-0.5,18.6-0.1c12.7,1.2,25,5.5,35.7,12.5
			c60.1,37.2,139,18.5,176.2-41.6C476.1,394.8,482.5,366,479.2,337.4z M232,208h16v16h-16V208z M435.5,426.7
			c-36.2,40.5-96.1,49.1-142.3,20.6c-12.9-8.4-27.6-13.5-43-14.9c-3.4-0.2-6.8-0.4-10.2-0.4c-3.6,0-7.2,0.2-10.8,0.4
			c-15.1,1.4-29.6,6.5-42.3,14.8c-52.6,32.5-121.6,16.3-154.2-36.3c-13.2-21.4-18.9-46.7-16-71.7c5.3-47.4,51.5-93.4,98.9-98.5
			c4.1-0.5,8.3-0.7,12.4-0.7h224c4.1,0,8.3,0.2,12.4,0.7c47.4,5.1,93.6,51.1,98.9,98.5C467.1,371,457,402.9,435.5,426.7z"/>
	</g>
</g>
<g>
	<g>
		<path class="st0" d="M352,272c-17.7,0-32,14.3-32,32s14.3,32,32,32s32-14.3,32-32S369.7,272,352,272z M352,320
			c-8.8,0-16-7.2-16-16s7.2-16,16-16s16,7.2,16,16S360.9,320,352,320z"/>
	</g>
</g>
<g>
	<g>
		<path class="st0" d="M352,368c-17.7,0-32,14.3-32,32s14.3,32,32,32s32-14.3,32-32S369.7,368,352,368z M352,416
			c-8.8,0-16-7.2-16-16s7.2-16,16-16s16,7.2,16,16S360.9,416,352,416z"/>
	</g>
</g>
<g>
	<g>
		<path class="st0" d="M296,320c-17.7,0-32,14.3-32,32s14.3,32,32,32s32-14.3,32-32S313.7,320,296,320z M296,368
			c-8.8,0-16-7.2-16-16s7.2-16,16-16s16,7.2,16,16S304.9,368,296,368z"/>
	</g>
</g>
<g>
	<g>
		<path class="st0" d="M408,320c-17.7,0-32,14.3-32,32s14.3,32,32,32s32-14.3,32-32S425.7,320,408,320z M408,368
			c-8.8,0-16-7.2-16-16s7.2-16,16-16s16,7.2,16,16S416.9,368,408,368z"/>
	</g>
</g>
</svg>
