<?xml version="1.0" encoding="iso-8859-1"?>
<!-- Generator: Adobe Illustrator 19.0.0, SVG Export Plug-In . SVG Version: 6.00 Build 0)  -->
<svg version="1.1" id="Capa_1" xmlns="http://www.w3.org/2000/svg" xmlns:xlink="http://www.w3.org/1999/xlink" x="0px" y="0px"
	 viewBox="0 0 512 512" style="enable-background:new 0 0 512 512;" xml:space="preserve">
<g>
	<g>
		<path d="M368.841,0H143.157c-25.171,0-45.649,20.478-45.649,45.649V435.13c0,23.254,17.482,42.489,39.992,45.286V502
			c0,5.523,4.477,10,10,10h49c5.523,0,10-4.477,10-10v-21.221h99V502c0,5.523,4.477,10,10,10h49c5.523,0,10-4.477,10-10v-21.584
			c22.509-2.797,39.992-22.032,39.992-45.286V45.649C414.491,20.478,394.013,0,368.841,0z M117.507,45.649
			c0-14.143,11.506-25.649,25.649-25.649h225.685c14.143,0,25.649,11.506,25.649,25.649V171h-16.185V52.72c0-5.523-4.477-10-10-10
			s-10,4.477-10,10V171H117.507V45.649z M117.507,191h240.798v136.596c0,5.523,4.477,10,10,10s10-4.477,10-10V191h16.185v216
			H117.507V191z M186.499,492h-29v-11.221h29V492z M354.499,492h-29v-11.221h29V492z M394.491,435.13
			c0,14.143-11.506,25.649-25.649,25.649H143.157c-14.143,0-25.649-11.506-25.649-25.649V427h276.983V435.13z"/>
	</g>
</g>
<g>
	<g>
		<path d="M243.856,88.509h-79.047c-15.059,0-27.31,12.252-27.31,27.31v12.694c0,12.513,10.18,22.694,22.694,22.694h16.444
			c8.927,0,16.667-5.181,20.37-12.694h46.85c5.523,0,10-4.477,10-10V98.509C253.856,92.986,249.379,88.509,243.856,88.509z
			 M233.856,118.512l-44.525,0.001c-5.523,0-10,4.477-10,10c0,1.485-1.208,2.694-2.694,2.694h-16.444
			c-1.485,0-2.694-1.208-2.694-2.694v-12.694c0-4.031,3.279-7.31,7.31-7.31h69.047V118.512z"/>
	</g>
</g>
<g>
	<g>
		<path d="M246.344,214.651h-79.047c-15.059,0-27.31,12.251-27.31,27.31v12.694c0,12.514,10.18,22.694,22.694,22.694h16.444
			c8.927,0,16.666-5.181,20.37-12.694h46.85c5.523,0,10-4.477,10-10v-30.003C256.344,219.128,251.867,214.651,246.344,214.651z
			 M236.344,244.655h-44.525c-5.523,0-10,4.477-10,10c0,1.485-1.208,2.694-2.694,2.694h-16.444c-1.485,0-2.694-1.208-2.694-2.694
			v-12.694c0-4.03,3.279-7.31,7.31-7.31h69.047V244.655z"/>
	</g>
</g>
<g>
	<g>
		<path d="M378.109,374.62c-0.13-0.64-0.32-1.27-0.57-1.87c-0.25-0.61-0.56-1.19-0.92-1.73c-0.36-0.55-0.78-1.06-1.24-1.52
			c-0.46-0.46-0.98-0.88-1.52-1.24c-0.55-0.36-1.13-0.67-1.73-0.92c-0.6-0.25-1.23-0.45-1.87-0.57c-1.29-0.26-2.62-0.26-3.91,0
			c-0.64,0.12-1.27,0.32-1.87,0.57c-0.6,0.25-1.18,0.56-1.73,0.92c-0.54,0.36-1.05,0.78-1.51,1.24c-0.47,0.46-0.88,0.97-1.25,1.52
			c-0.36,0.54-0.67,1.12-0.92,1.73c-0.25,0.6-0.44,1.23-0.57,1.87s-0.19,1.3-0.19,1.95s0.06,1.31,0.19,1.95s0.32,1.27,0.57,1.87
			c0.25,0.61,0.56,1.191,0.92,1.73c0.37,0.55,0.78,1.06,1.25,1.52c0.46,0.461,0.97,0.88,1.51,1.24c0.55,0.36,1.13,0.67,1.73,0.92
			c0.6,0.25,1.23,0.45,1.87,0.57c0.65,0.13,1.3,0.2,1.96,0.2c0.65,0,1.31-0.07,1.95-0.2c0.64-0.12,1.27-0.32,1.87-0.57
			c0.6-0.25,1.18-0.56,1.73-0.92c0.55-0.36,1.06-0.78,1.52-1.24c1.86-1.86,2.93-4.44,2.93-7.07
			C378.309,375.92,378.239,375.26,378.109,374.62z"/>
	</g>
</g>
<g>
</g>
<g>
</g>
<g>
</g>
<g>
</g>
<g>
</g>
<g>
</g>
<g>
</g>
<g>
</g>
<g>
</g>
<g>
</g>
<g>
</g>
<g>
</g>
<g>
</g>
<g>
</g>
<g>
</g>
</svg>
