<?xml version="1.0" encoding="utf-8"?>
<!-- Generator: Adobe Illustrator 22.0.1, SVG Export Plug-In . SVG Version: 6.00 Build 0)  -->
<svg version="1.1" id="Capa_1" xmlns="http://www.w3.org/2000/svg" xmlns:xlink="http://www.w3.org/1999/xlink" x="0px" y="0px"
	 viewBox="0 0 512 512" style="enable-background:new 0 0 512 512;" xml:space="preserve">
<style type="text/css">
	.st0{fill:#FFFFFF;}
</style>
<g>
	<g>
		<path class="st0" d="M368.8,0H143.2C118,0,97.5,20.5,97.5,45.6v389.5c0,23.3,17.5,42.5,40,45.3V502c0,5.5,4.5,10,10,10h49
			c5.5,0,10-4.5,10-10v-21.2h99V502c0,5.5,4.5,10,10,10h49c5.5,0,10-4.5,10-10v-21.6c22.5-2.8,40-22,40-45.3V45.6
			C414.5,20.5,394,0,368.8,0z M117.5,45.6c0-14.1,11.5-25.6,25.6-25.6h225.7c14.1,0,25.6,11.5,25.6,25.6V171h-16.2V52.7
			c0-5.5-4.5-10-10-10s-10,4.5-10,10V171H117.5V45.6z M117.5,191h240.8v136.6c0,5.5,4.5,10,10,10s10-4.5,10-10V191h16.2v216h-277
			V191z M186.5,492h-29v-11.2h29V492z M354.5,492h-29v-11.2h29V492z M394.5,435.1c0,14.1-11.5,25.6-25.6,25.6H143.2
			c-14.1,0-25.6-11.5-25.6-25.6V427h277V435.1z"/>
	</g>
</g>
<g>
	<g>
		<path class="st0" d="M243.9,88.5h-79c-15.1,0-27.3,12.3-27.3,27.3v12.7c0,12.5,10.2,22.7,22.7,22.7h16.4c8.9,0,16.7-5.2,20.4-12.7
			h46.8c5.5,0,10-4.5,10-10v-30C253.9,93,249.4,88.5,243.9,88.5z M233.9,118.5l-44.5,0c-5.5,0-10,4.5-10,10c0,1.5-1.2,2.7-2.7,2.7
			h-16.4c-1.5,0-2.7-1.2-2.7-2.7v-12.7c0-4,3.3-7.3,7.3-7.3h69L233.9,118.5L233.9,118.5z"/>
	</g>
</g>
<g>
	<g>
		<path class="st0" d="M246.3,214.7h-79c-15.1,0-27.3,12.3-27.3,27.3v12.7c0,12.5,10.2,22.7,22.7,22.7h16.4
			c8.9,0,16.7-5.2,20.4-12.7h46.9c5.5,0,10-4.5,10-10v-30C256.3,219.1,251.9,214.7,246.3,214.7z M236.3,244.7h-44.5
			c-5.5,0-10,4.5-10,10c0,1.5-1.2,2.7-2.7,2.7h-16.4c-1.5,0-2.7-1.2-2.7-2.7V242c0-4,3.3-7.3,7.3-7.3h69V244.7z"/>
	</g>
</g>
<g>
	<g>
		<path class="st0" d="M378.1,374.6c-0.1-0.6-0.3-1.3-0.6-1.9c-0.3-0.6-0.6-1.2-0.9-1.7c-0.4-0.5-0.8-1.1-1.2-1.5s-1-0.9-1.5-1.2
			c-0.5-0.4-1.1-0.7-1.7-0.9s-1.2-0.5-1.9-0.6c-1.3-0.3-2.6-0.3-3.9,0c-0.6,0.1-1.3,0.3-1.9,0.6s-1.2,0.6-1.7,0.9
			c-0.5,0.4-1,0.8-1.5,1.2c-0.5,0.5-0.9,1-1.3,1.5c-0.4,0.5-0.7,1.1-0.9,1.7c-0.3,0.6-0.4,1.2-0.6,1.9s-0.2,1.3-0.2,2s0.1,1.3,0.2,2
			s0.3,1.3,0.6,1.9c0.3,0.6,0.6,1.2,0.9,1.7c0.4,0.5,0.8,1.1,1.3,1.5c0.5,0.5,1,0.9,1.5,1.2c0.5,0.4,1.1,0.7,1.7,0.9
			s1.2,0.5,1.9,0.6c0.6,0.1,1.3,0.2,2,0.2c0.6,0,1.3-0.1,2-0.2c0.6-0.1,1.3-0.3,1.9-0.6s1.2-0.6,1.7-0.9c0.5-0.4,1.1-0.8,1.5-1.2
			c1.9-1.9,2.9-4.4,2.9-7.1C378.3,375.9,378.2,375.3,378.1,374.6z"/>
	</g>
</g>
</svg>
