<?xml version="1.0" encoding="utf-8"?>
<!-- Generator: Adobe Illustrator 22.0.1, SVG Export Plug-In . SVG Version: 6.00 Build 0)  -->
<svg version="1.1" id="Capa_1" xmlns="http://www.w3.org/2000/svg" xmlns:xlink="http://www.w3.org/1999/xlink" x="0px" y="0px"
	 viewBox="0 0 54.9 54.9" style="enable-background:new 0 0 54.9 54.9;" xml:space="preserve">
<style type="text/css">
	.st0{fill:#FFFFFF;}
</style>
<g>
	<path class="st0" d="M54.6,19.1C47.4,11.9,37.7,7.9,27.5,7.9s-19.9,4-27.2,11.2c-0.4,0.4-0.4,1,0,1.4s1,0.4,1.4,0
		c6.9-6.9,16-10.6,25.7-10.6s18.9,3.8,25.7,10.6c0.2,0.2,0.5,0.3,0.7,0.3s0.5-0.1,0.7-0.3C55,20.1,55,19.5,54.6,19.1z"/>
	<path class="st0" d="M6.2,25c-0.4,0.4-0.4,1,0,1.4c0.2,0.2,0.5,0.3,0.7,0.3s0.5-0.1,0.7-0.3c11-11,28.8-11,39.7,0
		c0.4,0.4,1,0.4,1.4,0s0.4-1,0-1.4C37,13.3,17.9,13.3,6.2,25z"/>
	<path class="st0" d="M27.5,24.5c-5.8,0-11.3,2.3-15.4,6.4c-0.4,0.4-0.4,1,0,1.4c0.4,0.4,1,0.4,1.4,0c3.7-3.7,8.7-5.8,14-5.8
		s10.3,2.1,14,5.8c0.2,0.2,0.5,0.3,0.7,0.3s0.5-0.1,0.7-0.3c0.4-0.4,0.4-1,0-1.4C38.8,26.8,33.3,24.5,27.5,24.5z"/>
	<path class="st0" d="M27.5,33.9c-3.6,0-6.6,2.9-6.6,6.6s2.9,6.6,6.6,6.6c3.6,0,6.6-2.9,6.6-6.6S31.1,33.9,27.5,33.9z M27.5,45
		c-2.5,0-4.6-2-4.6-4.6s2-4.6,4.6-4.6s4.6,2,4.6,4.6S30,45,27.5,45z"/>
</g>
</svg>
