<?xml version="1.0" encoding="utf-8"?>
<!-- Generator: Adobe Illustrator 22.0.1, SVG Export Plug-In . SVG Version: 6.00 Build 0)  -->
<svg version="1.1" id="Camada_1" xmlns="http://www.w3.org/2000/svg" xmlns:xlink="http://www.w3.org/1999/xlink" x="0px" y="0px"
	 viewBox="0 0 496 496" style="enable-background:new 0 0 496 496;" xml:space="preserve">
<style type="text/css">
	.st0{fill:#FFFFFF;}
</style>
<path class="st0" d="M176,208c-61.8,0-112,50.2-112,112s50.2,112,112,112s112-50.2,112-112S237.8,208,176,208z M176,416
	c-52.9,0-96-43.1-96-96s43.1-96,96-96s96,43.1,96,96S228.9,416,176,416z"/>
<path class="st0" d="M176,240c-44.1,0-80,35.9-80,80s35.9,80,80,80s80-35.9,80-80S220.1,240,176,240z M176,256
	c29.8,0,54.8,20.4,61.9,48h-2.6c-9.4,0-18.3,3.7-25,10.3c-3.6,3.6-8.5,5.7-13.7,5.7h-1.4c-5.2,0-10-2-13.7-5.7
	c-6.7-6.7-15.5-10.3-25-10.3h-1.4c-9.4,0-18.3,3.7-25,10.3c-3.6,3.6-8.5,5.7-13.7,5.7H112C112,284.7,140.7,256,176,256z M176,384
	c-29.8,0-54.8-20.4-61.9-48h2.6c9.4,0,18.3-3.7,25-10.3c3.6-3.6,8.5-5.7,13.7-5.7h1.4c5.2,0,10,2,13.7,5.7
	c6.7,6.7,15.5,10.3,25,10.3h1.4c9.4,0,18.3-3.7,25-10.3c3.6-3.6,8.5-5.7,13.7-5.7h4.7C240,355.3,211.3,384,176,384z"/>
<path class="st0" d="M496,320c0-17.6-14.4-32-32-32H360c-2.8,0-5.4,0.5-8,1.1V88c0-4.4-3.6-8-8-8H8c-4.4,0-8,3.6-8,8v400
	c0,4.4,3.6,8,8,8h456c17.6,0,32-14.4,32-32c0-14-9-25.7-21.5-30.1c3.5-5.1,5.5-11.3,5.5-17.9s-2-12.8-5.5-17.9
	C487,393.7,496,382,496,368c0-9.6-4.3-18.1-11.1-24C491.7,338.1,496,329.6,496,320z M464,416c0,8.8-7.2,16-16,16H344
	c-8.8,0-16-7.2-16-16s7.2-16,16-16h104C456.8,400,464,407.2,464,416z M328,368c0,6.6,2,12.8,5.5,17.9C321,390.3,312,402,312,416
	s9,25.7,21.5,30.1c-0.4,0.6-0.7,1.3-1,1.9H16V192h320v107.1c-4.9,5.6-8,12.9-8,20.9c0,9.6,4.3,18.1,11.1,24
	C332.3,349.9,328,358.4,328,368z M336,96v80H16V96H336z M16,464h312c0,5.9,1.7,11.3,4.4,16H16V464z M480,464c0,8.8-7.2,16-16,16H360
	c-8.8,0-16-7.2-16-16s7.2-16,16-16h104C472.8,448,480,455.2,480,464z M480,368c0,8.8-7.2,16-16,16H360c-8.8,0-16-7.2-16-16
	s7.2-16,16-16h104C472.8,352,480,359.2,480,368z M360,336c-8.8,0-16-7.2-16-16s7.2-16,16-16h104c8.8,0,16,7.2,16,16s-7.2,16-16,16
	H360z"/>
<path class="st0" d="M40,160h128c4.4,0,8-3.6,8-8v-32c0-4.4-3.6-8-8-8H40c-4.4,0-8,3.6-8,8v32C32,156.4,35.6,160,40,160z M48,128
	h112v16H48V128z"/>
<path class="st0" d="M240,128h16v16h-16V128z"/>
<path class="st0" d="M208,128h16v16h-16V128z"/>
<path class="st0" d="M272,128h16v16h-16V128z"/>
<path class="st0" d="M304,128h16v16h-16V128z"/>
<path class="st0" d="M320,64c17.6,0,32-14.4,32-32S337.6,0,320,0s-32,14.4-32,32S302.4,64,320,64z M320,16c8.8,0,16,7.2,16,16
	s-7.2,16-16,16s-16-7.2-16-16S311.2,16,320,16z"/>
<path class="st0" d="M472,112h-16c0,8.8-7.2,16-16,16v16C457.6,144,472,129.6,472,112z"/>
<path class="st0" d="M440,168c30.9,0,56-25.1,56-56s-25.1-56-56-56s-56,25.1-56,56S409.1,168,440,168z M440,72c22.1,0,40,17.9,40,40
	s-17.9,40-40,40s-40-17.9-40-40S417.9,72,440,72z"/>
<path class="st0" d="M408,264c22.1,0,40-17.9,40-40s-17.9-40-40-40s-40,17.9-40,40S385.9,264,408,264z M408,200
	c13.2,0,24,10.8,24,24s-10.8,24-24,24s-24-10.8-24-24S394.8,200,408,200z"/>
</svg>
