<svg height="496pt" viewBox="0 0 496 496" width="496pt" xmlns="http://www.w3.org/2000/svg"><path d="m176 208c-61.761719 0-112 50.238281-112 112s50.238281 112 112 112 112-50.238281 112-112-50.238281-112-112-112zm0 208c-52.9375 0-96-43.0625-96-96s43.0625-96 96-96 96 43.0625 96 96-43.0625 96-96 96zm0 0"/><path d="m176 240c-44.113281 0-80 35.886719-80 80s35.886719 80 80 80 80-35.886719 80-80-35.886719-80-80-80zm0 16c29.753906 0 54.761719 20.441406 61.894531 48h-2.582031c-9.433594 0-18.296875 3.671875-24.96875 10.34375-3.648438 3.648438-8.503906 5.65625-13.65625 5.65625h-1.375c-5.160156 0-10.007812-2.007812-13.65625-5.65625-6.671875-6.671875-15.535156-10.34375-24.96875-10.34375h-1.375c-9.433594 0-18.296875 3.671875-24.96875 10.34375-3.648438 3.648438-8.503906 5.65625-13.65625 5.65625h-4.6875c0-35.289062 28.710938-64 64-64zm0 128c-29.753906 0-54.761719-20.441406-61.894531-48h2.582031c9.433594 0 18.296875-3.671875 24.96875-10.34375 3.648438-3.648438 8.503906-5.65625 13.65625-5.65625h1.375c5.160156 0 10.007812 2.007812 13.65625 5.65625 6.671875 6.671875 15.535156 10.34375 24.96875 10.34375h1.375c9.433594 0 18.296875-3.671875 24.96875-10.34375 3.648438-3.648438 8.503906-5.65625 13.65625-5.65625h4.6875c0 35.289062-28.710938 64-64 64zm0 0"/><path d="m496 320c0-17.648438-14.351562-32-32-32h-104c-2.777344 0-5.425781.464844-8 1.136719v-201.136719c0-4.425781-3.574219-8-8-8h-336c-4.425781 0-8 3.574219-8 8v400c0 4.425781 3.574219 8 8 8h456c17.648438 0 32-14.351562 32-32 0-13.953125-9.023438-25.710938-21.496094-30.089844 3.464844-5.109375 5.496094-11.277344 5.496094-17.910156s-2.03125-12.800781-5.496094-17.910156c12.472656-4.378906 21.496094-16.136719 21.496094-30.089844 0-9.609375-4.335938-18.128906-11.054688-24 6.71875-5.871094 11.054688-14.390625 11.054688-24zm-32 96c0 8.824219-7.175781 16-16 16h-104c-8.824219 0-16-7.175781-16-16s7.175781-16 16-16h104c8.824219 0 16 7.175781 16 16zm-136-48c0 6.632812 2.03125 12.800781 5.496094 17.910156-12.472656 4.378906-21.496094 16.136719-21.496094 30.089844s9.023438 25.710938 21.496094 30.089844c-.40625.597656-.679688 1.285156-1.046875 1.910156h-316.449219v-256h320v107.054688c-4.921875 5.625-8 12.898437-8 20.945312 0 9.609375 4.335938 18.128906 11.054688 24-6.71875 5.871094-11.054688 14.390625-11.054688 24zm8-272v80h-320v-80zm-320 368h312c0 5.855469 1.695312 11.273438 4.449219 16h-316.449219zm464 0c0 8.824219-7.175781 16-16 16h-104c-8.824219 0-16-7.175781-16-16s7.175781-16 16-16h104c8.824219 0 16 7.175781 16 16zm0-96c0 8.824219-7.175781 16-16 16h-104c-8.824219 0-16-7.175781-16-16s7.175781-16 16-16h104c8.824219 0 16 7.175781 16 16zm-120-32c-8.824219 0-16-7.175781-16-16s7.175781-16 16-16h104c8.824219 0 16 7.175781 16 16s-7.175781 16-16 16zm0 0"/><path d="m40 160h128c4.425781 0 8-3.574219 8-8v-32c0-4.425781-3.574219-8-8-8h-128c-4.425781 0-8 3.574219-8 8v32c0 4.425781 3.574219 8 8 8zm8-32h112v16h-112zm0 0"/><path d="m240 128h16v16h-16zm0 0"/><path d="m208 128h16v16h-16zm0 0"/><path d="m272 128h16v16h-16zm0 0"/><path d="m304 128h16v16h-16zm0 0"/><path d="m320 64c17.648438 0 32-14.351562 32-32s-14.351562-32-32-32-32 14.351562-32 32 14.351562 32 32 32zm0-48c8.824219 0 16 7.175781 16 16s-7.175781 16-16 16-16-7.175781-16-16 7.175781-16 16-16zm0 0"/><path d="m472 112h-16c0 8.824219-7.175781 16-16 16v16c17.648438 0 32-14.351562 32-32zm0 0"/><path d="m440 168c30.871094 0 56-25.128906 56-56s-25.128906-56-56-56-56 25.128906-56 56 25.128906 56 56 56zm0-96c22.054688 0 40 17.945312 40 40s-17.945312 40-40 40-40-17.945312-40-40 17.945312-40 40-40zm0 0"/><path d="m408 264c22.054688 0 40-17.945312 40-40s-17.945312-40-40-40-40 17.945312-40 40 17.945312 40 40 40zm0-64c13.230469 0 24 10.769531 24 24s-10.769531 24-24 24-24-10.769531-24-24 10.769531-24 24-24zm0 0"/></svg>