<?xml version="1.0" encoding="utf-8"?>
<!-- Generator: Adobe Illustrator 22.0.1, SVG Export Plug-In . SVG Version: 6.00 Build 0)  -->
<svg version="1.1" id="Camada_1" xmlns="http://www.w3.org/2000/svg" xmlns:xlink="http://www.w3.org/1999/xlink" x="0px" y="0px"
	 viewBox="0 0 512 512" style="enable-background:new 0 0 512 512;" xml:space="preserve">
<style type="text/css">
	.st0{fill:#FFFFFF;}
</style>
<path class="st0" d="M506.9,354.4c-4.7-9.4-12.3-16.9-21.3-21.6v-17.2c0-69.9-31.5-135.2-86.5-179.2c-3.2-2.6-8-2.1-10.5,1.2
	s-2.1,8,1.2,10.5c51.4,41.1,80.9,102.2,80.9,167.5v12.3c-1.8-0.3-8.7,1.2-11.7-4.4c-5-9.6-11.4-18.3-19.6-24.9
	c-3.9-42.4-22.8-82.4-53.3-113c-34.9-34.9-81-54.1-130-54.1s-95.1,19.2-129.9,54.1c-7.3,7.3-14,15.2-19.9,23.5
	c-2.4,3.4-1.6,8.1,1.7,10.5c3.4,2.4,8.1,1.6,10.5-1.7c5.5-7.6,11.6-14.9,18.3-21.6c32.1-32.1,74.4-49.7,119.3-49.7
	c44.9,0,87.3,17.7,119.3,49.7c25.3,25.3,41.9,57.7,47.5,92.4c-13.5-6.9-31.1-6-32.3-5.9c-6-24.4-18.6-46.8-36.8-64.9
	c-26.3-26.3-61-40.8-97.8-40.8c-36.8,0-71.5,14.5-97.8,40.8c-18.2,18.2-30.8,40.5-36.8,64.9c-12.6-0.5-23.4,2-32.3,5.9
	c2.5-15.3,7-30.2,13.7-44.3c1.8-3.8,0.1-8.2-3.6-10c-3.8-1.8-8.2-0.1-10,3.6c-9,19.1-14.5,39.5-16.5,60.6
	c-8.2,6.6-14.6,15.2-19.6,24.8c-3.4,6.6-9.8,4.2-11.7,4.5v-12.3c0-57.1,22.4-110.9,63-151.5s94.4-63,151.5-63
	c38.4,0,76.2,10.4,109.2,30.1c3.6,2.1,8.2,1,10.3-2.6c2.1-3.6,1-8.2-2.6-10.3C337.5,97.1,297.1,86,256,86
	c-61.1,0-118.6,23.9-162.1,67.4c-43.5,43.5-67.4,101-67.4,162.1v17.2c-10.1,4.1-21.2,17.8-24.7,30.5c-3.5,12.7-1.9,25.9,4.5,37.2
	c8.7,15.3,25,24.8,42.6,24.8h137.5c10,0,19.6-3,27.9-8.8c19.9-13.8,26.7-40.5,15.9-62.1c-8-16-24.1-26.3-41.9-27.1
	c-6.5-0.3-8.9-9.2-10.5-11.8h0.1c0-20.6,8.2-40.2,23.1-55c14.9-14.9,34.4-23.1,55-23.1c20.6,0,40.2,8.2,55,23.1s23.1,34.4,23.1,55
	h0.1c-1.6,2.5-3,11.5-10.3,11.7c-7.8,0.3-15.6,2.4-22.4,6.3c-11.3,6.4-19.5,16.9-23,29.6c-3.5,12.7-1.9,25.9,4.5,37.2
	c8.7,15.3,25,24.8,42.6,24.8h137.5c10,0,19.6-3,27.9-8.8C510.9,402.7,517.7,376,506.9,354.4z M187.7,342.3
	c12.4,0.5,23.5,7.7,29.1,18.8c7.5,15,2.8,33.5-11,43c-5.8,4-12.6,6.1-19.7,6.1c0,0-137.1,0-137.1,0c-12.2,0-23.6-6.6-29.6-17.2
	c-4.4-7.8-5.5-17-3.1-25.8c2.4-8.8,8.1-16.1,16-20.6c4.8-2.7,10-4.2,15.6-4.4c8.2-0.3,15.4-5.1,19-12.5
	c9.3-19.6,29.3-32.2,50.9-32.2c21.7,0,41.7,12.7,51,32.3C172.1,337.2,179.4,342,187.7,342.3z M321.6,249.9
	c-17.7-17.7-41-27.5-65.6-27.5s-47.9,9.8-65.6,27.5c-13.9,13.9-22.9,31.3-26.1,50c-8.1-6.9-17.6-12.1-28-14.9
	c5.5-21.3,16.6-40.8,32.5-56.7c23.5-23.5,54.4-36.4,87.2-36.4c32.8,0,63.7,12.9,87.2,36.4c15.9,15.9,27.1,35.4,32.5,56.7
	c-10.3,2.8-19.9,7.9-28,14.9C344.5,281.2,335.5,263.8,321.6,249.9z M482.5,404.1c-5.8,4-12.6,6.1-19.7,6.1c0,0-137.1,0-137.1,0
	c-12.2,0-23.6-6.6-29.6-17.2c-4.4-7.8-5.5-17-3.1-25.8c2.4-8.8,8.1-16.1,16-20.6c4.8-2.7,10-4.2,15.5-4.4c8.2-0.3,15.4-5.1,19-12.5
	c9.3-19.6,29.3-32.2,50.9-32.2c21.7,0,41.7,12.7,51,32.3c3.5,7.3,10.8,12.1,19.1,12.4c12.4,0.5,23.5,7.7,29.1,18.8
	C501,376.1,496.2,394.6,482.5,404.1z"/>
</svg>
