<svg viewBox="0 -86 512.00028 512" xmlns="http://www.w3.org/2000/svg"><path d="m506.867188 268.351562c-4.734376-9.4375-12.28125-16.894531-21.332032-21.585937v-17.238281c0-69.867188-31.527344-135.183594-86.496094-179.195313-3.234374-2.585937-7.953124-2.066406-10.542968 1.167969s-2.066406 7.953125 1.167968 10.542969c51.394532 41.148437 80.871094 102.195312 80.871094 167.484375v12.328125c-1.847656-.289063-8.738281 1.238281-11.695312-4.398438-5.046875-9.617187-11.398438-18.261719-19.570313-24.890625-3.917969-42.429687-22.765625-82.445312-53.308593-112.988281-34.886719-34.886719-81.039063-54.097656-129.953126-54.097656-48.914062 0-95.0625 19.210937-129.949218 54.097656-7.285156 7.285156-13.988282 15.179687-19.925782 23.464844-2.410156 3.367187-1.636718 8.054687 1.730469 10.464843 3.363281 2.410157 8.050781 1.636719 10.464844-1.730468 5.457031-7.621094 11.628906-14.886719 18.335937-21.59375 32.050782-32.050782 74.4375-49.703125 119.34375-49.703125 44.910157 0 87.292969 17.652343 119.34375 49.703125 25.320313 25.320312 41.890626 57.699218 47.535157 92.386718-13.507813-6.855468-31.058594-5.992187-32.292969-5.925781-6.003906-24.414062-18.632812-46.75-36.792969-64.90625-26.292969-26.296875-61.023437-40.777343-97.792969-40.777343-36.765624 0-71.492187 14.480468-97.792968 40.773437-18.152344 18.15625-30.796875 40.5-36.800782 64.910156-12.566406-.5-23.425781 2.019531-32.300781 5.917969 2.46875-15.328125 7.042969-30.171875 13.664063-44.277344 1.761718-3.75.148437-8.21875-3.601563-9.976562-3.75-1.761719-8.21875-.148438-9.976562 3.601562-8.988281 19.144532-14.515625 39.527344-16.453125 60.632813-8.15625 6.605469-14.636719 15.152343-19.550782 24.796875-3.363281 6.601562-9.792968 4.183594-11.714843 4.476562v-12.289062c0-57.058594 22.382812-110.863282 63.023437-151.503906 40.640625-40.640626 94.445313-63.023438 151.503906-63.023438 38.40625 0 76.15625 10.394531 109.171876 30.0625 3.558593 2.121094 8.160156.957031 10.28125-2.605469 2.121093-3.554687.953124-8.160156-2.605469-10.28125-35.332031-21.050781-75.738281-32.175781-116.847657-32.175781-61.0625 0-118.636718 23.941406-162.109374 67.417969-43.476563 43.472656-67.417969 101.046875-67.417969 162.109375v17.195312c-10.105469 4.074219-21.15625 17.792969-24.664063 30.472656-3.503906 12.660157-1.9023435 25.859376 4.507813 37.160157 8.695312 15.332031 25.023437 24.832031 42.613281 24.832031h137.511719c9.988281 0 19.628906-3.023438 27.90625-8.757812 19.886719-13.777344 26.710937-40.46875 15.871093-62.078126-8.027343-16-24.101562-26.28125-41.945312-27.066406-6.453125-.28125-8.863281-9.226562-10.480469-11.757812h.121094c0-20.613282 8.1875-40.15625 23.0625-55.027344 14.871094-14.871094 34.414063-23.0625 55.023437-23.0625 20.613282 0 40.15625 8.191406 55.027344 23.0625s23.0625 34.414062 23.0625 55.027344h.085938c-1.597656 2.492187-2.960938 11.515625-10.257813 11.746094-7.839843.25-15.597656 2.441406-22.445312 6.3125-11.335938 6.414062-19.511719 16.929687-23.023438 29.609374-3.503906 12.660157-1.898437 25.859376 4.511719 37.160157 8.695312 15.332031 25.023438 24.832031 42.613281 24.832031h137.511719c9.988281 0 19.628906-3.023438 27.902344-8.757812 19.890625-13.777344 26.714844-40.464844 15.871094-62.078126zm-319.167969-12.078124c12.386719.484374 23.542969 7.6875 29.121093 18.804687 7.511719 14.976563 2.777344 33.472656-11.007812 43.023437-5.828125 4.035157-12.613281 6.113282-19.695312 6.085938 0 0-137.097657 0-137.144532 0-12.234375 0-23.566406-6.59375-29.601562-17.234375-4.433594-7.8125-5.535156-16.960937-3.101563-25.757813 2.441407-8.816406 8.109375-16.117187 15.953125-20.554687 4.8125-2.722656 10.046875-4.195313 15.550782-4.375 8.175781-.269531 15.449218-5.058594 18.976562-12.5 9.28125-19.582031 29.269531-32.234375 50.917969-32.234375 21.695312 0 41.699219 12.6875 50.964843 32.324219 3.457032 7.335937 10.765626 12.097656 19.066407 12.417969zm133.941406-92.378907c-17.703125-17.703125-41.015625-27.453125-65.632813-27.453125-24.617187 0-47.925781 9.75-65.632812 27.453125-13.910156 13.910157-22.90625 31.28125-26.125 50.027344-8.066406-6.945313-17.632812-12.054687-27.960938-14.878906 5.464844-21.285157 16.621094-40.789063 32.535157-56.699219 23.460937-23.460938 54.425781-36.382812 87.183593-36.382812 32.761719 0 63.726563 12.921874 87.1875 36.382812 15.917969 15.917969 27.0625 35.410156 32.527344 56.695312-10.324218 2.8125-19.890625 7.917969-27.960937 14.855469-3.222657-18.734375-12.21875-36.097656-26.121094-50zm160.8125 154.207031c-5.824219 4.035157-12.648437 6.113282-19.691406 6.085938 0 0-137.101563 0-137.148438 0-12.230469 0-23.5625-6.59375-29.597656-17.234375-4.433594-7.8125-5.535156-16.960937-3.101563-25.757813 2.4375-8.816406 8.105469-16.117187 15.953126-20.554687 4.8125-2.722656 10.042968-4.195313 15.546874-4.375 8.179688-.269531 15.449219-5.058594 18.980469-12.503906 9.28125-19.578125 29.269531-32.230469 50.917969-32.230469 21.691406 0 41.695312 12.6875 50.960938 32.324219 3.460937 7.335937 10.765624 12.09375 19.066406 12.417969 12.386718.484374 23.546875 7.6875 29.121094 18.804687 7.511718 14.976563 2.78125 33.472656-11.007813 43.023437zm0 0"/></svg>