<?xml version="1.0" encoding="utf-8"?>
<!-- Generator: Adobe Illustrator 22.0.1, SVG Export Plug-In . SVG Version: 6.00 Build 0)  -->
<svg version="1.1" id="Capa_1" xmlns="http://www.w3.org/2000/svg" xmlns:xlink="http://www.w3.org/1999/xlink" x="0px" y="0px"
	 viewBox="0 0 512 512" style="enable-background:new 0 0 512 512;" xml:space="preserve">
<style type="text/css">
	.st0{fill:#FFFFFF;}
</style>
<g>
	<g>
		<path class="st0" d="M315,361.7H287c-4.1,0-7.5,3.4-7.5,7.5c0,4.1,3.4,7.5,7.5,7.5H315c4.1,0,7.5-3.4,7.5-7.5
			C322.5,365,319.2,361.7,315,361.7z"/>
	</g>
</g>
<g>
	<g>
		<path class="st0" d="M480.2,281.4l-40.8-15.8l-20.8-20.8c-1.3-1.3-3.1-2.1-4.8-2.2v-16.6c9.8-10.5,16.8-23.7,19.6-38.6
			c1.8,0.1,3.5-0.1,5.3-0.4c10-2,17.2-11.3,17.2-22v-5.5c0-6.2-2.5-11.9-6.6-16c6.6-36,1.2-65.4-15.8-85c-16.5-19-43-28.1-76.7-26.3
			c-31.1,1.7-51.2,16-57.6,21.3c-3.5,0.4-9.4,1.6-15.4,5.2c-8.3,5-18.3,15.5-18.3,37.1c0,18.9,3,34.6,5.2,43.6
			c-7.3,3.6-12.2,11.3-12.2,20.1v5.4c0,10.7,7.2,20,17.2,22c1.7,0.4,3.5,0.5,5.3,0.4c2.8,14.9,9.8,28.2,19.6,38.6v16.6
			c-1.8,0.1-3.5,0.8-4.8,2.2l-20.8,20.8L234,281.4c-3.5,1.4-6.9,3.1-10,5.3c-3.4,2.3-4.3,7-2,10.4c1.5,2.1,3.8,3.3,6.2,3.3
			c1.5,0,2.9-0.4,4.2-1.3c2.2-1.5,4.5-2.7,7-3.7l37.9-14.6l29,43.5c3.6,5.4,9.4,8.8,15.8,9.5c0.7,0.1,1.4,0.1,2.1,0.1
			c3.7,0,7.4-1,10.6-2.8l-6.2,141.1c-0.2,4.1,3,7.6,7.2,7.8c0.1,0,0.2,0,0.3,0c4,0,7.3-3.1,7.5-7.2l5.8-130.9h15.6l5.8,130.9
			c0.2,4,3.5,7.2,7.5,7.2c0.1,0,0.2,0,0.3,0c4.1-0.2,7.3-3.7,7.2-7.8L379.5,331c3.2,1.8,6.8,2.8,10.6,2.8c0.7,0,1.4,0,2.1-0.1
			c6.4-0.6,12.2-4.1,15.8-9.5l29-43.5l37.9,14.6c5.3,2,9.9,5.3,13.5,9.4l-25.9,25.9c-9.4,9.4-14.5,21.8-14.5,35.1v106.6
			c0,4.1,3.4,7.5,7.5,7.5s7.5-3.4,7.5-7.5V365.8c0-9.2,3.6-17.9,10.1-24.5l22.8-22.8c0.9,3.4,1.3,6.9,1.2,10.5l-5.8,143.1
			c-0.2,4.1,3.1,7.6,7.2,7.8c0.1,0,0.2,0,0.3,0c4,0,7.3-3.2,7.5-7.2l5.8-143.1C512.8,308.4,500.1,289,480.2,281.4z M295.6,184.3
			c-1.3-7.2-8-12.4-15.2-11.9c-0.6,0-1.2,0-1.7-0.1c-3-0.6-5.2-3.8-5.2-7.3v-5.4c0-3.5,2.3-6.6,5.3-7.1c2.5-0.4,4.9,0.5,6.4,2.5
			c1.4,1.8,3.2,3.1,5.3,3.7c3.1,0.9,6.5,0.4,9.1-1.5c4.7-3.3,8.8-7.4,12.3-12c2.5-3.3,1.8-8-1.5-10.5c-3.3-2.5-8-1.8-10.5,1.5
			c-1.7,2.3-3.7,4.4-5.8,6.3c-2.4-2-5.2-3.5-8.1-4.3c-1.9-7.4-5.4-23.2-5.4-42.3c0-11.5,3.5-19.6,10.5-24c5.4-3.5,11.2-3.6,11.2-3.6
			c1.9,0,3.8-0.8,5.2-2.1c0.2-0.2,18.6-17.3,50.2-19c28.9-1.6,51.2,5.7,64.5,21.1c13.4,15.5,17.9,39.3,13,69c-2-0.1-4.2,0.1-6.4,0.4
			l-7-16.9c-1.4-3.5-5.2-5.3-8.8-4.4c-0.7,0.2-70,17.7-99-18.4c-2.6-3.2-7.3-3.7-10.5-1.2c-3.2,2.6-3.7,7.3-1.1,10.5
			c29.7,36.9,88.5,28.9,108.1,25l5.4,13.1c2.3,5.6,8.3,8.7,14.2,7.3c2.4-0.6,4.7-0.6,5.6-0.4c3,0.6,5.3,3.6,5.3,7v5.5
			c0,3.6-2.2,6.7-5.2,7.3c-0.6,0.1-1.2,0.2-1.7,0.1c-7.2-0.5-13.9,4.7-15.2,11.9c-5.5,29.7-31.3,51.3-61.6,51.3
			C326.9,235.6,301,214,295.6,184.3z M328.9,316.9c-1.9,1.9-4.1,2-5.3,1.9c-1.1-0.1-3.3-0.6-4.8-2.9l-29.2-43.8l11.7-11.7l44.8,39.2
			L328.9,316.9z M350,326.8l0.5-10.3l6.7-6.7l6.7,6.7l0.5,10.3H350z M357.1,289.3l-41.6-36.4v-14.4c12.1,7.7,26.4,12.1,41.6,12.1
			s29.5-4.4,41.6-12.1v14.4L357.1,289.3z M395.5,315.9c-1.5,2.2-3.6,2.8-4.8,2.9c-1.2,0.1-3.4,0-5.3-1.9l-17.3-17.3l44.8-39.2
			l11.7,11.7L395.5,315.9z"/>
	</g>
</g>
<g>
	<g>
		<path class="st0" d="M237.8,320.7l-36.6-16l-20-20c-1.3-1.3-3.1-2.1-4.8-2.2v-11.8c17.1-11.2,29.6-29.1,33.7-50.4
			c2,0.1,4-0.1,5.9-0.6c9.6-2.3,16.6-11.5,16.6-21.9v-5.5c0-7.6-3.8-14.4-9.6-18.4c1.7-6.8,2.6-13.8,2.6-20.8
			c0-31.1-16.8-58.4-42.1-74.2c-0.3-25.9-22.4-47-49.6-47s-49.3,21-49.6,47c-25.3,15.7-42.1,43.1-42.1,74.2c0,7,0.9,13.9,2.6,20.7
			c-5.8,4-9.6,10.9-9.6,18.6v5.4c0,10.4,7,19.6,16.6,21.9c2,0.5,3.9,0.7,5.9,0.6c4,21.3,16.5,39.2,33.7,50.4v11.8
			c-1.8,0.1-3.5,0.8-4.8,2.2l-20,20l-36.6,16C11.1,328.8-0.8,347.9,0,368.3l4.4,104.5c0.2,4,3.5,7.2,7.5,7.2c0.1,0,0.2,0,0.3,0
			c4.1-0.2,7.4-3.7,7.2-7.8L15,367.6c-0.3-6.7,1.5-13.3,4.8-18.9l19.7,23.6c6.2,7.5,9.6,16.9,9.6,26.6v73.4c0,4.1,3.4,7.5,7.5,7.5
			s7.5-3.4,7.5-7.5V399c0-13.2-4.7-26.1-13.1-36.2l-20.9-25.1c1.8-1.2,3.7-2.3,5.7-3.2l31.9-13.9l22.6,36.6
			c2.2,3.6,5.9,6.1,10.1,6.7c0.8,0.1,1.5,0.2,2.3,0.2c3.4,0,6.8-1.2,9.4-3.5l14.3-12.2v124.1c0,4.1,3.4,7.5,7.5,7.5s7.5-3.4,7.5-7.5
			V348.4l14.3,12.2c2.6,2.3,6,3.5,9.4,3.5c0.8,0,1.5-0.1,2.3-0.2c4.2-0.7,7.9-3.1,10.1-6.7l22.6-36.6l31.9,13.9c2,0.9,3.9,2,5.7,3.2
			l-20.9,25.1c-8.5,10.2-13.1,23-13.1,36.2v73.4c0,4.1,3.4,7.5,7.5,7.5s7.5-3.4,7.5-7.5V399c0-9.7,3.4-19.2,9.6-26.6l19.7-23.6
			c3.3,5.6,5,12.2,4.8,18.9l-4.4,104.5c-0.2,4.1,3,7.6,7.2,7.8c0.1,0,0.2,0,0.3,0c4,0,7.3-3.2,7.5-7.2l4.4-104.5
			C268.4,347.9,256.5,328.8,237.8,320.7z M133.8,47.1c16,0,29.4,10.2,33.4,24c-10.4-3.9-21.6-6.1-33.4-6.1s-23,2.1-33.4,6.1
			C104.4,57.2,117.8,47.1,133.8,47.1z M72.2,217.2c-1.3-7.2-8-12.4-15.2-11.9c-0.6,0-1.3,0-2-0.2c-2.9-0.7-5-3.8-5-7.3v-5.4
			c0-3.5,2.3-6.6,5.3-7.1c2.5-0.4,4.9,0.5,6.4,2.5c1.4,1.8,3.2,3.1,5.3,3.7c3.1,0.9,6.5,0.4,9.1-1.5c4.6-3.3,8.7-7.2,12.1-11.8
			c2.5-3.3,1.8-8-1.5-10.5c-3.3-2.5-8-1.8-10.5,1.5c-1.7,2.3-3.6,4.3-5.7,6.2c-3.2-2.7-7.1-4.5-11.3-5c-1.4-5.6-2.2-11.4-2.2-17.2
			c0-40.4,34.4-73.2,76.7-73.2c42.3,0,76.7,32.8,76.7,73.2c0,5.8-0.7,11.6-2.2,17.2c-2,0.2-4,0.5-5.8,1l-5.6-4.6
			c-2.8-2.3-6.4-3.5-10-3.3c-11,0.7-67.5,2.1-96.4-32.5c-2.7-3.2-7.4-3.6-10.6-0.9c-3.2,2.7-3.6,7.4-0.9,10.6
			c14.3,17.1,35.2,28.7,62.3,34.4c20.7,4.4,39.1,3.9,46.3,3.5l8.8,7.2c2.4,2,5.8,2.3,8.5,0.7c1.3-0.7,5.5-1.4,7.4-1
			c3,0.6,5.3,3.6,5.3,7v5.5c0,3.5-2.2,6.6-5,7.3c-0.7,0.2-1.3,0.2-2,0.2c-7.2-0.5-13.9,4.7-15.2,11.9c-5.5,29.7-31.3,51.3-61.6,51.3
			C103.6,268.5,77.7,246.9,72.2,217.2z M102.7,348.8l-22.6-36.6l11.6-11.6l31.1,31.1L102.7,348.8z M133.8,321.5l-27.6-27.6v-15.5
			c8.6,3.3,17.9,5.1,27.6,5.1s19-1.8,27.6-5.1v15.5L133.8,321.5z M164.9,348.8l-20.1-17.1l31.1-31.1l11.6,11.6L164.9,348.8z"/>
	</g>
</g>
<g>
	<g>
		<path class="st0" d="M105.7,394.8h-21c-4.1,0-7.5,3.4-7.5,7.5s3.4,7.5,7.5,7.5h21.1c4.1,0,7.5-3.4,7.5-7.5
			C113.2,398.1,109.9,394.8,105.7,394.8z"/>
	</g>
</g>
</svg>
