<?xml version="1.0" encoding="iso-8859-1"?>
<!-- Generator: Adobe Illustrator 19.0.0, SVG Export Plug-In . SVG Version: 6.00 Build 0)  -->
<svg version="1.1" id="Capa_1" xmlns="http://www.w3.org/2000/svg" xmlns:xlink="http://www.w3.org/1999/xlink" x="0px" y="0px"
	 viewBox="0 0 512 512" style="enable-background:new 0 0 512 512;" xml:space="preserve">
<g>
	<g>
		<path d="M102.4,384H42.667c-4.719,0-8.533,3.823-8.533,8.533v25.6c0,9.412,7.654,17.067,17.067,17.067h42.667
			c9.412,0,17.067-7.654,17.067-17.067v-25.6C110.933,387.823,107.119,384,102.4,384z M51.2,418.133v-17.067h42.667l0.008,17.067
			H51.2z"/>
	</g>
</g>
<g>
	<g>
		<path d="M469.333,384H409.6c-4.719,0-8.533,3.823-8.533,8.533v25.6c0,9.412,7.654,17.067,17.067,17.067H460.8
			c9.412,0,17.067-7.654,17.067-17.067v-25.6C477.867,387.823,474.052,384,469.333,384z M460.8,418.133h-42.667v-17.067H460.8
			V418.133z"/>
	</g>
</g>
<g>
	<g>
		<path d="M443.733,110.933c-18.825,0-34.133,15.309-34.133,34.133s15.309,34.133,34.133,34.133
			c18.825,0,34.133-15.309,34.133-34.133S462.558,110.933,443.733,110.933z M443.733,162.133c-9.412,0-17.067-7.654-17.067-17.067
			c0-9.412,7.654-17.067,17.067-17.067c9.412,0,17.067,7.654,17.067,17.067C460.8,154.479,453.146,162.133,443.733,162.133z"/>
	</g>
</g>
<g>
	<g>
		<path d="M443.733,298.667c-18.825,0-34.133,15.309-34.133,34.133c0,18.825,15.309,34.133,34.133,34.133
			c18.825,0,34.133-15.309,34.133-34.133C477.867,313.975,462.558,298.667,443.733,298.667z M443.733,349.867
			c-9.412,0-17.067-7.654-17.067-17.067c0-9.412,7.654-17.067,17.067-17.067c9.412,0,17.067,7.654,17.067,17.067
			C460.8,342.212,453.146,349.867,443.733,349.867z"/>
	</g>
</g>
<g>
	<g>
		<path d="M486.4,76.8H25.6C11.486,76.8,0,88.286,0,102.4v273.067c0,14.114,11.486,25.6,25.6,25.6h460.8
			c14.114,0,25.6-11.486,25.6-25.6V102.4C512,88.286,500.514,76.8,486.4,76.8z M494.933,375.467c0,4.702-3.823,8.533-8.533,8.533
			H25.6c-4.71,0-8.533-3.831-8.533-8.533V102.4c0-4.702,3.823-8.533,8.533-8.533h460.8c4.71,0,8.533,3.831,8.533,8.533V375.467z"/>
	</g>
</g>
<g>
	<g>
		<path d="M349.867,110.933H76.8c-23.526,0-42.667,19.14-42.667,42.667v170.667c0,23.526,19.14,42.667,42.667,42.667h273.067
			c23.526,0,42.667-19.14,42.667-42.667V153.6C392.533,130.074,373.393,110.933,349.867,110.933z M375.467,324.267
			c0,14.114-11.486,25.6-25.6,25.6H76.8c-14.114,0-25.6-11.486-25.6-25.6V153.6c0-14.114,11.486-25.6,25.6-25.6h273.067
			c14.114,0,25.6,11.486,25.6,25.6V324.267z"/>
	</g>
</g>
<g>
	<g>
		<path d="M503.467,418.133H8.533c-4.719,0-8.533,3.823-8.533,8.533s3.814,8.533,8.533,8.533h494.933
			c4.719,0,8.533-3.823,8.533-8.533S508.186,418.133,503.467,418.133z"/>
	</g>
</g>
<g>
	<g>
		<path d="M426.667,187.733c-4.719,0-8.533,3.823-8.533,8.533v8.533c0,4.71,3.814,8.533,8.533,8.533s8.533-3.823,8.533-8.533v-8.533
			C435.2,191.556,431.386,187.733,426.667,187.733z"/>
	</g>
</g>
<g>
	<g>
		<path d="M460.8,187.733c-4.719,0-8.533,3.823-8.533,8.533v8.533c0,4.71,3.814,8.533,8.533,8.533c4.719,0,8.533-3.823,8.533-8.533
			v-8.533C469.333,191.556,465.519,187.733,460.8,187.733z"/>
	</g>
</g>
<g>
	<g>
		<path d="M426.667,221.867c-4.719,0-8.533,3.823-8.533,8.533v8.533c0,4.71,3.814,8.533,8.533,8.533s8.533-3.823,8.533-8.533V230.4
			C435.2,225.69,431.386,221.867,426.667,221.867z"/>
	</g>
</g>
<g>
	<g>
		<path d="M460.8,221.867c-4.719,0-8.533,3.823-8.533,8.533v8.533c0,4.71,3.814,8.533,8.533,8.533c4.719,0,8.533-3.823,8.533-8.533
			V230.4C469.333,225.69,465.519,221.867,460.8,221.867z"/>
	</g>
</g>
<g>
	<g>
		<path d="M426.667,256c-4.719,0-8.533,3.823-8.533,8.533v8.533c0,4.71,3.814,8.533,8.533,8.533s8.533-3.823,8.533-8.533v-8.533
			C435.2,259.823,431.386,256,426.667,256z"/>
	</g>
</g>
<g>
	<g>
		<path d="M460.8,256c-4.719,0-8.533,3.823-8.533,8.533v8.533c0,4.71,3.814,8.533,8.533,8.533c4.719,0,8.533-3.823,8.533-8.533
			v-8.533C469.333,259.823,465.519,256,460.8,256z"/>
	</g>
</g>
<g>
	<g>
		<path d="M125.5,147.567c-3.337-3.336-8.73-3.336-12.066,0l-42.667,42.667c-3.337,3.337-3.337,8.73,0,12.066
			c1.664,1.664,3.849,2.5,6.033,2.5c2.185,0,4.369-0.836,6.033-2.5l42.667-42.667C128.836,156.297,128.836,150.903,125.5,147.567z"
			/>
	</g>
</g>
<g>
	<g>
		<path d="M168.166,147.567c-3.336-3.336-8.73-3.336-12.066,0l-25.6,25.6c-3.337,3.337-3.337,8.73,0,12.066
			c1.664,1.664,3.849,2.5,6.033,2.5c2.185,0,4.369-0.836,6.033-2.5l25.6-25.6C171.503,156.297,171.503,150.903,168.166,147.567z"/>
	</g>
</g>
<g>
	<g>
		<path d="M99.9,215.834c-3.336-3.337-8.73-3.337-12.066,0L70.767,232.9c-3.337,3.337-3.337,8.73,0,12.066
			c1.664,1.664,3.849,2.5,6.033,2.5c2.185,0,4.369-0.836,6.033-2.5L99.9,227.9C103.236,224.563,103.236,219.17,99.9,215.834z"/>
	</g>
</g>
<g>
	<g>
		<path d="M125.5,190.234c-3.337-3.337-8.73-3.337-12.066,0l-8.533,8.533c-3.337,3.337-3.337,8.73,0,12.066
			c1.664,1.664,3.849,2.5,6.033,2.5c2.185,0,4.369-0.836,6.033-2.5l8.533-8.533C128.836,198.963,128.836,193.57,125.5,190.234z"/>
	</g>
</g>
<g>
	<g>
		<path d="M341.333,290.133h-25.6v-102.4h25.6c4.719,0,8.533-3.823,8.533-8.533c0-4.71-3.814-8.533-8.533-8.533H307.2
			c-4.719,0-8.533,3.823-8.533,8.533v119.467c0,4.71,3.814,8.533,8.533,8.533h34.133c4.719,0,8.533-3.823,8.533-8.533
			C349.867,293.956,346.052,290.133,341.333,290.133z"/>
	</g>
</g>
<g>
</g>
<g>
</g>
<g>
</g>
<g>
</g>
<g>
</g>
<g>
</g>
<g>
</g>
<g>
</g>
<g>
</g>
<g>
</g>
<g>
</g>
<g>
</g>
<g>
</g>
<g>
</g>
<g>
</g>
</svg>
