<?xml version="1.0" encoding="utf-8"?>
<!-- Generator: Adobe Illustrator 22.0.1, SVG Export Plug-In . SVG Version: 6.00 Build 0)  -->
<svg version="1.1" id="Capa_1" xmlns="http://www.w3.org/2000/svg" xmlns:xlink="http://www.w3.org/1999/xlink" x="0px" y="0px"
	 viewBox="0 0 512 512" style="enable-background:new 0 0 512 512;" xml:space="preserve">
<style type="text/css">
	.st0{fill:#FFFFFF;}
</style>
<g>
	<g>
		<path class="st0" d="M102.4,384H42.7c-4.7,0-8.5,3.8-8.5,8.5v25.6c0,9.4,7.7,17.1,17.1,17.1h42.7c9.4,0,17.1-7.7,17.1-17.1v-25.6
			C110.9,387.8,107.1,384,102.4,384z M51.2,418.1v-17.1h42.7l0,17.1H51.2z"/>
	</g>
</g>
<g>
	<g>
		<path class="st0" d="M469.3,384h-59.7c-4.7,0-8.5,3.8-8.5,8.5v25.6c0,9.4,7.7,17.1,17.1,17.1h42.7c9.4,0,17.1-7.7,17.1-17.1v-25.6
			C477.9,387.8,474.1,384,469.3,384z M460.8,418.1h-42.7v-17.1h42.7V418.1z"/>
	</g>
</g>
<g>
	<g>
		<path class="st0" d="M443.7,110.9c-18.8,0-34.1,15.3-34.1,34.1s15.3,34.1,34.1,34.1c18.8,0,34.1-15.3,34.1-34.1
			S462.6,110.9,443.7,110.9z M443.7,162.1c-9.4,0-17.1-7.7-17.1-17.1c0-9.4,7.7-17.1,17.1-17.1c9.4,0,17.1,7.7,17.1,17.1
			C460.8,154.5,453.1,162.1,443.7,162.1z"/>
	</g>
</g>
<g>
	<g>
		<path class="st0" d="M443.7,298.7c-18.8,0-34.1,15.3-34.1,34.1c0,18.8,15.3,34.1,34.1,34.1c18.8,0,34.1-15.3,34.1-34.1
			C477.9,314,462.6,298.7,443.7,298.7z M443.7,349.9c-9.4,0-17.1-7.7-17.1-17.1c0-9.4,7.7-17.1,17.1-17.1c9.4,0,17.1,7.7,17.1,17.1
			C460.8,342.2,453.1,349.9,443.7,349.9z"/>
	</g>
</g>
<g>
	<g>
		<path class="st0" d="M486.4,76.8H25.6C11.5,76.8,0,88.3,0,102.4v273.1c0,14.1,11.5,25.6,25.6,25.6h460.8
			c14.1,0,25.6-11.5,25.6-25.6V102.4C512,88.3,500.5,76.8,486.4,76.8z M494.9,375.5c0,4.7-3.8,8.5-8.5,8.5H25.6
			c-4.7,0-8.5-3.8-8.5-8.5V102.4c0-4.7,3.8-8.5,8.5-8.5h460.8c4.7,0,8.5,3.8,8.5,8.5L494.9,375.5L494.9,375.5z"/>
	</g>
</g>
<g>
	<g>
		<path class="st0" d="M349.9,110.9H76.8c-23.5,0-42.7,19.1-42.7,42.7v170.7c0,23.5,19.1,42.7,42.7,42.7h273.1
			c23.5,0,42.7-19.1,42.7-42.7V153.6C392.5,130.1,373.4,110.9,349.9,110.9z M375.5,324.3c0,14.1-11.5,25.6-25.6,25.6H76.8
			c-14.1,0-25.6-11.5-25.6-25.6V153.6c0-14.1,11.5-25.6,25.6-25.6h273.1c14.1,0,25.6,11.5,25.6,25.6V324.3z"/>
	</g>
</g>
<g>
	<g>
		<path class="st0" d="M503.5,418.1H8.5c-4.7,0-8.5,3.8-8.5,8.5s3.8,8.5,8.5,8.5h494.9c4.7,0,8.5-3.8,8.5-8.5
			S508.2,418.1,503.5,418.1z"/>
	</g>
</g>
<g>
	<g>
		<path class="st0" d="M426.7,187.7c-4.7,0-8.5,3.8-8.5,8.5v8.5c0,4.7,3.8,8.5,8.5,8.5s8.5-3.8,8.5-8.5v-8.5
			C435.2,191.6,431.4,187.7,426.7,187.7z"/>
	</g>
</g>
<g>
	<g>
		<path class="st0" d="M460.8,187.7c-4.7,0-8.5,3.8-8.5,8.5v8.5c0,4.7,3.8,8.5,8.5,8.5s8.5-3.8,8.5-8.5v-8.5
			C469.3,191.6,465.5,187.7,460.8,187.7z"/>
	</g>
</g>
<g>
	<g>
		<path class="st0" d="M426.7,221.9c-4.7,0-8.5,3.8-8.5,8.5v8.5c0,4.7,3.8,8.5,8.5,8.5s8.5-3.8,8.5-8.5v-8.5
			C435.2,225.7,431.4,221.9,426.7,221.9z"/>
	</g>
</g>
<g>
	<g>
		<path class="st0" d="M460.8,221.9c-4.7,0-8.5,3.8-8.5,8.5v8.5c0,4.7,3.8,8.5,8.5,8.5s8.5-3.8,8.5-8.5v-8.5
			C469.3,225.7,465.5,221.9,460.8,221.9z"/>
	</g>
</g>
<g>
	<g>
		<path class="st0" d="M426.7,256c-4.7,0-8.5,3.8-8.5,8.5v8.5c0,4.7,3.8,8.5,8.5,8.5s8.5-3.8,8.5-8.5v-8.5
			C435.2,259.8,431.4,256,426.7,256z"/>
	</g>
</g>
<g>
	<g>
		<path class="st0" d="M460.8,256c-4.7,0-8.5,3.8-8.5,8.5v8.5c0,4.7,3.8,8.5,8.5,8.5s8.5-3.8,8.5-8.5v-8.5
			C469.3,259.8,465.5,256,460.8,256z"/>
	</g>
</g>
<g>
	<g>
		<path class="st0" d="M125.5,147.6c-3.3-3.3-8.7-3.3-12.1,0l-42.7,42.7c-3.3,3.3-3.3,8.7,0,12.1c1.7,1.7,3.8,2.5,6,2.5
			c2.2,0,4.4-0.8,6-2.5l42.7-42.7C128.8,156.3,128.8,150.9,125.5,147.6z"/>
	</g>
</g>
<g>
	<g>
		<path class="st0" d="M168.2,147.6c-3.3-3.3-8.7-3.3-12.1,0l-25.6,25.6c-3.3,3.3-3.3,8.7,0,12.1c1.7,1.7,3.8,2.5,6,2.5
			c2.2,0,4.4-0.8,6-2.5l25.6-25.6C171.5,156.3,171.5,150.9,168.2,147.6z"/>
	</g>
</g>
<g>
	<g>
		<path class="st0" d="M99.9,215.8c-3.3-3.3-8.7-3.3-12.1,0l-17.1,17.1c-3.3,3.3-3.3,8.7,0,12.1c1.7,1.7,3.8,2.5,6,2.5
			c2.2,0,4.4-0.8,6-2.5l17.1-17.1C103.2,224.6,103.2,219.2,99.9,215.8z"/>
	</g>
</g>
<g>
	<g>
		<path class="st0" d="M125.5,190.2c-3.3-3.3-8.7-3.3-12.1,0l-8.5,8.5c-3.3,3.3-3.3,8.7,0,12.1c1.7,1.7,3.8,2.5,6,2.5
			c2.2,0,4.4-0.8,6-2.5l8.5-8.5C128.8,199,128.8,193.6,125.5,190.2z"/>
	</g>
</g>
<g>
	<g>
		<path class="st0" d="M341.3,290.1h-25.6V187.7h25.6c4.7,0,8.5-3.8,8.5-8.5s-3.8-8.5-8.5-8.5h-34.1c-4.7,0-8.5,3.8-8.5,8.5v119.5
			c0,4.7,3.8,8.5,8.5,8.5h34.1c4.7,0,8.5-3.8,8.5-8.5C349.9,294,346.1,290.1,341.3,290.1z"/>
	</g>
</g>
</svg>
