<?xml version="1.0" encoding="utf-8"?>
<!-- Generator: Adobe Illustrator 22.0.1, SVG Export Plug-In . SVG Version: 6.00 Build 0)  -->
<svg version="1.1" id="Camada_1" xmlns="http://www.w3.org/2000/svg" xmlns:xlink="http://www.w3.org/1999/xlink" x="0px" y="0px"
	 viewBox="0 0 512 512" style="enable-background:new 0 0 512 512;" xml:space="preserve">
<style type="text/css">
	.st0{fill:#FFFFFF;}
</style>
<path class="st0" d="M427,0H85.7C62.1,0,43,19.1,43,42.7v409.6c0,14.1,11.5,25.6,25.6,25.6v25.6c0,4.7,3.8,8.5,8.5,8.5h358.4
	c4.7,0,8.5-3.8,8.5-8.5v-25.6c14.1,0,25.6-11.5,25.6-25.6V42.7C469.6,19.1,450.6,0,427,0z M85.7,17.1H427
	c14.1,0,25.6,11.5,25.6,25.6v59.7H60.1V42.7C60.1,28.5,71.5,17.1,85.7,17.1z M427,494.9H85.7v-17.1H427V494.9z M444.1,460.8H68.6
	c-4.7,0-8.5-3.8-8.5-8.5V119.5h392.5v332.8C452.6,457,448.8,460.8,444.1,460.8z"/>
<path class="st0" d="M85.7,85.3h102.4c4.7,0,8.5-3.8,8.5-8.5V42.7c0-4.7-3.8-8.5-8.5-8.5H85.7c-4.7,0-8.5,3.8-8.5,8.5v34.1
	C77.1,81.5,81,85.3,85.7,85.3z M94.2,51.2h85.3v17.1H94.2V51.2z"/>
<path class="st0" d="M239.3,85.3c14.1,0,25.6-11.5,25.6-25.6c0-14.1-11.5-25.6-25.6-25.6c-14.1,0-25.6,11.5-25.6,25.6
	C213.7,73.9,225.1,85.3,239.3,85.3z M239.3,51.2c4.7,0,8.5,3.8,8.5,8.5c0,4.7-3.8,8.5-8.5,8.5c-4.7,0-8.5-3.8-8.5-8.5
	C230.7,55,234.6,51.2,239.3,51.2z"/>
<path class="st0" d="M307.5,85.3c14.1,0,25.6-11.5,25.6-25.6c0-14.1-11.5-25.6-25.6-25.6c-14.1,0-25.6,11.5-25.6,25.6
	C281.9,73.9,293.4,85.3,307.5,85.3z M307.5,51.2c4.7,0,8.5,3.8,8.5,8.5c0,4.7-3.8,8.5-8.5,8.5c-4.7,0-8.5-3.8-8.5-8.5
	C299,55,302.8,51.2,307.5,51.2z"/>
<path class="st0" d="M358.7,68.3h17.1c4.7,0,8.5-3.8,8.5-8.5c0-4.7-3.8-8.5-8.5-8.5h-17.1c-4.7,0-8.5,3.8-8.5,8.5
	C350.2,64.4,354,68.3,358.7,68.3z"/>
<path class="st0" d="M409.9,68.3H427c4.7,0,8.5-3.8,8.5-8.5c0-4.7-3.8-8.5-8.5-8.5h-17.1c-4.7,0-8.5,3.8-8.5,8.5
	C401.4,64.4,405.2,68.3,409.9,68.3z"/>
<path class="st0" d="M256.3,153.6c-75.4,0-136.5,61.1-136.5,136.5s61.1,136.5,136.5,136.5c75.4,0,136.5-61.1,136.5-136.5
	C392.8,214.8,331.7,153.7,256.3,153.6z M256.3,409.6c-66,0-119.5-53.5-119.5-119.5s53.5-119.5,119.5-119.5
	c66,0,119.5,53.5,119.5,119.5C375.7,356.1,322.3,409.5,256.3,409.6z"/>
<path class="st0" d="M256.3,179.2c-61.2-0.1-110.9,49.5-110.9,110.7c0,14.5,2.8,28.9,8.3,42.3c0.1,0.2,0,0.3,0.1,0.5
	c0.1,0.2,0.2,0.3,0.3,0.5c23.8,56.4,88.8,82.9,145.2,59.1c31.6-13.3,55.2-40.4,64.1-73.5c0-0.1,0.1-0.3,0.1-0.4
	c15.8-58.9-19.1-119.6-78-135.4C276,180.4,266.2,179.2,256.3,179.2z M256.3,196.3c51.7-0.1,93.7,41.7,93.9,93.4
	c0,7-0.7,13.9-2.3,20.8c-4.4,1.5-8.8,3.2-13.1,5.1c-11.1,5.7-23.4,8.7-35.8,8.7c-10.6,0.3-21.1-2.4-30.3-7.7
	c-11.6-6.4-24.7-9.7-37.9-9.4c-21.7,0.9-43.1,4.9-63.6,11.9c-16.1-49.2,10.8-102.2,60-118.2C236.5,197.8,246.4,196.3,256.3,196.3z
	 M256.3,384c-34.4,0-66-18.9-82.5-49.1c18.4-6.2,37.5-9.8,56.9-10.7c10.6-0.3,21.1,2.4,30.3,7.7c11.6,6.4,24.7,9.7,37.9,9.4
	c14.3,0.1,28.5-3.2,41.3-9.5C324.5,363.7,292,384,256.3,384z"/>
</svg>
