<?xml version="1.0" encoding="utf-8"?>
<!-- Generator: Adobe Illustrator 22.0.1, SVG Export Plug-In . SVG Version: 6.00 Build 0)  -->
<svg version="1.1" id="Camada_1" xmlns="http://www.w3.org/2000/svg" xmlns:xlink="http://www.w3.org/1999/xlink" x="0px" y="0px"
	 viewBox="0 0 511 511" style="enable-background:new 0 0 511 511;" xml:space="preserve">
<style type="text/css">
	.st0{fill:#FFFFFF;}
</style>
<path class="st0" d="M408.5,41.6c-2,6.1-1.6,12.7,1.3,18.4c1.4,2.8,0.8,6.1-1.3,8.2L280.6,196.2c-0.8,0.8-1.7,1.4-2.8,1.7l-9.6,3.2
	c-1.5,0.5-3,0.5-4.5,0l-7.6-2.6c-5.5-1.8-11.5-1.6-16.9,0.6L83.3,263.8c-5.7,2.4-11.5,4.7-17.3,7c-11.4,4.6-23.3,9.4-34.8,14.5
	c-1.4,0.6-2.9,1.2-4.4,1.7c-7.2,2-13.6,6.3-18.1,12.3c-3.6,5.6-4.7,12.4-3.1,18.9c2.1,8.1,7.7,14.9,15.2,18.7
	c8.7,4,18.3,5.6,27.8,4.6l108.2-0.1l6,6.8l0.7,0.9v130.2c0.8,12.1,8.1,22.8,19.1,28.1c4.2,2.2,8.8,3.3,13.5,3.4
	c3.2,0,6.5-0.6,9.5-1.8c8.9-3.8,15.8-11.2,19.1-20.3c8.8-22.2,18.2-44.7,27.3-66.5l61.7-148.8c2.2-5.4,2.4-11.4,0.6-16.9l-2.6-7.6
	c-0.5-1.5-0.5-3,0-4.5l3.2-9.6c0.3-1,0.9-2,1.7-2.8l128-127.9c2.2-2.2,5.5-2.7,8.2-1.3c11.9,6,26.5,1.1,32.4-10.8l24.1-48.2
	c4.7-9.3,2.8-20.5-4.5-27.9L496.8,8c-7.4-7.4-18.6-9.2-27.9-4.5l-48.2,24.1C414.9,30.4,410.6,35.5,408.5,41.6z M424.7,46.9
	c0.6-1.8,1.9-3.3,3.6-4.1l48.1-24.1c2.8-1.4,6.1-0.8,8.3,1.3l8.1,8.1c2.2,2.2,2.7,5.5,1.3,8.2l-24.1,48.2c-1.8,3.5-6,4.9-9.6,3.2
	c-9.3-4.7-20.5-2.8-27.9,4.5l-128,127.9c-2.6,2.7-4.6,5.9-5.8,9.4l-3.2,9.6c-1.6,5-1.6,10.3,0,15.3l2.6,7.6c0.5,1.6,0.5,3.4-0.2,5
	l-61.8,148.7c-9.1,21.8-18.6,44.4-27.4,66.8c-1.5,4.7-4.9,8.5-9.3,10.6c-3.1,1.1-6.5,0.8-9.4-0.9c-5.1-2.5-8.7-7.3-9.6-12.9v-133
	c0-1.8-0.6-3.6-1.7-5.1l-11.7-13.9c-1.6-1.9-4-2.9-6.4-2.9H52.8l-4.5,0.1c-6.6,0.7-13.3-0.2-19.5-2.6c-3.2-1.6-5.6-4.4-6.6-7.8
	c-0.5-1.9-0.2-3.9,0.8-5.5c2.7-2.8,6.1-4.8,9.9-5.7c1.8-0.7,3.6-1.4,5.3-2.1c11.2-5,22.9-9.7,34.2-14.3c5.8-2.4,11.6-4.7,17.4-7.1
	l155.9-64.7c1.6-0.7,3.4-0.7,5-0.2l7.6,2.6c5,1.7,10.4,1.7,15.3,0l9.6-3.2c3.6-1.2,6.8-3.2,9.4-5.8L420.6,80.3
	c7.4-7.4,9.2-18.6,4.5-27.9C424.3,50.7,424.1,48.7,424.7,46.9L424.7,46.9z"/>
<path class="st0" d="M247.9,240.9c-3.4-3-8.5-2.9-11.7,0.3c-3.2,3.2-3.3,8.3-0.3,11.7l24.1,24.1c3.3,3.2,8.7,3.2,11.9-0.1
	c3.3-3.3,3.3-8.6,0.1-11.9L247.9,240.9z"/>
<path class="st0" d="M223.8,265c-3.3-3.2-8.7-3.2-11.9,0.1c-3.3,3.3-3.3,8.6-0.1,11.9l24.1,24.1c3.3,3.2,8.7,3.2,11.9-0.1
	c3.3-3.3,3.3-8.6,0.1-11.9L223.8,265z"/>
<path class="st0" d="M217.8,327.7c3.4,0,6.5-2.1,7.9-5.3c1.3-3.2,0.6-6.8-1.8-9.3l-24.1-24.1c-2.1-2.2-5.3-3.1-8.3-2.3
	c-3,0.8-5.3,3.1-6.1,6.1c-0.8,3,0.1,6.1,2.3,8.3l24.1,24.1C213.3,326.8,215.5,327.7,217.8,327.7z"/>
<path class="st0" d="M199.7,421.6c-2.4,2.4-3.2,6.1-1.8,9.3c1.3,3.2,4.4,5.3,7.9,5.3c3.4,0,6.5-2.1,7.9-5.3c1.3-3.2,0.6-6.8-1.8-9.3
	C208.4,418.2,203,418.2,199.7,421.6z"/>
<path class="st0" d="M211.7,385.5c-2.4,2.4-3.2,6.1-1.8,9.3c1.3,3.2,4.4,5.3,7.9,5.3c3.4,0,6.6-2.1,7.9-5.3c1.3-3.2,0.6-6.8-1.8-9.3
	C220.5,382.1,215.1,382.1,211.7,385.5z"/>
<path class="st0" d="M223.8,349.3c-2.4,2.4-3.2,6.1-1.8,9.3s4.4,5.3,7.9,5.3c3.4,0,6.6-2.1,7.9-5.3s0.6-6.8-1.8-9.3
	C232.5,346,227.1,346,223.8,349.3z"/>
<path class="st0" d="M504.5,242l-30.1-30.1c-4.8-4.8-11.3-7.5-18.1-7.5c-6.8,0-13.3,2.7-18.1,7.5l-39.1,39.1
	c-1.8-5.6-4.9-10.8-9.1-15c-11.7-13.2-31.8-14.5-45.1-3c-11.5,13.3-10.2,33.4,3,45.1c6.7,6.8,15.8,10.8,25.4,10.9
	c7.4,0.1,14.5-2.7,19.8-7.9c0.6-0.7,1.2-1.4,1.7-2.1c0.5-0.2,0.9-0.5,1.3-0.9l54.2-54.2c1.6-1.6,3.8-2.5,6-2.5c2.3,0,4.4,0.9,6,2.5
	l30.1,30.1c1.6,1.6,2.5,3.8,2.5,6s-0.9,4.4-2.5,6l-39,39c-1.8-5.6-5-10.7-9.2-14.9c-6-6.1-13.9-10-22.5-10.8
	c-8.4-1-16.8,1.8-22.7,7.8c-6,6-8.9,14.4-7.8,22.7c2,17.5,15.8,31.3,33.3,33.3c1,0.1,2,0.1,3,0.1c7.4,0.1,14.5-2.7,19.8-7.9
	c0.6-0.7,1.2-1.4,1.7-2.2c0.5-0.2,0.9-0.5,1.3-0.8l54.2-54.2c4.8-4.8,7.5-11.3,7.5-18.1C512,253.3,509.3,246.8,504.5,242z
	 M359.9,266.1c-6.4-5.2-7.7-14.4-3-21.1c2.1-2,4.9-3,7.8-2.9c5,0.2,9.8,2.3,13.3,6c6.4,5.1,7.7,14.4,3,21.1
	C374.3,273.8,365.1,272.5,359.9,266.1z M426.1,326.2c-9.3-1.3-16.6-8.6-17.8-17.8c-0.5-3.3,0.6-6.7,2.9-9.1c2.1-2,4.9-3.1,7.8-3
	c0.4,0,0.9,0,1.4,0.1c9.3,1.2,16.6,8.5,17.8,17.8c0.6,3.3-0.5,6.7-2.9,9.1C432.8,325.7,429.4,326.8,426.1,326.2z"/>
<path class="st0" d="M45.1,159.2c-5.6,1.8-10.7,5-14.9,9.2c-6.1,6-10,13.9-10.8,22.5c-1,8.4,1.9,16.7,7.8,22.7
	c5.3,5.2,12.4,8,19.8,7.9c1,0,2,0,3-0.1c8.5-0.9,16.4-4.7,22.4-10.8c6.1-6,9.9-13.9,10.8-22.4c1-8.4-1.9-16.7-7.8-22.7
	c-0.7-0.6-1.4-1.2-2.1-1.7c-0.2-0.5-0.5-0.9-0.8-1.3l-53.2-53.2c-0.9-0.9-1.3-2.3-1.1-3.6c0.2-1.3,1.1-2.4,2.3-2.9l25.2-10.8
	c2.9-1.1,4.9-3.8,5.3-6.8c0.4-3.1-0.9-6.1-3.4-7.9c-2.5-1.8-5.8-2.2-8.6-0.9L13.7,87c-6.4,2.7-11,8.5-12.4,15.3
	c-1.3,6.8,0.8,13.9,5.8,18.8L45.1,159.2z M66.2,186.5c-1.2,9.3-8.5,16.6-17.8,17.8c-3.3,0.5-6.7-0.6-9.1-2.9
	c-2.3-2.5-3.4-5.8-2.9-9.1c1.3-9.3,8.6-16.6,17.9-17.8c0.5,0,0.9-0.1,1.4-0.1c2.9-0.1,5.7,1,7.8,3C65.6,179.8,66.7,183.2,66.2,186.5
	z"/>
<path class="st0" d="M200.9,21c0-1.3,0.6-2.6,1.8-3.3c1.1-0.8,2.5-0.9,3.7-0.4l25.4,10.2c2.8,1.1,6,0.7,8.4-1.2
	c2.4-1.9,3.6-4.9,3.2-7.9c-0.4-3-2.4-5.6-5.3-6.7L212.7,1.5c-6.5-2.6-13.8-1.8-19.6,2.1s-9.2,10.4-9.2,17.4v53.8
	c-5.3-2.7-11.1-4.1-17-4.1c-17.6-1.1-32.8,12.2-34.1,29.8c1.3,17.6,16.5,30.9,34.1,29.8c17.6,1.1,32.8-12.2,34.1-29.8
	c-0.1-0.9-0.2-1.8-0.3-2.7c0.1-0.5,0.3-1,0.3-1.5V21z M166.9,113.3c-9.2,0-17-5.9-17-12.8c0-6.9,7.8-12.8,17-12.8
	c9.2,0,17,5.9,17,12.8C183.9,107.4,176.1,113.3,166.9,113.3L166.9,113.3z"/>
<path class="st0" d="M171.3,153.3v25.5c0,4.7,3.8,8.5,8.5,8.5c4.7,0,8.5-3.8,8.5-8.5v-25.5c0-4.7-3.8-8.5-8.5-8.5
	C175.1,144.8,171.3,148.6,171.3,153.3z"/>
<path class="st0" d="M122.7,159.5c-3.3,3.3-3.3,8.7,0,12l18.1,18.1c2.1,2.2,5.3,3.1,8.3,2.3c3-0.8,5.3-3.1,6.1-6.1
	c0.8-3-0.1-6.1-2.3-8.3l-18.1-18.1C131.4,156.2,126,156.2,122.7,159.5z"/>
<path class="st0" d="M103.2,212.9c0,4.7,3.8,8.5,8.5,8.5h25.5c4.7,0,8.5-3.8,8.5-8.5c0-4.7-3.8-8.5-8.5-8.5h-25.5
	C107,204.4,103.2,208.2,103.2,212.9z"/>
<path class="st0" d="M367.2,332.1c0-4.7-3.8-8.5-8.5-8.5h-25.5c-4.7,0-8.5,3.8-8.5,8.5c0,4.7,3.8,8.5,8.5,8.5h25.5
	C363.4,340.7,367.2,336.8,367.2,332.1z"/>
<path class="st0" d="M322.3,359.2c-3.3,3.3-3.3,8.7,0,12l18.1,18.1c3.3,3.2,8.7,3.2,11.9-0.1c3.3-3.3,3.3-8.6,0.1-11.9l-18.1-18.1
	C331,355.8,325.6,355.8,322.3,359.2z"/>
<path class="st0" d="M290.5,374.7v25.5c0,4.7,3.8,8.5,8.5,8.5c4.7,0,8.5-3.8,8.5-8.5v-25.5c0-4.7-3.8-8.5-8.5-8.5
	C294.3,366.2,290.5,370,290.5,374.7z"/>
<path class="st0" d="M458.9,499.3c-1.8,4.4,0.4,9.3,4.7,11.1c4.4,1.8,9.3-0.4,11.1-4.7l10.2-25.4c2.6-6.5,1.8-13.8-2.1-19.6
	s-10.4-9.2-17.4-9.2h-53.8c2.7-5.3,4.1-11.1,4.1-17c1.1-17.6-12.2-32.8-29.8-34.1c-17.1,2.3-29.8,16.9-29.8,34.1
	c0,17.2,12.7,31.8,29.8,34.1c0.9-0.1,1.8-0.2,2.7-0.3c0.5,0.2,1,0.3,1.6,0.3h75.2c1.3,0,2.6,0.7,3.3,1.8c0.7,1.1,0.9,2.5,0.4,3.7
	L458.9,499.3z M373.1,434.3c0-9.2,5.9-17,12.8-17s12.8,7.8,12.8,17s-5.8,17-12.8,17C379,451.4,373.1,443.6,373.1,434.3z"/>
</svg>
