<svg height="511pt" viewBox="0 0 511 511.99324" width="511pt" xmlns="http://www.w3.org/2000/svg"><path d="m408.84375 41.632812c-2.042969 6.089844-1.566406 12.746094 1.324219 18.480469 1.371093 2.757813.832031 6.082031-1.339844 8.261719l-128.179687 128.179688c-.785157.773437-1.738282 1.355468-2.78125 1.707031l-9.644532 3.207031c-1.464844.488281-3.046875.488281-4.515625 0l-7.585937-2.558594c-5.53125-1.84375-11.546875-1.632812-16.9375.597656l-156.21875 64.828126c-5.753906 2.378906-11.519532 4.707031-17.289063 7.046874-11.46875 4.625-23.320312 9.386719-34.839843 14.566407-1.410157.632812-2.894532 1.179687-4.386719 1.707031-7.257813 1.988281-13.648438 6.332031-18.167969 12.347656-3.59375 5.609375-4.714844 12.449219-3.097656 18.910156 2.152344 8.132813 7.675781 14.964844 15.179687 18.773438 8.703125 3.964844 18.296875 5.570312 27.820313 4.648438l108.441406-.066407 6.015625 6.828125.691406.902344v130.414062c.851563 12.136719 8.140625 22.882813 19.097657 28.160157 4.191406 2.183593 8.832031 3.355469 13.558593 3.414062 3.253907 0 6.484375-.597656 9.523438-1.765625 8.914062-3.828125 15.832031-11.1875 19.105469-20.316406 8.808593-22.289062 18.246093-44.820312 27.367187-66.664062l61.867187-149.058594c2.230469-5.390625 2.445313-11.398438.605469-16.933594l-2.5625-7.59375c-.484375-1.464844-.484375-3.046875 0-4.511719l3.21875-9.644531c.34375-1.046875.929688-2 1.707031-2.78125l128.230469-128.144531c2.171875-2.175781 5.492188-2.71875 8.242188-1.339844 11.964843 5.96875 26.503906 1.125 32.496093-10.828125l24.113282-48.265625c4.671875-9.316406 2.84375-20.574219-4.53125-27.9375l-8.148438-8.175781c-7.371094-7.371094-18.632812-9.195313-27.953125-4.53125l-48.273437 24.132812c-5.753906 2.863282-10.128906 7.902344-12.152344 14.003906zm16.214844 5.398438c.59375-1.800781 1.890625-3.292969 3.589844-4.136719l48.238281-24.132812c2.757812-1.378907 6.085937-.84375 8.269531 1.332031l8.148438 8.15625c2.179687 2.175781 2.714843 5.503906 1.332031 8.253906l-24.132813 48.273438c-1.773437 3.519531-6.058594 4.945312-9.589844 3.191406-9.320312-4.667969-20.582031-2.835938-27.945312 4.539062l-128.199219 128.179688c-2.640625 2.664062-4.632812 5.902344-5.816406 9.460938l-3.234375 9.628906c-1.652344 4.96875-1.652344 10.335937 0 15.308594l2.558594 7.585937c.550781 1.632813.488281 3.414063-.171875 5.007813l-61.875 149.015624c-9.136719 21.882813-18.601563 44.503907-27.492188 66.921876-1.519531 4.675781-4.886719 8.53125-9.320312 10.664062-3.109375 1.09375-6.546875.753906-9.386719-.921875-5.136719-2.476563-8.738281-7.3125-9.640625-12.945313v-133.238281c0-1.847656-.601563-3.644531-1.707031-5.121093l-11.75-13.890626c-1.621094-1.855468-3.964844-2.917968-6.425782-2.917968h-108.117187l-4.488281.050781c-6.621094.722656-13.320313-.179687-19.507813-2.636719-3.183593-1.570312-5.574219-4.390625-6.597656-7.792968-.480469-1.882813-.191406-3.882813.800781-5.554688 2.675782-2.804688 6.105469-4.773438 9.875-5.671875 1.824219-.683594 3.644532-1.367187 5.359375-2.136719 11.238281-5.023437 22.9375-9.75 34.269531-14.324218 5.820313-2.355469 11.640626-4.710938 17.433594-7.109376l156.21875-64.777343c1.59375-.667969 3.375-.730469 5.007813-.179688l7.578125 2.5625c4.988281 1.65625 10.375 1.65625 15.363281 0l9.632813-3.210937c3.5625-1.1875 6.796874-3.191406 9.453124-5.84375l128.121094-128.1875c7.367188-7.371094 9.1875-18.628906 4.523438-27.949219-.855469-1.691406-.996094-3.65625-.394532-5.453125zm0 0"/><path d="m247.863281 241.398438c-3.371093-3.023438-8.515625-2.886719-11.722656.308593-3.207031 3.199219-3.355469 8.34375-.34375 11.722657l24.140625 24.140624c3.347656 3.234376 8.671875 3.1875 11.960938-.105468 3.292968-3.289063 3.339843-8.613282.105468-11.960938zm0 0"/><path d="m223.730469 265.539062c-3.347657-3.234374-8.671875-3.1875-11.960938.101563-3.292969 3.292969-3.339843 8.613281-.105469 11.964844l24.132813 24.128906c3.347656 3.234375 8.667969 3.1875 11.960937-.101563 3.292969-3.292968 3.339844-8.613281.105469-11.960937zm0 0"/><path d="m217.695312 328.367188c3.453126 0 6.5625-2.078126 7.882813-5.265626s.589844-6.859374-1.847656-9.300781l-24.132813-24.128906c-2.140625-2.21875-5.316406-3.109375-8.296875-2.328125-2.984375.78125-5.316406 3.109375-6.097656 6.09375s.109375 6.15625 2.328125 8.296875l24.132812 24.132813c1.597657 1.605468 3.769532 2.507812 6.03125 2.5zm0 0"/><path d="m199.597656 422.390625c-2.441406 2.4375-3.171875 6.109375-1.851562 9.296875 1.320312 3.191406 4.433594 5.269531 7.886718 5.269531 3.449219 0 6.5625-2.078125 7.882813-5.269531 1.320313-3.1875.589844-6.859375-1.851563-9.296875-3.332031-3.332031-8.734374-3.332031-12.066406 0zm0 0"/><path d="m211.664062 386.214844c-2.441406 2.441406-3.171874 6.113281-1.851562 9.300781s4.433594 5.269531 7.882812 5.269531c3.453126 0 6.566407-2.082031 7.886719-5.269531 1.320313-3.1875.589844-6.859375-1.851562-9.300781-3.332031-3.328125-8.734375-3.328125-12.066407 0zm0 0"/><path d="m223.730469 350.007812c-2.441407 2.441407-3.171875 6.113282-1.851563 9.300782 1.320313 3.1875 4.433594 5.269531 7.882813 5.269531 3.453125 0 6.566406-2.082031 7.886719-5.269531 1.320312-3.1875.589843-6.859375-1.851563-9.300782-3.332031-3.328124-8.734375-3.328124-12.066406 0zm0 0"/><path d="m504.964844 242.453125-30.167969-30.164063c-4.800781-4.800781-11.3125-7.5-18.101563-7.5-6.792968 0-13.304687 2.699219-18.105468 7.5l-39.140625 39.144532c-1.808594-5.65625-4.933594-10.800782-9.121094-15.011719-11.710937-13.210937-31.867187-14.554687-45.226563-3.011719-11.539062 13.359375-10.195312 33.511719 3.011719 45.226563 6.695313 6.851562 15.824219 10.78125 25.402344 10.929687 7.414063.125 14.566406-2.726562 19.855469-7.917968.609375-.679688 1.179687-1.390626 1.707031-2.132813.464844-.246094.910156-.53125 1.324219-.855469l54.296875-54.304687c1.601562-1.601563 3.773437-2.503907 6.039062-2.503907 2.261719 0 4.433594.902344 6.035157 2.503907l30.167968 30.164062c1.601563 1.601563 2.5 3.773438 2.5 6.039063s-.898437 4.4375-2.5 6.039062l-39.09375 39.089844c-1.84375-5.636719-4.988281-10.761719-9.179687-14.960938-6.011719-6.132812-13.976563-9.972656-22.519531-10.84375-8.394532-1.039062-16.796876 1.847657-22.777344 7.828126-5.980469 5.976562-8.871094 14.378906-7.832032 22.773437 2 17.511719 15.816407 31.328125 33.332032 33.328125 1.003906.09375 1.988281.136719 2.960937.136719 7.402344.121093 14.542969-2.75 19.804688-7.960938.605469-.691406 1.175781-1.410156 1.707031-2.160156.457031-.242187.894531-.527344 1.304688-.851563l54.304687-54.304687c4.808594-4.800781 7.507813-11.316406 7.507813-18.105469.003906-6.792968-2.695313-13.308594-7.496094-18.113281zm-144.820313 24.144531c-6.394531-5.160156-7.710937-14.382812-3.011719-21.121094 2.09375-1.984374 4.898438-3.046874 7.78125-2.945312 5.050782.1875 9.835938 2.328125 13.335938 5.972656 6.402344 5.152344 7.722656 14.382813 3.023438 21.121094-6.746094 4.703125-15.980469 3.378906-21.128907-3.027344zm66.269531 60.21875c-9.300781-1.257812-16.613281-8.570312-17.878906-17.871094-.460937-3.335937.605469-6.699218 2.902344-9.164062 2.101562-1.992188 4.914062-3.058594 7.808594-2.960938.445312 0 .902344 0 1.355468.058594 9.304688 1.25 16.621094 8.566406 17.871094 17.871094.582032 3.34375-.5 6.761719-2.898437 9.164062-2.398438 2.398438-5.816407 3.484376-9.160157 2.902344zm0 0"/><path d="m44.710938 159.460938c-5.636719 1.839843-10.761719 4.988281-14.953126 9.179687-6.132812 6.003906-9.972656 13.960937-10.851562 22.496094-.957031 8.382812 1.921875 16.75 7.832031 22.773437 5.265625 5.199219 12.40625 8.0625 19.804688 7.945313.992187 0 1.972656 0 2.96875-.136719 8.53125-.882812 16.480469-4.71875 22.480469-10.84375 6.125-6 9.960937-13.949219 10.84375-22.480469.960937-8.382812-1.917969-16.753906-7.832032-22.773437-.683594-.609375-1.398437-1.179688-2.144531-1.707032-.238281-.464843-.523437-.90625-.851563-1.3125l-53.300781-53.285156c-.9375-.9375-1.347656-2.277344-1.097656-3.578125.25-1.304687 1.128906-2.398437 2.34375-2.921875l25.226563-10.8125c2.875-1.148437 4.902343-3.769531 5.296874-6.84375.394532-3.070312-.910156-6.117187-3.40625-7.953125-2.496093-1.835937-5.789062-2.175781-8.609374-.886719l-25.195313 10.8125c-6.425781 2.75-11.066406 8.511719-12.390625 15.375-1.320312 6.863282.851562 13.933594 5.792969 18.875zm21.125 27.40625c-1.246094 9.304687-8.5625 16.625-17.867188 17.878906-3.339844.472656-6.710938-.597656-9.164062-2.910156-2.296876-2.457032-3.363282-5.824219-2.902344-9.15625 1.265625-9.316407 8.601562-16.636719 17.921875-17.878907.460937-.039062.910156-.058593 1.355469-.058593 2.890624-.097657 5.699218.96875 7.800781 2.960937 2.28125 2.472656 3.328125 5.835937 2.855469 9.164063zm0 0"/><path d="m200.828125 21.066406c-.023437-1.335937.644531-2.585937 1.765625-3.3125 1.09375-.753906 2.492188-.902344 3.71875-.398437l25.480469 10.1875c2.832031 1.132812 6.050781.667969 8.449219-1.214844 2.394531-1.886719 3.601562-4.90625 3.167968-7.925781-.433594-3.015625-2.445312-5.574219-5.277344-6.707032l-25.488281-10.1875c-6.488281-2.597656-13.84375-1.804687-19.632812 2.113282-5.789063 3.917968-9.253907 10.457031-9.25 17.445312v53.914063c-5.28125-2.722657-11.128907-4.148438-17.070313-4.15625-17.636718-1.078125-32.859375 12.238281-34.132812 29.867187 1.277344 17.625 16.496094 30.941406 34.132812 29.867188 17.640625 1.078125 32.863282-12.242188 34.136719-29.867188-.054687-.910156-.160156-1.816406-.308594-2.714844.148438-.507812.253907-1.027343.308594-1.550781zm-34.136719 92.425782c-9.25 0-17.066406-5.863282-17.066406-12.800782s7.816406-12.800781 17.066406-12.800781c9.253906 0 17.070313 5.863281 17.070313 12.800781s-7.816407 12.789063-17.070313 12.789063zm0 0"/><path d="m171.128906 153.589844v25.597656c0 4.714844 3.820313 8.535156 8.535156 8.535156 4.710938 0 8.535157-3.820312 8.535157-8.535156v-25.597656c0-4.714844-3.824219-8.535156-8.535157-8.535156-4.714843 0-8.535156 3.820312-8.535156 8.535156zm0 0"/><path d="m122.429688 159.835938c-3.328126 3.332031-3.328126 8.734374 0 12.066406l18.101562 18.105468c2.140625 2.21875 5.3125 3.109376 8.296875 2.328126s5.3125-3.109376 6.09375-6.09375c.78125-2.984376-.105469-6.15625-2.324219-8.300782l-18.101562-18.105468c-3.332032-3.332032-8.734375-3.332032-12.066406 0zm0 0"/><path d="m102.863281 213.320312c0 4.714844 3.820313 8.535157 8.535157 8.535157h25.597656c4.714844 0 8.535156-3.820313 8.535156-8.535157 0-4.710937-3.820312-8.53125-8.535156-8.53125h-25.597656c-4.714844 0-8.535157 3.820313-8.535157 8.53125zm0 0"/><path d="m367.398438 332.789062c0-4.714843-3.820313-8.535156-8.535157-8.535156h-25.597656c-4.714844 0-8.535156 3.820313-8.535156 8.535156 0 4.710938 3.820312 8.53125 8.535156 8.53125h25.597656c4.714844 0 8.535157-3.820312 8.535157-8.53125zm0 0"/><path d="m322.445312 359.855469c-3.332031 3.332031-3.332031 8.734375 0 12.066406l18.105469 18.101563c3.347657 3.230468 8.671875 3.1875 11.960938-.105469 3.292969-3.292969 3.339843-8.613281.105469-11.960938l-18.105469-18.101562c-3.335938-3.332031-8.734375-3.332031-12.066407 0zm0 0"/><path d="m290.597656 375.457031v25.597657c0 4.714843 3.820313 8.535156 8.53125 8.535156 4.714844 0 8.535156-3.820313 8.535156-8.535156v-25.597657c0-4.714843-3.820312-8.535156-8.535156-8.535156-4.710937 0-8.53125 3.820313-8.53125 8.535156zm0 0"/><path d="m459.308594 500.28125c-1.753906 4.375.375 9.34375 4.75 11.097656s9.34375-.375 11.097656-4.75l10.1875-25.488281c2.597656-6.488281 1.804688-13.84375-2.113281-19.632813-3.917969-5.789062-10.453125-9.253906-17.445313-9.253906h-53.914062c2.722656-5.277344 4.148437-11.125 4.15625-17.066406 1.082031-17.636719-12.238282-32.859375-29.867188-34.132812-17.089844 2.300781-29.847656 16.886718-29.847656 34.132812 0 17.25 12.757812 31.835938 29.847656 34.132812.910156-.054687 1.816406-.160156 2.714844-.3125.507812.15625 1.03125.261719 1.5625.3125h75.347656c1.328125 0 2.566406.65625 3.3125 1.753907.742188 1.097656.894532 2.496093.402344 3.726562zm-85.9375-65.09375c0-9.25 5.863281-17.066406 12.800781-17.066406s12.796875 7.816406 12.796875 17.066406-5.851562 17.066406-12.796875 17.066406c-6.949219 0-12.800781-7.816406-12.800781-17.066406zm0 0"/></svg>