<svg height="511pt" viewBox="1 -59 511.99997 511" width="511pt" xmlns="http://www.w3.org/2000/svg"><path d="m358.398438 47.433594c0-25.921875-21.011719-46.933594-46.933594-46.933594-25.917969 0-46.933594 21.011719-46.933594 46.933594v29.867187h17.070312v-29.867187c0-16.496094 13.371094-29.867188 29.863282-29.867188 16.496094 0 29.867187 13.371094 29.867187 29.867188v55.464844h-170.664062v-55.464844c0-25.921875-21.015625-46.933594-46.933594-46.933594-25.921875 0-46.933594 21.011719-46.933594 46.933594v29.867187h17.066407v-29.867187c0-16.496094 13.371093-29.867188 29.867187-29.867188 16.492187 0 29.863281 13.371094 29.863281 29.867188v209.066406h-153.597656v17.066406h153.601562v35.175782c-9.9375 1.355468-19.636718 4.078124-28.828124 8.097656-12.390626 5.554687-25.867188 8.261718-39.441407 7.925781-13.582031.34375-27.074219-2.367187-39.472656-7.925781-14.425781-6.398438-30.085937-9.519532-45.859375-9.140625v17.066406c13.585938-.339844 27.074219 2.367187 39.476562 7.929687 14.421876 6.394532 30.082032 9.515626 45.855469 9.136719 15.761719.371094 31.410157-2.746093 45.824219-9.136719 12.390625-5.554687 25.867188-8.261718 39.441406-7.929687 13.59375-.339844 27.09375 2.367187 39.5 7.929687 14.421875 6.390626 30.074219 9.511719 45.84375 9.136719 15.761719.375 31.414063-2.746093 45.832032-9.136719 12.402343-5.5625 25.894531-8.269531 39.484374-7.929687 13.597657-.339844 27.101563 2.367187 39.515626 7.929687 14.4375 6.394532 30.109374 9.515626 45.894531 9.136719 15.769531.371094 31.425781-2.75 45.847656-9.136719 12.40625-5.558593 25.894531-8.265624 39.484375-7.929687v-17.066406c-15.773438-.371094-31.433594 2.75-45.859375 9.140625-12.402344 5.554687-25.890625 8.261718-39.472656 7.925781-13.601563.34375-27.109375-2.367187-39.527344-7.925781-9.164063-3.996094-18.835937-6.710938-28.742187-8.074219v-35.199219h153.601562v-17.066406h-153.601562zm-17.066407 260.265625h-.074219c-15.761718-.371094-31.414062 2.75-45.824218 9.140625-12.40625 5.558594-25.902344 8.265625-39.492188 7.925781-13.59375.339844-27.09375-2.367187-39.503906-7.925781-14.394531-6.382813-30.027344-9.503906-45.769531-9.140625v-34.132813h170.664062zm0-51.199219h-170.664062v-34.132812h170.664062zm0-51.199219h-170.664062v-34.132812h170.664062zm0-51.199219h-170.664062v-34.136718h170.664062zm0 0"/><path d="m426.667969 375.964844c-13.605469.34375-27.109375-2.367188-39.527344-7.925782-14.433594-6.398437-30.101563-9.519531-45.882813-9.140624-15.761718-.371094-31.414062 2.75-45.824218 9.140624-12.40625 5.558594-25.902344 8.269532-39.492188 7.925782-13.59375.34375-27.09375-2.367188-39.503906-7.925782-14.417969-6.390624-30.070312-9.511718-45.839844-9.140624-15.761718-.371094-31.410156 2.75-45.824218 9.140624-12.390626 5.554688-25.867188 8.261719-39.441407 7.925782-13.585937.34375-27.074219-2.367188-39.472656-7.925782-14.425781-6.394531-30.085937-9.515624-45.859375-9.140624v17.066406c13.585938-.339844 27.074219 2.371094 39.476562 7.929687 14.421876 6.394531 30.082032 9.515625 45.855469 9.140625 15.761719.371094 31.410157-2.75 45.824219-9.140625 12.390625-5.554687 25.867188-8.261719 39.441406-7.929687 13.59375-.339844 27.09375 2.367187 39.5 7.929687 14.421875 6.390625 30.074219 9.511719 45.84375 9.140625 15.761719.371094 31.414063-2.75 45.832032-9.140625 12.402343-5.5625 25.894531-8.269531 39.484374-7.929687 13.597657-.339844 27.101563 2.371094 39.515626 7.929687 14.4375 6.394531 30.109374 9.515625 45.894531 9.140625 15.769531.371094 31.425781-2.75 45.847656-9.140625 12.40625-5.554687 25.894531-8.265625 39.484375-7.929687v-17.066406c-15.773438-.371094-31.433594 2.75-45.859375 9.140624-12.402344 5.554688-25.890625 8.265626-39.472656 7.925782zm0 0"/></svg>