<?xml version="1.0" encoding="utf-8"?>
<!-- Generator: Adobe Illustrator 22.0.1, SVG Export Plug-In . SVG Version: 6.00 Build 0)  -->
<svg version="1.1" id="Camada_1" xmlns="http://www.w3.org/2000/svg" xmlns:xlink="http://www.w3.org/1999/xlink" x="0px" y="0px"
	 viewBox="0 0 511 511" style="enable-background:new 0 0 511 511;" xml:space="preserve">
<style type="text/css">
	.st0{fill:#FFFFFF;}
</style>
<path class="st0" d="M356.7,106.7c0-25.9-21-46.8-46.8-46.8c-25.9,0-46.8,21-46.8,46.8v29.8h17v-29.8c0-16.5,13.3-29.8,29.8-29.8
	c16.5,0,29.8,13.3,29.8,29.8v55.4H169.3v-55.4c0-25.9-21-46.8-46.8-46.8c-25.9,0-46.8,21-46.8,46.8v29.8h17v-29.8
	c0-16.5,13.3-29.8,29.8-29.8c16.5,0,29.8,13.3,29.8,29.8v208.7H-1v17h153.3v35.1c-9.9,1.4-19.6,4.1-28.8,8.1
	c-12.4,5.5-25.8,8.2-39.4,7.9c-13.6,0.3-27-2.4-39.4-7.9c-14.4-6.4-30-9.5-45.8-9.1v17c13.6-0.3,27,2.4,39.4,7.9
	c14.4,6.4,30,9.5,45.8,9.1c15.7,0.4,31.3-2.7,45.7-9.1c12.4-5.5,25.8-8.2,39.4-7.9c13.6-0.3,27,2.4,39.4,7.9
	c14.4,6.4,30,9.5,45.8,9.1c15.7,0.4,31.4-2.7,45.7-9.1c12.4-5.6,25.8-8.3,39.4-7.9c13.6-0.3,27,2.4,39.4,7.9
	c14.4,6.4,30.1,9.5,45.8,9.1c15.7,0.4,31.4-2.7,45.8-9.1c12.4-5.5,25.8-8.2,39.4-7.9v-17c-15.7-0.4-31.4,2.7-45.8,9.1
	c-12.4,5.5-25.8,8.2-39.4,7.9c-13.6,0.3-27.1-2.4-39.5-7.9c-9.1-4-18.8-6.7-28.7-8.1v-35.1H510v-17H356.7V106.7z M339.7,366.5
	L339.7,366.5c-15.8-0.4-31.4,2.7-45.8,9.1c-12.4,5.5-25.9,8.2-39.4,7.9c-13.6,0.3-27-2.4-39.4-7.9c-14.4-6.4-30-9.5-45.7-9.1v-34.1
	h170.3V366.5z M339.7,315.4H169.3v-34.1h170.3V315.4z M339.7,264.3H169.3v-34.1h170.3V264.3z M339.7,213.2H169.3v-34.1h170.3V213.2z
	"/>
<path class="st0" d="M424.8,434.6c-13.6,0.3-27.1-2.4-39.5-7.9c-14.4-6.4-30-9.5-45.8-9.1c-15.7-0.4-31.4,2.7-45.7,9.1
	c-12.4,5.5-25.9,8.3-39.4,7.9c-13.6,0.3-27-2.4-39.4-7.9c-14.4-6.4-30-9.5-45.8-9.1c-15.7-0.4-31.3,2.7-45.7,9.1
	c-12.4,5.5-25.8,8.2-39.4,7.9c-13.6,0.3-27-2.4-39.4-7.9c-14.4-6.4-30-9.5-45.8-9.1v17c13.6-0.3,27,2.4,39.4,7.9
	c14.4,6.4,30,9.5,45.8,9.1c15.7,0.4,31.3-2.7,45.7-9.1c12.4-5.5,25.8-8.2,39.4-7.9c13.6-0.3,27,2.4,39.4,7.9
	c14.4,6.4,30,9.5,45.8,9.1c15.7,0.4,31.4-2.7,45.7-9.1c12.4-5.6,25.8-8.3,39.4-7.9c13.6-0.3,27,2.4,39.4,7.9
	c14.4,6.4,30.1,9.5,45.8,9.1c15.7,0.4,31.4-2.7,45.8-9.1c12.4-5.5,25.8-8.2,39.4-7.9v-17c-15.7-0.4-31.4,2.7-45.8,9.1
	C451.9,432.2,438.4,435,424.8,434.6z"/>
</svg>
