<?xml version="1.0" encoding="utf-8"?>
<!-- Generator: Adobe Illustrator 22.0.1, SVG Export Plug-In . SVG Version: 6.00 Build 0)  -->
<svg version="1.1" id="Capa_1" xmlns="http://www.w3.org/2000/svg" xmlns:xlink="http://www.w3.org/1999/xlink" x="0px" y="0px"
	 viewBox="0 0 512 512" style="enable-background:new 0 0 512 512;" xml:space="preserve">
<style type="text/css">
	.st0{fill:#FFFFFF;}
</style>
<g>
	<g>
		<path class="st0" d="M405.7,303.1L273.2,75.7c-0.1-0.1-0.2-0.3-0.3-0.4l16.3-49c2-6.1,1-12.8-2.8-18S276.6,0,270.2,0H169.9
			c-6.4,0-12.5,3.1-16.2,8.3s-4.8,11.9-2.8,18l18.7,56.3l-64.5,312.2c-0.7,3.3,0.3,6.7,2.7,9.1L213,509.1c1.9,1.9,4.4,2.9,7.1,2.9
			s5.2-1.1,7.1-2.9l105.1-105.2c2.4-2.4,3.4-5.8,2.7-9.1l-55.5-268.6L386,309l-39.7,102.7c-2,5.2,0.6,10.9,5.7,12.9
			c1.2,0.5,2.4,0.7,3.6,0.7c4,0,7.8-2.4,9.3-6.4l41.4-107.2C407.5,308.9,407.3,305.7,405.7,303.1z M270.2,20l-17.3,52h-65.7
			l-17.3-52H270.2z M248.2,92l-75.8,75.8L188.1,92H248.2z M165.1,203.2c0.4-0.3,0.8-0.6,1.1-1l89.9-89.9l7.8,37.5L153.3,260.5
			L165.1,203.2z M314.3,393.6l-94.3,94.3l-22.6-22.6l109.1-109.1L314.3,393.6z M289.2,271.8c-0.4,0.3-0.7,0.6-1,0.9l-88.5,88.5
			c-3.9,3.9-3.9,10.2,0,14.1c2,2,4.5,2.9,7.1,2.9s5.1-1,7.1-2.9l80.2-80.2l7.8,37.5L183.3,451.1l-57.5-57.5l1-4.8L230.6,285
			c3.9-3.9,3.9-10.2,0-14.1c-3.9-3.9-10.2-3.9-14.1,0l-82.3,82.3l11.8-57.1c0.1-0.1,0.3-0.3,0.4-0.4l122.4-122.4L289.2,271.8z"/>
	</g>
</g>
<g>
	<g>
		<path class="st0" d="M189.2,385.8c-1.9-1.9-4.4-2.9-7.1-2.9s-5.2,1.1-7.1,2.9s-2.9,4.4-2.9,7.1s1.1,5.2,2.9,7.1
			c1.9,1.9,4.4,2.9,7.1,2.9s5.2-1.1,7.1-2.9s2.9-4.4,2.9-7.1S191.1,387.6,189.2,385.8z"/>
	</g>
</g>
<g>
	<g>
		<path class="st0" d="M257.3,244.1c-1.9-1.9-4.4-2.9-7.1-2.9c-2.6,0-5.2,1.1-7.1,2.9c-1.9,1.9-2.9,4.4-2.9,7.1s1.1,5.2,2.9,7.1
			c1.9,1.9,4.4,2.9,7.1,2.9c2.6,0,5.2-1.1,7.1-2.9c1.9-1.9,2.9-4.4,2.9-7.1S259.2,246,257.3,244.1z"/>
	</g>
</g>
</svg>
