<?xml version="1.0" encoding="iso-8859-1"?>
<!-- Generator: Adobe Illustrator 19.0.0, SVG Export Plug-In . SVG Version: 6.00 Build 0)  -->
<svg version="1.1" id="Capa_1" xmlns="http://www.w3.org/2000/svg" xmlns:xlink="http://www.w3.org/1999/xlink" x="0px" y="0px"
	 viewBox="0 0 511.999 511.999" style="enable-background:new 0 0 511.999 511.999;" xml:space="preserve">
<g>
	<g>
		<path d="M379.847,420.942c-3.094-4.577-9.313-5.777-13.885-2.685l-0.263,0.178c-4.596,3.064-5.837,9.272-2.773,13.867
			c1.927,2.891,5.098,4.454,8.329,4.454c1.906,0,3.834-0.544,5.538-1.681l0.368-0.248
			C381.737,431.734,382.939,425.517,379.847,420.942z"/>
	</g>
</g>
<g>
	<g>
		<path d="M149.011,79.597c-3.114-4.563-9.335-5.737-13.896-2.625l-0.279,0.188c-4.576,3.093-5.778,9.31-2.686,13.885
			c1.933,2.86,5.085,4.401,8.294,4.401c1.927,0,3.875-0.556,5.591-1.716l0.351-0.237C150.949,90.38,152.123,84.159,149.011,79.597z"
			/>
	</g>
</g>
<g>
	<g>
		<path d="M511.999,256c0-68.38-26.629-132.667-74.98-181.019C388.667,26.629,324.38,0,256,0
			c-54.254,0-106.16,16.815-150.107,48.627c-4.475,3.238-5.476,9.491-2.237,13.964c3.239,4.474,9.491,5.475,13.964,2.237
			C158.134,35.502,205.984,20,256,20c130.13,0,235.999,105.869,235.999,236c0,59.693-22.024,115.994-62.209,159.649l-14.164-14.165
			c24.595-26.977,41.972-59.748,50.473-95.371c13.393-56.12,4.128-114.096-26.086-163.248
			C409.8,93.714,362.254,59.269,306.134,45.878c-48.838-11.652-100.543-5.853-145.584,16.334c-4.954,2.441-6.992,8.436-4.552,13.39
			c2.44,4.955,8.437,6.994,13.39,4.552c40.87-20.133,87.785-25.398,132.103-14.822c105.123,25.085,170.239,131.017,145.154,236.14
			c-7.642,32.022-23.207,61.491-45.194,85.838l-19.375-19.375c7.258-13.146,7.91-28.056,0.265-39.321
			c-6.372-9.389-17.435-14.773-30.352-14.773c-6.601,0-13.408,1.423-19.912,4.095l-10.683-10.683c2.4,0.35,4.877,0.529,7.42,0.529
			c1.437,0,2.896-0.057,4.371-0.17c14.113-1.089,28.406-7.404,40.243-17.781c11.838-10.377,19.97-23.72,22.898-37.569
			c3.151-14.907,0.02-28.669-8.818-38.751c-0.987-1.126-2.055-2.209-3.173-3.218c-4.098-3.7-10.422-3.377-14.124,0.723
			c-3.7,4.1-3.376,10.423,0.724,14.124c0.542,0.489,1.059,1.013,1.534,1.556c4.583,5.227,6.106,12.838,4.29,21.43
			c-2.04,9.65-7.905,19.12-16.514,26.667c-16.672,14.614-39.24,17.278-49.284,5.821c-4.582-5.227-6.105-12.837-4.289-21.429
			c2.04-9.649,7.905-19.12,16.515-26.667c0.655-0.575,1.345-1.151,2.047-1.712c4.315-3.447,5.021-9.739,1.574-14.055
			c-3.447-4.315-9.737-5.021-14.055-1.574c-0.94,0.751-1.866,1.526-2.751,2.302c-11.838,10.377-19.97,23.719-22.897,37.569
			c-1.257,5.946-1.498,11.704-0.793,17.125l-12.298-12.298c-0.052-0.367-0.102-0.727-0.15-1.072
			c-0.919-6.564-1.584-11.307-5.471-15.195c-3.887-3.885-8.63-4.55-15.194-5.47c-0.346-0.048-0.705-0.099-1.072-0.151
			l-12.314-12.315c2.009,0.264,4.067,0.401,6.17,0.401c17.181,0,35.327-8.999,48.541-24.073
			c10.377-11.837,16.692-26.13,17.782-40.244c1.173-15.192-3.733-28.425-13.815-37.263c-7.458-6.538-17.064-9.993-27.778-9.993
			c-17.181,0-35.327,8.999-48.541,24.073c-10.377,11.837-16.692,26.13-17.782,40.244c-0.316,4.096-0.176,8.042,0.374,11.806
			l-10.694-10.695c2.965-7.204,4.382-14.753,4.043-22.039c-0.556-11.966-5.923-22.255-14.726-28.228
			c-5.343-3.626-11.744-5.543-18.513-5.543c-7.048,0-14.207,2.063-20.847,5.768L51.639,37.497c-3.906-3.905-10.236-3.905-14.143,0
			c-3.905,3.905-3.905,10.237,0,14.142L68.059,82.2c-20.594,22.245-36.921,47.704-48.572,75.833C6.557,189.25,0,222.211,0,256
			c0,68.38,26.629,132.667,74.98,181.019c48.352,48.352,112.639,74.98,181.018,74.98c54.254,0,106.16-16.814,150.107-48.626
			c4.474-3.238,5.476-9.49,2.237-13.964s-9.491-5.476-13.964-2.237c-40.515,29.326-88.366,44.827-138.381,44.827
			C125.869,491.999,20,386.13,20,256c0-59.692,22.024-115.993,62.208-159.65l14.158,14.159
			c-24.592,26.977-41.969,59.746-50.468,95.365c-13.392,56.12-4.127,114.096,26.086,163.248
			c30.214,49.152,77.76,83.597,133.88,96.989c16.476,3.931,33.271,5.876,50.033,5.876c32.925-0.001,65.702-7.508,95.551-22.21
			c4.954-2.44,6.992-8.435,4.552-13.39c-2.44-4.953-8.434-6.994-13.39-4.552c-40.871,20.133-87.788,25.397-132.104,14.822
			C105.384,421.572,40.268,315.64,65.352,210.517c7.641-32.018,23.204-61.486,45.189-85.833l18.049,18.048
			c-1.33,1.579-2.596,3.238-3.779,4.981c-6.88,10.138-10.387,21.813-9.873,32.874c0.556,11.966,5.923,22.254,14.725,28.227
			c5.344,3.627,11.745,5.544,18.514,5.544c12.471,0,25.296-6.411,34.94-17.1l32.695,32.696c-1.912-0.56-3.901-1.159-5.977-1.802
			c-11.509-3.567-22.405-5.376-32.387-5.376c-19.42,0-35.96,6.694-49.162,19.895c-10.08,10.08-15.224,25.434-13.426,40.071
			c1.833,14.918,10.571,27.775,24.604,36.204c7.936,4.767,14.27,5.985,19.358,6.964c6.163,1.186,10.234,1.969,17.897,9.366
			l0.029,0.03c7.371,7.636,8.154,11.708,9.34,17.87c0.979,5.089,2.198,11.422,6.965,19.358
			c9.527,15.864,24.862,24.962,42.071,24.962h0.001c12.785,0,25.571-5.152,34.202-13.782c20.158-20.159,25.043-47.595,14.519-81.549
			c-0.644-2.076-1.242-4.066-1.802-5.979l32.691,32.692c-16.811,15.211-22.153,37.838-11.553,53.458
			c6.371,9.389,17.434,14.774,30.351,14.774c0.001,0,0.001,0,0.001,0c10.402,0,21.323-3.524,30.751-9.922
			c1.751-1.189,3.404-2.459,4.976-3.785l53.609,53.609c0.002,0.002,0.003,0.004,0.005,0.006s0.004,0.003,0.006,0.005l37.479,37.478
			c1.953,1.953,4.512,2.929,7.071,2.929s5.118-0.977,7.071-2.929c3.905-3.905,3.905-10.237,0-14.142l-30.563-30.563
			c20.594-22.244,36.921-47.704,48.572-75.832C505.442,322.75,511.999,289.789,511.999,256z M148.176,194.359
			c-2.787,0-5.236-0.704-7.282-2.092c-4.844-3.288-5.824-9.309-5.978-12.606c-0.31-6.675,2.039-14.225,6.443-20.715
			c0.465-0.684,0.953-1.344,1.452-1.991l26.144,26.144C163.016,190.041,155.205,194.359,148.176,194.359z M177.898,163.757
			l-18.746-18.747c1.929-0.576,3.852-0.895,5.72-0.895c2.787,0,5.237,0.704,7.282,2.092c4.844,3.288,5.824,9.309,5.977,12.607
			C178.205,160.42,178.122,162.077,177.898,163.757z M224.328,180.354c0.76-9.833,5.334-19.99,12.881-28.599
			c9.473-10.806,21.997-17.257,33.502-17.257c4.039,0,9.85,0.874,14.595,5.033c5.228,4.583,7.734,11.928,7.059,20.684
			c-0.76,9.833-5.334,19.99-12.881,28.599c-9.473,10.806-21.997,17.257-33.502,17.257c-4.039,0-9.85-0.873-14.595-5.033
			C226.159,196.455,223.652,189.11,224.328,180.354z M255.185,369.572c-4.889,4.888-12.575,7.925-20.06,7.925
			c-7.19,0-17.353-2.648-24.928-15.261c-2.941-4.897-3.615-8.401-4.47-12.838c-1.449-7.532-3.092-16.069-14.527-27.916l-0.089-0.093
			c-0.079-0.083-0.229-0.234-0.311-0.315c-0.051-0.05-0.102-0.1-0.153-0.15l-0.065-0.063c-11.913-11.498-20.449-13.14-27.981-14.589
			c-4.438-0.853-7.941-1.528-12.84-4.47c-11.074-6.651-14.297-15.362-15.051-21.498c-1.049-8.533,1.98-17.752,7.717-23.489
			c9.446-9.446,20.901-14.038,35.02-14.038c7.972,0,16.876,1.507,26.465,4.479c18.04,5.593,30.248,8.114,38.717,9.516l12.599,12.599
			c1.401,8.468,3.922,20.677,9.515,38.717C273.011,334.761,269.885,354.873,255.185,369.572z M353.055,370.641
			c-6.148,4.173-13.081,6.471-19.52,6.471c-3.633,0-10.257-0.781-13.803-6.005c-5.015-7.39-0.804-19.531,9.166-28.065l26.15,26.15
			C354.403,369.69,353.741,370.175,353.055,370.641z M367.012,352.87l-18.756-18.755c1.256-0.165,2.505-0.274,3.733-0.274
			c3.633,0,10.257,0.78,13.803,6.004C368.203,343.398,368.478,348.049,367.012,352.87z"/>
	</g>
</g>
<g>
	<g>
		<path d="M355.407,208.571c-1.01-5.431-6.234-9.013-11.659-8.005c-0.229,0.043-0.46,0.088-0.69,0.135
			c-5.414,1.095-8.915,6.37-7.82,11.784c0.958,4.744,5.13,8.019,9.79,8.019c0.657,0,1.324-0.065,1.992-0.2l0.382-0.074
			C352.832,219.221,356.416,214.001,355.407,208.571z"/>
	</g>
</g>
<g>
</g>
<g>
</g>
<g>
</g>
<g>
</g>
<g>
</g>
<g>
</g>
<g>
</g>
<g>
</g>
<g>
</g>
<g>
</g>
<g>
</g>
<g>
</g>
<g>
</g>
<g>
</g>
<g>
</g>
</svg>
