<?xml version="1.0" encoding="utf-8"?>
<!-- Generator: Adobe Illustrator 22.0.1, SVG Export Plug-In . SVG Version: 6.00 Build 0)  -->
<svg version="1.1" id="Capa_1" xmlns="http://www.w3.org/2000/svg" xmlns:xlink="http://www.w3.org/1999/xlink" x="0px" y="0px"
	 viewBox="0 0 512 512" style="enable-background:new 0 0 512 512;" xml:space="preserve">
<style type="text/css">
	.st0{fill:#FFFFFF;}
</style>
<g>
	<g>
		<path class="st0" d="M371.6,426.5l-5.7-8.2l-0.2,0.1c-4.6,3.1-5.8,9.3-2.7,13.9c1.9,2.9,5.1,4.4,8.3,4.4c1.9,0,3.9-0.5,5.6-1.7
			l0.3-0.2L371.6,426.5z"/>
	</g>
</g>
<g>
	<g>
		<path class="st0" d="M149.1,79.7c-3.1-4.6-9.3-5.8-13.9-2.7l-0.4,0.3c-4.6,3.1-5.7,9.3-2.6,13.9c1.9,2.8,5.1,4.4,8.3,4.4
			c1.9,0,3.9-0.6,5.6-1.7l0.3-0.2C150.9,90.5,152.1,84.2,149.1,79.7z"/>
	</g>
</g>
<g>
	<g>
		<path class="st0" d="M512,256c0-68.4-26.6-132.7-75-181C388.7,26.6,324.4,0,256,0c-54.3,0-106.2,16.8-150.1,48.6
			c-4.5,3.2-5.5,9.5-2.2,14s9.5,5.5,14,2.2C158.1,35.5,206,20,256,20c130.1,0,236,105.9,236,236c0,59.7-22,116-62.2,159.6
			l-14.2-14.2c24.6-27,42-59.7,50.5-95.4C479.5,250,470.2,192,440,142.9c-30.2-49.2-77.8-83.6-133.9-97
			C257.3,34.2,205.6,40,160.6,62.2c-5,2.4-7,8.4-4.6,13.4c2.4,5,8.4,7,13.4,4.6c40.9-20.1,87.8-25.4,132.1-14.8
			c50.9,12.2,94.1,43.4,121.5,88s35.8,97.2,23.7,148.1c-7.6,32-23.2,61.5-45.2,85.8L297.6,283.5c32.2-11.1,55.5-41.7,55.5-77.7
			v-72.1c0-5.5-4.5-10-10-10s-10,4.5-10,10v31.2H179l-0.1-0.1c0-7.9,0-15.4,0-21.1h93.7c5.5,0,10-4.5,10-10s-4.5-10-10-10H168.9
			c-5.5,0-10,4.5-10,10c0,0.2,0,4.5,0,11.1L51.6,37.5c-3.9-3.9-10.2-3.9-14.1,0c-3.9,3.9-3.9,10.2,0,14.1l30.6,30.6
			c-20.6,22.2-36.9,47.7-48.6,75.8C6.6,189.3,0,222.2,0,256c0,68.4,26.6,132.7,75,181c48.4,48.4,112.6,75,181,75
			c54.3,0,106.2-16.8,150.1-48.6c4.5-3.2,5.5-9.5,2.2-14c-3.2-4.5-9.5-5.5-14-2.2C353.9,476.5,306,492,256,492
			C125.9,492,20,386.1,20,256c0-59.7,22-116,62.2-159.6l14.2,14.2c-24.6,27-42,59.7-50.5,95.4C32.5,262,41.8,320,72,369.1
			c30.2,49.2,77.8,83.6,133.9,97c16.5,3.9,33.3,5.9,50,5.9c32.9,0,65.7-7.5,95.5-22.2c5-2.4,7-8.4,4.6-13.4c-2.4-5-8.4-7-13.4-4.6
			c-40.9,20.1-87.8,25.4-132.1,14.8c-50.9-12.2-94.1-43.4-121.5-88C61.6,314,53.2,261.4,65.4,210.5c7.6-32,23.2-61.5,45.2-85.8
			l48.3,48.3c0,17.7,0,34.8,0,35.3c0.6,21.3,9.5,41.3,24.9,56.3c13,12.7,29.5,20.5,47.2,22.7v81l-22,0c0,0,0,0,0,0
			c-5.5,0-10,4.5-10,10c0,5.5,4.5,10,10,10l93.5,0c0,0,0,0,0,0c5.5,0,10-4.5,10-10c0-5.5-4.5-10-10-10l-22.1,0v-73.8L422.9,437
			l37.5,37.5c2,2,4.5,2.9,7.1,2.9s5.1-1,7.1-2.9c3.9-3.9,3.9-10.2,0-14.1l-30.6-30.6c20.6-22.2,36.9-47.7,48.6-75.8
			C505.4,322.8,512,289.8,512,256z M260.4,277.9v90.3H251v-90.3c0-5.5-4.5-10-10-10c-33.2,0-61.1-27-62.1-60.1c0-0.9,0-6.7,0-14.8
			l81.9,81.9C260.5,275.9,260.4,276.9,260.4,277.9z M199,184.9h134.1v20.9c0,30.8-22.5,56.4-51.9,61.3L199,184.9z"/>
	</g>
</g>
<g>
	<g>
		<path class="st0" d="M302.2,123.7h-0.5c-5.5,0-10,4.5-10,10s4.5,10,10,10h0.5c5.5,0,10-4.5,10-10S307.7,123.7,302.2,123.7z"/>
	</g>
</g>
</svg>
