<?xml version="1.0" encoding="utf-8"?>
<!-- Generator: Adobe Illustrator 22.0.1, SVG Export Plug-In . SVG Version: 6.00 Build 0)  -->
<svg version="1.1" id="Capa_1" xmlns="http://www.w3.org/2000/svg" xmlns:xlink="http://www.w3.org/1999/xlink" x="0px" y="0px"
	 viewBox="0 0 512 512" style="enable-background:new 0 0 512 512;" xml:space="preserve">
<style type="text/css">
	.st0{fill:#FFFFFF;}
</style>
<g>
	<g>
		<path class="st0" d="M379.8,420.9c-3.1-4.6-9.3-5.8-13.9-2.7l-0.3,0.2c-4.6,3.1-5.8,9.3-2.8,13.9c1.9,2.9,5.1,4.5,8.3,4.5
			c1.9,0,3.8-0.5,5.5-1.7l0.4-0.2C381.7,431.7,382.9,425.5,379.8,420.9z"/>
	</g>
</g>
<g>
	<g>
		<path class="st0" d="M149,79.6c-3.1-4.6-9.3-5.7-13.9-2.6l-0.3,0.2c-4.6,3.1-5.8,9.3-2.7,13.9c1.9,2.9,5.1,4.4,8.3,4.4
			c1.9,0,3.9-0.6,5.6-1.7l0.4-0.2C150.9,90.4,152.1,84.2,149,79.6z"/>
	</g>
</g>
<g>
	<g>
		<path class="st0" d="M512,256c0-68.4-26.6-132.7-75-181C388.7,26.6,324.4,0,256,0c-54.3,0-106.2,16.8-150.1,48.6
			c-4.5,3.2-5.5,9.5-2.2,14c3.2,4.5,9.5,5.5,14,2.2C158.1,35.5,206,20,256,20c130.1,0,236,105.9,236,236c0,59.7-22,116-62.2,159.6
			l-14.2-14.2c24.6-27,42-59.7,50.5-95.4C479.5,250,470.2,192,440,142.9c-30.2-49.2-77.8-83.6-133.9-97
			C257.3,34.2,205.6,40,160.6,62.2c-5,2.4-7,8.4-4.6,13.4c2.4,5,8.4,7,13.4,4.6c40.9-20.1,87.8-25.4,132.1-14.8
			c105.1,25.1,170.2,131,145.2,236.1c-7.6,32-23.2,61.5-45.2,85.8l-19.4-19.4c7.3-13.1,7.9-28.1,0.3-39.3
			c-6.4-9.4-17.4-14.8-30.4-14.8c-6.6,0-13.4,1.4-19.9,4.1l-10.7-10.7c2.4,0.4,4.9,0.5,7.4,0.5c1.4,0,2.9-0.1,4.4-0.2
			c14.1-1.1,28.4-7.4,40.2-17.8c11.8-10.4,20-23.7,22.9-37.6c3.2-14.9,0-28.7-8.8-38.8c-1-1.1-2.1-2.2-3.2-3.2
			c-4.1-3.7-10.4-3.4-14.1,0.7c-3.7,4.1-3.4,10.4,0.7,14.1c0.5,0.5,1.1,1,1.5,1.6c4.6,5.2,6.1,12.8,4.3,21.4
			c-2,9.6-7.9,19.1-16.5,26.7c-16.7,14.6-39.2,17.3-49.3,5.8c-4.6-5.2-6.1-12.8-4.3-21.4c2-9.6,7.9-19.1,16.5-26.7
			c0.7-0.6,1.3-1.2,2-1.7c4.3-3.4,5-9.7,1.6-14.1c-3.4-4.3-9.7-5-14.1-1.6c-0.9,0.8-1.9,1.5-2.8,2.3c-11.8,10.4-20,23.7-22.9,37.6
			c-1.3,5.9-1.5,11.7-0.8,17.1L274,259.9c-0.1-0.4-0.1-0.7-0.1-1.1c-0.9-6.6-1.6-11.3-5.5-15.2c-3.9-3.9-8.6-4.6-15.2-5.5
			c-0.3,0-0.7-0.1-1.1-0.2l-12.3-12.3c2,0.3,4.1,0.4,6.2,0.4c17.2,0,35.3-9,48.5-24.1c10.4-11.8,16.7-26.1,17.8-40.2
			c1.2-15.2-3.7-28.4-13.8-37.3c-7.5-6.5-17.1-10-27.8-10c-17.2,0-35.3,9-48.5,24.1c-10.4,11.8-16.7,26.1-17.8,40.2
			c-0.3,4.1-0.2,8,0.4,11.8l-10.7-10.7c3-7.2,4.4-14.8,4-22c-0.6-12-5.9-22.3-14.7-28.2c-5.3-3.6-11.7-5.5-18.5-5.5
			c-7,0-14.2,2.1-20.8,5.8L51.6,37.5c-3.9-3.9-10.2-3.9-14.1,0c-3.9,3.9-3.9,10.2,0,14.1l30.6,30.6c-20.6,22.2-36.9,47.7-48.6,75.8
			C6.6,189.3,0,222.2,0,256c0,68.4,26.6,132.7,75,181c48.4,48.4,112.6,75,181,75c54.3,0,106.2-16.8,150.1-48.6
			c4.5-3.2,5.5-9.5,2.2-14s-9.5-5.5-14-2.2C353.9,476.5,306,492,256,492C125.9,492,20,386.1,20,256c0-59.7,22-116,62.2-159.6
			l14.2,14.2c-24.6,27-42,59.7-50.5,95.4C32.5,262,41.8,320,72,369.1c30.2,49.2,77.8,83.6,133.9,97c16.5,3.9,33.3,5.9,50,5.9
			c32.9,0,65.7-7.5,95.6-22.2c5-2.4,7-8.4,4.6-13.4c-2.4-5-8.4-7-13.4-4.6c-40.9,20.1-87.8,25.4-132.1,14.8
			c-105.1-25.1-170.2-131-145.2-236.1c7.6-32,23.2-61.5,45.2-85.8l18,18c-1.3,1.6-2.6,3.2-3.8,5c-6.9,10.1-10.4,21.8-9.9,32.9
			c0.6,12,5.9,22.3,14.7,28.2c5.3,3.6,11.7,5.5,18.5,5.5c12.5,0,25.3-6.4,34.9-17.1l32.7,32.7c-1.9-0.6-3.9-1.2-6-1.8
			c-11.5-3.6-22.4-5.4-32.4-5.4c-19.4,0-36,6.7-49.2,19.9c-10.1,10.1-15.2,25.4-13.4,40.1c1.8,14.9,10.6,27.8,24.6,36.2
			c7.9,4.8,14.3,6,19.4,7c6.2,1.2,10.2,2,17.9,9.4l0,0c7.4,7.6,8.2,11.7,9.3,17.9c1,5.1,2.2,11.4,7,19.4c9.5,15.9,24.9,25,42.1,25h0
			c12.8,0,25.6-5.2,34.2-13.8c20.2-20.2,25-47.6,14.5-81.5c-0.6-2.1-1.2-4.1-1.8-6l32.7,32.7c-16.8,15.2-22.2,37.8-11.6,53.5
			c6.4,9.4,17.4,14.8,30.4,14.8c0,0,0,0,0,0c10.4,0,21.3-3.5,30.8-9.9c1.8-1.2,3.4-2.5,5-3.8l53.6,53.6c0,0,0,0,0,0s0,0,0,0
			l37.5,37.5c2,2,4.5,2.9,7.1,2.9s5.1-1,7.1-2.9c3.9-3.9,3.9-10.2,0-14.1l-30.6-30.6c20.6-22.2,36.9-47.7,48.6-75.8
			C505.4,322.8,512,289.8,512,256z M148.2,194.4c-2.8,0-5.2-0.7-7.3-2.1c-4.8-3.3-5.8-9.3-6-12.6c-0.3-6.7,2-14.2,6.4-20.7
			c0.5-0.7,1-1.3,1.5-2l26.1,26.1C163,190,155.2,194.4,148.2,194.4z M177.9,163.8L159.2,145c1.9-0.6,3.9-0.9,5.7-0.9
			c2.8,0,5.2,0.7,7.3,2.1c4.8,3.3,5.8,9.3,6,12.6C178.2,160.4,178.1,162.1,177.9,163.8z M224.3,180.4c0.8-9.8,5.3-20,12.9-28.6
			c9.5-10.8,22-17.3,33.5-17.3c4,0,9.9,0.9,14.6,5c5.2,4.6,7.7,11.9,7.1,20.7c-0.8,9.8-5.3,20-12.9,28.6
			c-9.5,10.8-22,17.3-33.5,17.3c-4,0-9.9-0.9-14.6-5C226.2,196.5,223.7,189.1,224.3,180.4z M255.2,369.6c-4.9,4.9-12.6,7.9-20.1,7.9
			c-7.2,0-17.4-2.6-24.9-15.3c-2.9-4.9-3.6-8.4-4.5-12.8c-1.4-7.5-3.1-16.1-14.5-27.9l-0.1-0.1c-0.1-0.1-0.2-0.2-0.3-0.3
			c-0.1,0-0.1-0.1-0.2-0.1l-0.1-0.1c-11.9-11.5-20.4-13.1-28-14.6c-4.4-0.9-7.9-1.5-12.8-4.5c-11.1-6.7-14.3-15.4-15.1-21.5
			c-1-8.5,2-17.8,7.7-23.5c9.4-9.4,20.9-14,35-14c8,0,16.9,1.5,26.5,4.5c18,5.6,30.2,8.1,38.7,9.5l12.6,12.6
			c1.4,8.5,3.9,20.7,9.5,38.7C273,334.8,269.9,354.9,255.2,369.6z M353.1,370.6c-6.1,4.2-13.1,6.5-19.5,6.5c-3.6,0-10.3-0.8-13.8-6
			c-5-7.4-0.8-19.5,9.2-28.1l26.1,26.1C354.4,369.7,353.7,370.2,353.1,370.6z M367,352.9l-18.8-18.8c1.3-0.2,2.5-0.3,3.7-0.3
			c3.6,0,10.3,0.8,13.8,6C368.2,343.4,368.5,348,367,352.9z"/>
	</g>
</g>
<g>
	<g>
		<path class="st0" d="M355.4,208.6c-1-5.4-6.2-9-11.7-8c-0.2,0-0.5,0.1-0.7,0.1c-5.4,1.1-8.9,6.4-7.8,11.8c1,4.7,5.1,8,9.8,8
			c0.7,0,1.3-0.1,2-0.2l0.4-0.1C352.8,219.2,356.4,214,355.4,208.6z"/>
	</g>
</g>
</svg>
