<?xml version="1.0" encoding="iso-8859-1"?>
<!-- Generator: Adobe Illustrator 19.0.0, SVG Export Plug-In . SVG Version: 6.00 Build 0)  -->
<svg version="1.1" id="Capa_1" xmlns="http://www.w3.org/2000/svg" xmlns:xlink="http://www.w3.org/1999/xlink" x="0px" y="0px"
	 viewBox="0 0 512 512" style="enable-background:new 0 0 512 512;" xml:space="preserve">
<g>
	<g>
		<path d="M371.561,426.542l-5.667-8.24l-0.221,0.15c-4.586,3.078-5.808,9.291-2.73,13.876c1.93,2.875,5.092,4.427,8.312,4.427
			c1.917,0,3.854-0.55,5.564-1.698l0.342-0.23L371.561,426.542z"/>
	</g>
</g>
<g>
	<g>
		<path d="M149.054,79.659c-3.078-4.586-9.29-5.808-13.876-2.729l-0.377,0.255c-4.563,3.113-5.737,9.334-2.625,13.896
			c1.936,2.838,5.075,4.366,8.269,4.366c1.941,0,3.903-0.564,5.627-1.74l0.253-0.171C150.91,90.458,152.132,84.245,149.054,79.659z"
			/>
	</g>
</g>
<g>
	<g>
		<path d="M512,256c0-68.38-26.629-132.667-74.98-181.02C388.667,26.629,324.38,0,256,0c-54.253,0-106.16,16.815-150.108,48.627
			c-4.474,3.238-5.475,9.49-2.237,13.964c3.238,4.474,9.491,5.475,13.964,2.237C158.134,35.502,205.985,20,256,20
			c130.131,0,236,105.869,236,236c0,59.692-22.025,115.993-62.209,159.648l-14.164-14.164c24.594-26.976,41.972-59.748,50.472-95.37
			c13.393-56.12,4.128-114.096-26.086-163.248c-30.213-49.152-77.76-83.597-133.879-96.988
			c-48.839-11.654-100.542-5.854-145.584,16.334c-4.955,2.44-6.992,8.436-4.552,13.39c2.441,4.955,8.435,6.991,13.39,4.552
			c40.872-20.133,87.787-25.397,132.104-14.822c50.924,12.151,94.067,43.406,121.483,88.007
			c27.416,44.601,35.822,97.209,23.671,148.132c-7.642,32.023-23.207,61.491-45.194,85.838L297.628,283.486
			c32.247-11.096,55.491-41.715,55.491-77.681v-72.143c0-5.523-4.478-10-10-10c-5.522,0-10,4.477-10,10v31.203H179.007l-0.12-0.12
			c-0.002-7.884-0.004-15.401-0.005-21.083h93.737c5.522,0,10-4.477,10-10s-4.478-10-10-10H168.881c-5.523,0-10,4.477-10,10
			c0,0.177,0,4.544,0.001,11.078L51.638,37.497c-3.905-3.905-10.236-3.905-14.142,0c-3.905,3.905-3.905,10.237,0,14.142L68.059,82.2
			c-20.594,22.244-36.92,47.704-48.572,75.832C6.556,189.25,0,222.211,0,256c0,68.38,26.628,132.667,74.98,181.02
			C123.332,485.371,187.62,512,256,512c54.252,0,106.159-16.815,150.107-48.627c4.474-3.238,5.476-9.49,2.237-13.964
			c-3.238-4.474-9.491-5.475-13.964-2.237C353.865,476.498,306.014,492,256,492C125.869,492,20,386.131,20,256
			c0-59.692,22.024-115.993,62.208-159.649l14.158,14.158c-24.592,26.977-41.969,59.747-50.468,95.365
			c-13.392,56.12-4.127,114.096,26.086,163.249c30.213,49.152,77.759,83.596,133.879,96.988c16.476,3.932,33.274,5.876,50.035,5.876
			c32.926,0,65.701-7.508,95.549-22.21c4.954-2.44,6.992-8.435,4.552-13.39c-2.44-4.954-8.434-6.992-13.39-4.552
			c-40.873,20.133-87.788,25.397-132.104,14.821c-50.924-12.151-94.068-43.406-121.483-88.007
			c-27.416-44.601-35.822-97.208-23.67-148.133c7.64-32.019,23.203-61.485,45.188-85.833l48.348,48.348
			c0.005,17.712,0.015,34.811,0.029,35.284c0.649,21.338,9.498,41.346,24.917,56.336c13.025,12.662,29.504,20.506,47.188,22.667
			v80.981l-22.043-0.012c-0.002,0-0.003,0-0.005,0c-5.52,0-9.997,4.474-10,9.995c-0.003,5.523,4.472,10.003,9.995,10.005
			l93.464,0.05c0.003,0,0.004,0,0.006,0c5.52,0,9.997-4.474,10-9.995c0.003-5.523-4.472-10.003-9.994-10.005l-22.055-0.012v-73.794
			l142.486,142.486l37.484,37.484c1.953,1.952,4.512,2.929,7.071,2.929s5.118-0.977,7.071-2.929c3.905-3.905,3.905-10.237,0-14.142
			l-30.563-30.563c20.594-22.244,36.921-47.703,48.571-75.832C505.443,322.75,512,289.789,512,256z M260.391,277.949v90.338h-9.367
			v-90.338c0-5.523-4.477-10-10-10c-33.208,0-61.05-26.973-62.111-60.148c-0.006-0.861-0.011-6.703-0.015-14.761l81.941,81.941
			C260.548,275.919,260.391,276.916,260.391,277.949z M199.006,184.866h134.113v20.94c0,30.772-22.488,56.378-51.89,61.283
			L199.006,184.866z"/>
	</g>
</g>
<g>
	<g>
		<path d="M302.179,123.662h-0.475c-5.522,0-10,4.477-10,10s4.478,10,10,10h0.475c5.522,0,10-4.477,10-10
			S307.701,123.662,302.179,123.662z"/>
	</g>
</g>
<g>
</g>
<g>
</g>
<g>
</g>
<g>
</g>
<g>
</g>
<g>
</g>
<g>
</g>
<g>
</g>
<g>
</g>
<g>
</g>
<g>
</g>
<g>
</g>
<g>
</g>
<g>
</g>
<g>
</g>
</svg>
