<?xml version="1.0" encoding="utf-8"?>
<!-- Generator: Adobe Illustrator 22.0.1, SVG Export Plug-In . SVG Version: 6.00 Build 0)  -->
<svg version="1.1" id="Capa_1" xmlns="http://www.w3.org/2000/svg" xmlns:xlink="http://www.w3.org/1999/xlink" x="0px" y="0px"
	 viewBox="0 0 480 480" style="enable-background:new 0 0 480 480;" xml:space="preserve">
<style type="text/css">
	.st0{fill:#FFFFFF;}
</style>
<g>
	<g>
		<path class="st0" d="M472,272h-8v-24c0-15.9-9.4-30.3-24-36.6V88c0-3.2-1.9-6.1-4.8-7.3c3.1-5,4.8-10.8,4.8-16.7
			c0-17.7-14.3-32-32-32s-32,14.3-32,32c0,5.6,1.6,11.2,4.4,16H99.6c2.9-4.8,4.4-10.4,4.4-16c0-17.7-14.3-32-32-32S40,46.3,40,64
			c0,5.9,1.7,11.7,4.8,16.7C41.9,81.9,40,84.8,40,88v123.4c-14.6,6.4-24,20.7-24,36.6v24H8c-4.4,0-8,3.6-8,8v112c0,4.4,3.6,8,8,8h8
			v40c0,4.4,3.6,8,8,8h32c4.4,0,8-3.6,8-8v-40h352v40c0,4.4,3.6,8,8,8h32c4.4,0,8-3.6,8-8v-40h8c4.4,0,8-3.6,8-8V280
			C480,275.6,476.4,272,472,272z M408,48c8.8,0,16,7.2,16,16s-7.2,16-16,16s-16-7.2-16-16S399.2,48,408,48z M72,48
			c8.8,0,16,7.2,16,16s-7.2,16-16,16s-16-7.2-16-16S63.2,48,72,48z M56,96h368v112h-32.2c5.3-6.9,8.2-15.3,8.2-24v-16
			c0-22.1-17.9-40-40-40h-64c-22.1,0-40,17.9-40,40v16c0,8.7,2.9,17.1,8.2,24h-48.4c5.3-6.9,8.2-15.3,8.2-24v-16
			c0-22.1-17.9-40-40-40h-64c-22.1,0-40,17.9-40,40v16c0,8.7,2.9,17.1,8.2,24H56V96z M384,168v16c0,13.3-10.7,24-24,24h-64
			c-13.3,0-24-10.7-24-24v-16c0-13.3,10.7-24,24-24h64C373.3,144,384,154.7,384,168z M208,168v16c0,13.3-10.7,24-24,24h-64
			c-13.3,0-24-10.7-24-24v-16c0-13.3,10.7-24,24-24h64C197.3,144,208,154.7,208,168z M32,248c0-13.3,10.7-24,24-24h368
			c13.3,0,24,10.7,24,24v24H32V248z M48,432H32v-32h16V432z M448,432h-16v-32h16V432z M464,384H16v-96h448V384z"/>
	</g>
</g>
<g>
	<g>
		<path class="st0" d="M72,352H40c-4.4,0-8,3.6-8,8s3.6,8,8,8h32c4.4,0,8-3.6,8-8S76.4,352,72,352z"/>
	</g>
</g>
<g>
	<g>
		<path class="st0" d="M440,352H104c-4.4,0-8,3.6-8,8s3.6,8,8,8h336c4.4,0,8-3.6,8-8S444.4,352,440,352z"/>
	</g>
</g>
</svg>
