<?xml version="1.0" encoding="utf-8"?>
<!-- Generator: Adobe Illustrator 22.0.1, SVG Export Plug-In . SVG Version: 6.00 Build 0)  -->
<svg version="1.1" id="Capa_1" xmlns="http://www.w3.org/2000/svg" xmlns:xlink="http://www.w3.org/1999/xlink" x="0px" y="0px"
	 viewBox="0 0 512 512" style="enable-background:new 0 0 512 512;" xml:space="preserve">
<style type="text/css">
	.st0{fill:#FFFFFF;}
</style>
<g>
	<g>
		<path class="st0" d="M462.5,438.3l-51.3-73.1l-7.9-13.1l-22.1-135.8c-1.3-8.3-3.1-16.6-5.2-24.7c-0.1-0.2-0.1-0.4-0.2-0.6
			L321.4,24.8C316.6,10,302.9,0,287.3,0c-10.5,0-20.4,4.6-27.2,12.5c-1.6,1.8-2.9,3.8-4.1,5.8c-1.2-2-2.5-4-4.1-5.8
			C245.1,4.6,235.2,0,224.7,0c-15.6,0-29.3,10-34.1,24.8l-54.3,166.3c-0.1,0.2-0.1,0.4-0.2,0.6c-2.1,8.1-3.9,16.4-5.2,24.7
			l-22.1,135.8l-7.9,13.1l-51.3,73.1c-1.5,2.2-2.1,4.9-1.6,7.6s2,5,4.3,6.5l86.9,57.9c1.7,1.1,3.6,1.7,5.5,1.7
			c3.1,0,6.1-1.4,8.1-4.1l53.5-73.4l0,0l36.3-49.6c1-1.4,1.6-3,1.8-4.7l11.7-92.8l11.7,92.8c0.2,1.7,0.8,3.3,1.8,4.6l36.3,49.6l0,0
			l53.5,73.4c2,2.7,5,4.1,8.1,4.1c1.9,0,3.8-0.5,5.5-1.7l86.9-57.9c2.2-1.5,3.8-3.8,4.3-6.5C464.6,443.3,464,440.5,462.5,438.3z
			 M142.2,488.4l-70.4-46.9l40.1-57.1l72,46.9L142.2,488.4z M245.8,208.1l-21,167.1l-29.1,39.9l-72.8-47.5l4.1-6.7
			c0.7-1.1,1.1-2.3,1.3-3.6l22.4-137.7c1.2-7.6,2.8-15.1,4.7-22.5L209.6,31c2.1-6.6,8.2-11,15.1-11c4.6,0,9,2,12.1,5.5
			c3,3.5,4.4,8.2,3.7,12.8l-13.9,91.9c0,0.2-0.1,0.5-0.1,0.7l-2.6,33.5c-8.8,0.2-17.2,3.2-24.3,8.7c-8.6,6.7-14.1,16.4-15.5,27.3
			l-6.8,54.4c0,0,0,0,0,0l-1,8c-0.7,5.5,3.2,10.5,8.7,11.2c5.5,0.7,10.5-3.2,11.2-8.7l7.8-62.4c0.7-5.6,3.5-10.5,7.9-14
			c0,0,0.1-0.1,0.1-0.1c4.4-3.4,9.9-4.9,15.4-4.2c0,0,0,0,0,0c1,0.1,2,0.3,3,0.6c0.1,0,0.2,0.1,0.3,0.1
			C240.5,188.1,247.1,197.7,245.8,208.1z M256,178.8c-3.4-4-7.6-7.3-12.4-9.8l2.8-36.1l9.6-63.7l9.6,63.7l2.8,36.1
			C263.7,171.4,259.4,174.8,256,178.8z M287.2,375.2L266.1,208c-0.1-0.7-0.1-1.5-0.1-2.2c0,0,0-0.1,0-0.1
			c-0.1-9.4,6.2-17.7,15.3-20.4c0.1,0,0.2-0.1,0.4-0.1c1-0.3,2-0.5,3-0.6c0,0,0,0,0,0c5.6-0.7,11.1,0.8,15.5,4.3s7.2,8.4,7.9,14
			l7.8,62.4c0.7,5.5,5.7,9.4,11.2,8.7c5.5-0.7,9.4-5.7,8.7-11.2l-1-8c0,0,0,0,0,0l-6.8-54.4c-1.4-10.9-6.9-20.6-15.5-27.3
			c0,0-0.1-0.1-0.1-0.1c-3.4-2.6-7.1-4.6-11-6.1c-4.2-1.5-8.7-2.4-13.2-2.5l-2.6-33.5c0-0.2,0-0.5-0.1-0.7l-13.9-91.9
			c-0.7-4.6,0.6-9.2,3.7-12.8c3-3.5,7.4-5.5,12.1-5.5c6.9,0,13,4.4,15.1,11l54.2,166c1.9,7.4,3.5,15,4.7,22.5l22.4,137.7
			c0.2,1.3,0.7,2.5,1.3,3.6l4.1,6.7l-72.8,47.5L287.2,375.2z M369.8,488.4l-41.7-57.1l72-46.9l40.1,57.1L369.8,488.4z"/>
	</g>
</g>
<g>
	<g>
		<path class="st0" d="M340,297.8c-0.1-0.6-0.3-1.3-0.6-1.9s-0.6-1.2-0.9-1.7c-0.4-0.5-0.8-1.1-1.2-1.5c-0.5-0.5-1-0.9-1.5-1.2
			c-0.5-0.4-1.1-0.7-1.7-0.9s-1.2-0.4-1.9-0.6c-1.3-0.3-2.6-0.3-3.9,0c-0.6,0.1-1.3,0.3-1.9,0.6s-1.2,0.6-1.7,0.9
			c-0.5,0.4-1.1,0.8-1.5,1.2c-0.5,0.5-0.9,1-1.2,1.5c-0.4,0.5-0.7,1.1-0.9,1.7s-0.4,1.2-0.6,1.9c-0.1,0.6-0.2,1.3-0.2,2
			c0,0.7,0.1,1.3,0.2,2c0.1,0.6,0.3,1.3,0.6,1.9s0.6,1.2,0.9,1.7c0.4,0.5,0.8,1.1,1.3,1.5c0.5,0.5,1,0.9,1.5,1.2
			c0.5,0.4,1.1,0.7,1.7,0.9s1.2,0.4,1.9,0.6c0.6,0.1,1.3,0.2,2,0.2c0.6,0,1.3-0.1,2-0.2c0.6-0.1,1.3-0.3,1.9-0.6s1.2-0.6,1.7-0.9
			c0.5-0.4,1.1-0.8,1.5-1.2c1.9-1.9,2.9-4.5,2.9-7.1C340.2,299.1,340.2,298.5,340,297.8z"/>
	</g>
</g>
<g>
	<g>
		<path class="st0" d="M191.6,297.8c-0.1-0.6-0.3-1.3-0.6-1.9s-0.6-1.2-0.9-1.7c-0.4-0.5-0.8-1.1-1.3-1.5c-0.5-0.5-1-0.9-1.5-1.2
			c-0.5-0.4-1.1-0.7-1.7-0.9s-1.2-0.4-1.9-0.6c-1.3-0.3-2.6-0.3-3.9,0c-0.6,0.1-1.3,0.3-1.9,0.6c-0.6,0.3-1.2,0.6-1.7,0.9
			c-0.5,0.4-1.1,0.8-1.5,1.2c-0.5,0.5-0.9,1-1.2,1.5c-0.4,0.5-0.7,1.1-0.9,1.7s-0.4,1.2-0.6,1.9c-0.1,0.6-0.2,1.3-0.2,2
			c0,0.7,0.1,1.3,0.2,2c0.1,0.6,0.3,1.3,0.6,1.9c0.3,0.6,0.6,1.2,0.9,1.7c0.4,0.5,0.8,1.1,1.2,1.5c0.5,0.5,1,0.9,1.5,1.2
			c0.5,0.4,1.1,0.7,1.7,0.9c0.6,0.3,1.2,0.4,1.9,0.6c0.6,0.1,1.3,0.2,1.9,0.2c0.7,0,1.3-0.1,2-0.2c0.6-0.1,1.3-0.3,1.9-0.6
			s1.2-0.6,1.7-0.9c0.6-0.4,1.1-0.8,1.5-1.2c0.5-0.5,0.9-1,1.3-1.5c0.4-0.5,0.7-1.1,0.9-1.7s0.4-1.2,0.6-1.9c0.1-0.6,0.2-1.3,0.2-2
			C191.8,299.1,191.7,298.5,191.6,297.8z"/>
	</g>
</g>
<g>
	<g>
		<path class="st0" d="M446.5,115.2H411c-5.5,0-10,4.5-10,10c0,5.5,4.5,10,10,10h35.5c5.5,0,10-4.5,10-10
			C456.5,119.6,452,115.2,446.5,115.2z"/>
	</g>
</g>
<g>
	<g>
		<path class="st0" d="M440.8,190.4l-25.1-25.1c-3.9-3.9-10.2-3.9-14.1,0c-3.9,3.9-3.9,10.2,0,14.1l25.1,25.1c2,2,4.5,2.9,7.1,2.9
			s5.1-1,7.1-2.9C444.7,200.7,444.7,194.3,440.8,190.4z"/>
	</g>
</g>
<g>
	<g>
		<path class="st0" d="M440.8,47c-3.9-3.9-10.2-3.9-14.1,0l-25.1,25.1c-3.9,3.9-3.9,10.2,0,14.1c2,2,4.5,2.9,7.1,2.9s5.1-1,7.1-2.9
			l25.1-25.1C444.7,57.2,444.7,50.9,440.8,47z"/>
	</g>
</g>
<g>
	<g>
		<path class="st0" d="M101,116.4H65.5c-5.5,0-10,4.5-10,10c0,5.5,4.5,10,10,10H101c5.5,0,10-4.5,10-10
			C111,120.9,106.5,116.4,101,116.4z"/>
	</g>
</g>
<g>
	<g>
		<path class="st0" d="M110.5,72.1L85.4,47c-3.9-3.9-10.2-3.9-14.1,0c-3.9,3.9-3.9,10.2,0,14.1l25.1,25.1c2,2,4.5,2.9,7.1,2.9
			s5.1-1,7.1-2.9C114.4,82.3,114.4,76,110.5,72.1z"/>
	</g>
</g>
<g>
	<g>
		<path class="st0" d="M110.5,165.3c-3.9-3.9-10.2-3.9-14.1,0l-25.1,25.1c-3.9,3.9-3.9,10.2,0,14.1c2,2,4.5,2.9,7.1,2.9
			s5.1-1,7.1-2.9l25.1-25.1C114.4,175.6,114.4,169.2,110.5,165.3z"/>
	</g>
</g>
</svg>
