<?xml version="1.0" encoding="utf-8"?>
<!-- Generator: Adobe Illustrator 22.0.1, SVG Export Plug-In . SVG Version: 6.00 Build 0)  -->
<svg version="1.1" id="Capa_1" xmlns="http://www.w3.org/2000/svg" xmlns:xlink="http://www.w3.org/1999/xlink" x="0px" y="0px"
	 viewBox="0 0 60 60" style="enable-background:new 0 0 60 60;" xml:space="preserve">
<style type="text/css">
	.st0{fill:#FFFFFF;}
</style>
<path class="st0" d="M51.4,3.1C50.9,3,40-1.3,31.5,3.2C24.8,6.8,13,4.1,10,3.3V1c0-0.6-0.4-1-1-1S8,0.4,8,1v3c0,0,0,0,0,0
	c0,0,0,0,0,0V33v1.1V59c0,0.6,0.4,1,1,1s1-0.4,1-1V35.4c2.3,0.6,7.2,1.6,12.4,1.6c3.6,0,7.2-0.5,10.1-2c7.7-4.1,18.1,0,18.2,0
	c0.3,0.1,0.7,0.1,0.9-0.1c0.3-0.2,0.4-0.5,0.4-0.8v-30C52,3.7,51.8,3.3,51.4,3.1z M50,32.7c-3.3-1-11.6-3.1-18.5,0.5
	C24.8,36.8,13,34.1,10,33.3V33V5.4c3.9,1,15.4,3.3,22.5-0.4C39,1.5,47.6,4,50,4.8V32.7z"/>
</svg>
