<?xml version="1.0" encoding="utf-8"?>
<!-- Generator: Adobe Illustrator 22.0.1, SVG Export Plug-In . SVG Version: 6.00 Build 0)  -->
<svg version="1.1" id="Capa_1" xmlns="http://www.w3.org/2000/svg" xmlns:xlink="http://www.w3.org/1999/xlink" x="0px" y="0px"
	 viewBox="0 0 512 512" style="enable-background:new 0 0 512 512;" xml:space="preserve">
<style type="text/css">
	.st0{fill:#FFFFFF;}
</style>
<g>
	<g>
		<path class="st0" d="M416,27H266c-5.5,0-10,4.5-10,10s4.5,10,10,10h140v65.7c0,5.5,4.5,10,10,10s10-4.5,10-10V37
			C426,31.5,421.5,27,416,27z"/>
	</g>
</g>
<g>
	<g>
		<path class="st0" d="M233.1,29.9c-1.9-1.9-4.4-2.9-7.1-2.9s-5.2,1.1-7.1,2.9S216,34.4,216,37s1.1,5.2,2.9,7.1
			c1.9,1.9,4.4,2.9,7.1,2.9s5.2-1.1,7.1-2.9c1.9-1.9,2.9-4.4,2.9-7.1S234.9,31.8,233.1,29.9z"/>
	</g>
</g>
<g>
	<g>
		<path class="st0" d="M376,67H136c-5.5,0-10,4.5-10,10v80c0,5.5,4.5,10,10,10h240c5.5,0,10-4.5,10-10V77C386,71.5,381.5,67,376,67z
			 M366,147H146V87h220V147z"/>
	</g>
</g>
<g>
	<g>
		<path class="st0" d="M502,424.9h-44V239h44c3.3,0,6.3-1.6,8.2-4.3s2.3-6.1,1.2-9.2l-28.1-76.3c-1.4-3.9-5.2-6.5-9.4-6.5h-52.1
			c-4.2,0-7.9,2.6-9.4,6.5L398.5,187H106V47h74.5c5.5,0,10-4.5,10-10s-4.5-10-10-10H96c-5.5,0-10,4.5-10,10v141.9
			c-7.7-8.7-19-14.1-31.5-14.1c-23.3,0-42.3,19-42.3,42.3c0,6,1.2,11.8,3.6,17.1C5.8,234.3,0,248.1,0,262.6
			c0,26.6,19.2,48.9,44.5,53.6V331H10c-5.5,0-10,4.5-10,10v134c0,5.5,4.5,10,10,10h89c3,0,5.7-1.3,7.6-3.5c4.3,2.2,9.3,3.5,14.4,3.5
			h270c1.4,0,2.7-0.1,4.1-0.3c0.7,0.2,1.5,0.3,2.3,0.3H502c5.5,0,10-4.5,10-10v-40.1C512,429.4,507.5,424.9,502,424.9z M428.8,162.7
			h38.1l20.8,56.3h-39.2c-0.2,0-0.3,0-0.5,0s-0.3,0-0.5,0H408L428.8,162.7z M44.5,261v34.6c-14.2-4.3-24.5-17.5-24.5-33
			c0-11.1,5.4-21.6,14.5-28.1c2.2-1.6,3.7-3.9,4.1-6.6c0.4-2.7-0.3-5.4-1.9-7.5c-2.9-3.9-4.4-8.5-4.4-13.3c0-12.3,10-22.3,22.3-22.3
			s22.3,10,22.3,22.3c0,4.9-1.5,9.5-4.4,13.3c-1.6,2.2-2.3,4.9-1.9,7.5c0.4,2.7,1.9,5,4.1,6.6c9.1,6.5,14.5,17,14.5,28.1
			c0,15.5-10.3,28.7-24.5,33V261c0-5.5-4.5-10-10-10C49,251,44.5,255.5,44.5,261z M89,465H20V351h69V465z M403,453
			c0,6.6-5.4,12-12,12H121c-6.6,0-12-5.4-12-12v-64c0-9.9,8.1-18,18-18s18,8.1,18,18v32c0,5.5,4.5,10,10,10h202c5.5,0,10-4.5,10-10
			v-32c0-9.9,8.1-18,18-18s18,8.1,18,18V453z M164.9,387h182.1c0,0.7-0.1,1.3-0.1,2v22H165v-22C165,388.3,165,387.7,164.9,387z
			 M158,367c-5-7-12.4-12.3-21-14.7v-51.7c0-11.4,9.3-20.7,20.7-20.7h197.7c11.4,0,20.7,9.3,20.7,20.7v51.4
			c-9,2.2-16.7,7.6-21.9,14.9L158,367L158,367z M396,352.6v-52c0-22.4-18.2-40.7-40.7-40.7H157.7c-22.4,0-40.7,18.2-40.7,40.7v51.7
			c-2.8,0.8-5.5,1.8-8,3.2V341c0-5.5-4.5-10-10-10H64.5v-14.9c25.3-4.7,44.5-26.9,44.5-53.6c0-14.5-5.8-28.3-15.9-38.4
			c2.4-5.3,3.6-11.2,3.6-17.1c0,0,0,0,0,0h294.4l-6.8,18.5c-1.1,3.1-0.7,6.5,1.2,9.2s4.9,4.3,8.2,4.3H438v185.9h-15V389
			C423,371.9,411.6,357.3,396,352.6z M492,465h-71.3c1.5-3.7,2.3-7.8,2.3-12v-8.1h69V465z"/>
	</g>
</g>
<g>
	<g>
		<path class="st0" d="M295.1,300h-45.3c-5.5,0-10,4.5-10,10s4.5,10,10,10h45.3c5.5,0,10-4.5,10-10S300.6,300,295.1,300z"/>
	</g>
</g>
<g>
	<g>
		<path class="st0" d="M221.7,302.9c-1.9-1.9-4.4-2.9-7.1-2.9c-2.6,0-5.2,1.1-7.1,2.9c-1.9,1.9-2.9,4.4-2.9,7.1s1.1,5.2,2.9,7.1
			c1.9,1.9,4.4,2.9,7.1,2.9c2.6,0,5.2-1.1,7.1-2.9c1.9-1.9,2.9-4.4,2.9-7.1S223.6,304.8,221.7,302.9z"/>
	</g>
</g>
</svg>
