<?xml version="1.0" encoding="iso-8859-1"?>
<!-- Generator: Adobe Illustrator 19.0.0, SVG Export Plug-In . SVG Version: 6.00 Build 0)  -->
<svg version="1.1" id="Capa_1" xmlns="http://www.w3.org/2000/svg" xmlns:xlink="http://www.w3.org/1999/xlink" x="0px" y="0px"
	 viewBox="0 0 512 512" style="enable-background:new 0 0 512 512;" xml:space="preserve">
<g>
	<g>
		<path d="M379.823,420.906c-3.114-4.563-9.337-5.736-13.897-2.624l-0.314,0.213c-4.563,3.113-5.737,9.334-2.625,13.896
			c1.937,2.838,5.075,4.365,8.27,4.365c1.941,0,3.902-0.564,5.627-1.74l0.314-0.213C381.761,431.69,382.935,425.469,379.823,420.906
			z"/>
	</g>
</g>
<g>
	<g>
		<path d="M149.012,79.682c-3.078-4.582-9.327-5.776-13.912-2.698l-0.315,0.213c-4.556,3.122-5.719,9.346-2.597,13.902
			c1.937,2.827,5.07,4.348,8.257,4.348c1.947,0,3.916-0.568,5.644-1.751l0.158-0.107c0.003-0.002,0.085-0.057,0.088-0.059
			C150.915,90.448,152.092,84.264,149.012,79.682z"/>
	</g>
</g>
<g>
	<g>
		<path d="M512,256c0-68.38-26.629-132.668-74.98-181.02C388.668,26.628,324.381,0,256.001,0
			C201.746,0,149.84,16.815,105.893,48.627c-4.475,3.238-5.476,9.491-2.237,13.964c3.238,4.474,9.492,5.475,13.964,2.237
			C158.134,35.502,205.984,20,256.001,20C386.131,20,492,125.87,492,256c0,59.692-22.024,115.993-62.208,159.648l-14.164-14.164
			c24.594-26.978,41.972-59.75,50.471-95.371c13.393-56.12,4.128-114.096-26.086-163.248
			C409.8,93.713,362.254,59.269,306.134,45.877c-48.839-11.652-100.541-5.853-145.584,16.334c-4.954,2.44-6.992,8.435-4.552,13.39
			c2.44,4.954,8.436,6.994,13.39,4.552c40.87-20.131,87.784-25.396,132.104-14.822C406.614,90.416,471.73,196.348,446.646,301.472
			c-7.641,32.021-23.205,61.489-45.193,85.838l-76.36-76.361h68.368c20.478,0,37.137-16.66,37.137-37.137c0-5.523-4.478-10-10-10
			c-5.523,0-10,4.477-10,10c0,9.289-7.848,17.137-17.137,17.137h-6.008v-44.272c0-5.523-4.478-10-10-10H250.819L51.64,37.496
			c-3.905-3.905-10.235-3.906-14.143,0c-3.905,3.905-3.905,10.237,0,14.142L68.06,82.2c-20.594,22.245-36.922,47.704-48.572,75.833
			C6.557,189.25,0,222.21,0,255.999c0,68.38,26.629,132.668,74.98,181.02C123.332,485.371,187.62,512,256,512
			c54.254,0,106.16-16.815,150.107-48.627c4.475-3.238,5.476-9.491,2.237-13.964c-3.238-4.474-9.491-5.475-13.964-2.237
			C353.866,476.498,306.016,492,256,492C125.869,492,20,386.131,20,256c0-59.692,22.024-115.992,62.209-159.649l14.158,14.158
			c-24.592,26.976-41.968,59.746-50.468,95.366c-13.392,56.12-4.127,114.096,26.086,163.248
			c30.214,49.152,77.76,83.597,133.88,96.989c16.476,3.931,33.272,5.876,50.034,5.876c32.926,0,65.702-7.508,95.55-22.21
			c4.954-2.44,6.992-8.435,4.552-13.39c-2.44-4.953-8.434-6.994-13.39-4.552c-40.873,20.134-87.786,25.397-132.104,14.822
			C105.385,421.571,40.269,315.639,65.353,210.516c7.642-32.02,23.205-61.487,45.189-85.833l111.993,111.993H97.84
			c-9.063,0-16.436,6.665-16.436,14.856v44.56c0,8.192,7.373,14.856,16.436,14.856h198.968l163.554,163.555
			c1.953,1.952,4.512,2.929,7.071,2.929c2.56,0,5.118-0.977,7.071-2.929c3.905-3.905,3.905-10.237,0-14.142l-30.563-30.562
			c20.594-22.244,36.921-47.703,48.572-75.832C505.443,322.75,512,289.79,512,256z M207.012,290.949H101.404v-34.272h105.608
			V290.949z M227.013,290.949v-34.272h15.523l34.272,34.272H227.013z M270.82,256.676h96.632v34.272h-62.36L270.82,256.676z"/>
	</g>
</g>
<g>
	<g>
		<path d="M408.338,239.75c-0.203-0.081-0.406-0.162-0.609-0.239c-5.171-1.949-10.938,0.656-12.889,5.823
			c-1.951,5.165,0.656,10.936,5.822,12.887l0.225,0.089c1.222,0.49,2.483,0.723,3.723,0.723c3.964,0,7.716-2.374,9.283-6.278
			C415.951,247.63,413.463,241.807,408.338,239.75z"/>
	</g>
</g>
<g>
	<g>
		<path d="M403.024,216.882c-0.022-1.063-0.935-26.035-33.756-35.104c-0.054-0.017-0.108-0.031-0.162-0.047
			c-0.089-0.024-0.171-0.053-0.261-0.077c-0.078-0.021-0.155-0.032-0.233-0.05c-0.192-0.047-0.386-0.091-0.582-0.126
			c-0.161-0.029-0.321-0.052-0.482-0.073c-0.155-0.021-0.311-0.04-0.469-0.053c-0.204-0.018-0.407-0.026-0.61-0.031
			c-0.077-0.002-0.151-0.012-0.229-0.012h-91.524c-4.495,0-8.293-4.965-8.293-10.843c0-5.877,3.798-10.842,8.293-10.842h10.168
			h39.895c15.601,0,28.293-13.836,28.293-30.843c0-17.007-12.692-30.843-28.293-30.843h-35.846c-5.522,0-10,4.477-10,10
			s4.478,10,10,10h35.846c4.495,0,8.293,4.965,8.293,10.843c0.001,5.878-3.797,10.843-8.292,10.843h-39.895h-10.168
			c-15.601,0-28.293,13.836-28.293,30.842c0,17.007,12.692,30.843,28.293,30.843h90.12c16.837,4.988,18.112,15.089,18.201,16.25
			c-0.013-0.168-0.01-0.257-0.01-0.257L403.024,216.882z"/>
	</g>
</g>
<g>
</g>
<g>
</g>
<g>
</g>
<g>
</g>
<g>
</g>
<g>
</g>
<g>
</g>
<g>
</g>
<g>
</g>
<g>
</g>
<g>
</g>
<g>
</g>
<g>
</g>
<g>
</g>
<g>
</g>
</svg>
