<?xml version="1.0" encoding="utf-8"?>
<!-- Generator: Adobe Illustrator 22.0.1, SVG Export Plug-In . SVG Version: 6.00 Build 0)  -->
<svg version="1.1" id="Capa_1" xmlns="http://www.w3.org/2000/svg" xmlns:xlink="http://www.w3.org/1999/xlink" x="0px" y="0px"
	 viewBox="0 0 512 512" style="enable-background:new 0 0 512 512;" xml:space="preserve">
<style type="text/css">
	.st0{fill:#FFFFFF;}
</style>
<g>
	<g>
		<path class="st0" d="M379.8,420.9c-3.1-4.6-9.3-5.7-13.9-2.6l-0.3,0.2c-4.6,3.1-5.7,9.3-2.6,13.9c1.9,2.8,5.1,4.4,8.3,4.4
			c1.9,0,3.9-0.6,5.6-1.7l0.3-0.2C381.8,431.7,382.9,425.5,379.8,420.9z"/>
	</g>
</g>
<g>
	<g>
		<path class="st0" d="M149,79.7c-3.1-4.6-9.3-5.8-13.9-2.7l-0.3,0.2c-4.6,3.1-5.7,9.3-2.6,13.9c1.9,2.8,5.1,4.3,8.3,4.3
			c1.9,0,3.9-0.6,5.6-1.8l0.2-0.1l0.1-0.1C150.9,90.4,152.1,84.3,149,79.7z"/>
	</g>
</g>
<g>
	<g>
		<path class="st0" d="M512,256c0-68.4-26.6-132.7-75-181C388.7,26.6,324.4,0,256,0c-54.3,0-106.2,16.8-150.1,48.6
			c-4.5,3.2-5.5,9.5-2.2,14c3.2,4.5,9.5,5.5,14,2.2C158.1,35.5,206,20,256,20c130.1,0,236,105.9,236,236c0,59.7-22,116-62.2,159.6
			l-14.2-14.2c24.6-27,42-59.8,50.5-95.4c13.4-56,4.1-114-26.1-163.1c-30.2-49.2-77.8-83.6-133.9-97C257.3,34.2,205.6,40,160.6,62.2
			c-5,2.4-7,8.4-4.6,13.4s8.4,7,13.4,4.6c40.9-20.1,87.8-25.4,132.1-14.8c105.1,25.1,170.2,131,145.2,236.1
			c-7.6,32-23.2,61.5-45.2,85.8l-76.4-76.4h68.4c20.5,0,37.1-16.7,37.1-37.1c0-5.5-4.5-10-10-10s-10,4.5-10,10
			c0,9.3-7.8,17.1-17.1,17.1h-6v-44.3c0-5.5-4.5-10-10-10H250.8L51.6,37.5c-3.9-3.9-10.2-3.9-14.1,0s-3.9,10.2,0,14.1l30.6,30.6
			c-20.6,22.2-36.9,47.7-48.6,75.8C6.6,189.3,0,222.2,0,256c0,68.4,26.6,132.7,75,181c48.4,48.4,112.6,75,181,75
			c54.3,0,106.2-16.8,150.1-48.6c4.5-3.2,5.5-9.5,2.2-14c-3.2-4.5-9.5-5.5-14-2.2C353.9,476.5,306,492,256,492
			C125.9,492,20,386.1,20,256c0-59.7,22-116,62.2-159.6l14.2,14.2c-24.6,27-42,59.7-50.5,95.4C32.5,262,41.8,320,72,369.1
			c30.2,49.2,77.8,83.6,133.9,97c16.5,3.9,33.3,5.9,50,5.9c32.9,0,65.7-7.5,95.6-22.2c5-2.4,7-8.4,4.6-13.4s-8.4-7-13.4-4.6
			c-40.9,20.1-87.8,25.4-132.1,14.8c-105.1-25.1-170.2-131-145.2-236.1c7.6-32,23.2-61.5,45.2-85.8l112,112H97.8
			c-9.1,0-16.4,6.7-16.4,14.9v44.6c0,8.2,7.4,14.9,16.4,14.9h199l163.6,163.6c2,2,4.5,2.9,7.1,2.9s5.1-1,7.1-2.9
			c3.9-3.9,3.9-10.2,0-14.1L444,430c20.6-22.2,36.9-47.7,48.6-75.8C505.4,322.8,512,289.8,512,256z M207,290.9H101.4v-34.3H207
			V290.9z M227,290.9v-34.3h15.5l34.3,34.3H227z M270.8,256.7h96.6V291H305L270.8,256.7z"/>
	</g>
</g>
<g>
	<g>
		<path class="st0" d="M408.3,239.8c-0.2-0.1-0.4-0.2-0.6-0.2c-5.2-1.9-10.9,0.7-12.9,5.8c-2,5.2,0.7,10.9,5.8,12.9l0.2,0.1
			c1.2,0.5,2.5,0.7,3.7,0.7c4,0,7.7-2.4,9.3-6.3C416,247.6,413.5,241.8,408.3,239.8z"/>
	</g>
</g>
<g>
	<g>
		<path class="st0" d="M403,216.9c0-1.1-0.9-26-33.8-35.1c-0.1,0-0.1,0-0.2,0s-0.2-0.1-0.3-0.1c-0.1,0-0.2,0-0.2-0.1
			c-0.2,0-0.4-0.1-0.6-0.1s-0.3-0.1-0.5-0.1s-0.3,0-0.5-0.1c-0.2,0-0.4,0-0.6,0c-0.1,0-0.2,0-0.2,0h-91.5c-4.5,0-8.3-5-8.3-10.8
			c0-5.9,3.8-10.8,8.3-10.8h10.2h39.9c15.6,0,28.3-13.8,28.3-30.8s-12.7-30.8-28.3-30.8h-35.8c-5.5,0-10,4.5-10,10s4.5,10,10,10
			h35.8c4.5,0,8.3,5,8.3,10.8c0,5.9-3.8,10.8-8.3,10.8h-39.9h-10.2c-15.6,0-28.3,13.8-28.3,30.8s12.7,30.8,28.3,30.8h90.1
			c16.8,5,18.1,15.1,18.2,16.3c0-0.2,0-0.3,0-0.3L403,216.9z"/>
	</g>
</g>
</svg>
