<?xml version="1.0" encoding="utf-8"?>
<!-- Generator: Adobe Illustrator 22.0.1, SVG Export Plug-In . SVG Version: 6.00 Build 0)  -->
<svg version="1.1" id="Capa_1" xmlns="http://www.w3.org/2000/svg" xmlns:xlink="http://www.w3.org/1999/xlink" x="0px" y="0px"
	 viewBox="0 0 488.9 488.9" style="enable-background:new 0 0 488.9 488.9;" xml:space="preserve">
<style type="text/css">
	.st0{fill:#FFFFFF;}
</style>
<g>
	<g>
		<path class="st0" d="M484.3,401.6l-115.8-54c-0.2-0.2-0.4-0.3-0.5-0.5c-0.2-0.2-0.4-0.4-0.6-0.5c-0.1-0.1-0.3-0.3-0.4-0.4
			c-0.3-0.2-0.6-0.3-0.8-0.4c-0.2-0.1-0.3-0.2-0.4-0.3l-57.4-24.6L217,281.8l25.2-8.4l61.2,25.3h0l168,69.5c1,0.4,2,0.6,3.1,0.6
			c1.6,0,3.1-0.5,4.4-1.3c2.2-1.5,3.6-4,3.6-6.7v-256c0-3.2-2-6.2-4.9-7.4l-64-26.5h0l-168-69.5c-0.6-0.2-1.2-0.4-1.8-0.5
			c0,0,0,0,0,0c-1.2-0.2-2.4-0.1-3.6,0.3c0,0-0.1,0-0.2,0L0,81.2l5.1,15.2l229.5-76.5V259l-32,10.7v-68.9c0-2.5-1.2-4.9-3.2-6.4
			c-2-1.5-4.7-2-7.1-1.2l-184,56c-3.4,1-5.7,4.1-5.7,7.7v80v48c0,3.1,1.8,5.9,4.5,7.2l85.1,40.7l-37,16.8c-2.8,1.3-4.7,4.1-4.7,7.2
			s1.8,6,4.6,7.3l48,22.8l6.8-14.5L77.5,457l33.5-15.2l80.1,38.3c0.2,0.1,0.5,0.2,0.7,0.2c0.3,0.1,0.5,0.2,0.8,0.3
			c0.5,0.1,0.9,0.2,1.4,0.2c0.2,0,0.4,0.1,0.6,0.1c0.1,0,0.1,0,0.2,0c0.5,0,1-0.1,1.5-0.2c0.2,0,0.4-0.1,0.6-0.1
			c0.2-0.1,0.4-0.2,0.6-0.2c0.1,0,0.2,0,0.2,0l168-72c3-1.2,4.9-4.1,4.9-7.3v-34.7l91.3,42.6l-142.6,64.8l6.6,14.6l158.4-72
			c2.8-1.3,4.7-4.1,4.7-7.2C488.9,405.7,487.1,402.9,484.3,401.6z M418.5,288.8v-80v-32V90.3l48,19.9v238.7l-48-19.9V288.8z
			 M402.5,322.4l-74.3-30.7l41.7-10.4l32.6,13V322.4z M346.5,270.6v-63.5l16-4v63.5L346.5,270.6z M402.5,277l-24-9.6v-62.8l12,4.8
			l12,4.8V277z M402.5,197l-12-4.8l-12-4.8v-14.8l24,9.6V197z M314.5,47.3l88,36.4V165l-24-9.6v-26.6h-16v25.8l-48,12V47.3z
			 M314.5,183.1l48-12v15.5l-48,12V183.1z M314.5,215.1l16-4v63.5l-16,4V215.1z M250.5,20.8l48,19.9v136.2v32v70.5l-48-19.9
			L250.5,20.8L250.5,20.8z M194.1,289.3l91,39l-142.9,62.6L32.5,338.5l12.3-3.7l48-14.6l20.4-6.2l11.6-3.5h0l48-14.6L194.1,289.3z
			 M50.5,316.3v-21.7l32-10.7v22.6L50.5,316.3z M130.5,291.9v-21.4l32-10.7v22.3l-13.3,4.1L130.5,291.9z M18.5,262.7l168-51.1v63.3
			l-8,2.4v-28.5c0-2.6-1.2-5-3.3-6.5c-2.1-1.5-4.8-1.9-7.2-1.1l-48,16c-3.3,1.1-5.5,4.1-5.5,7.6v32l-16,4.9v-28.9
			c0-2.6-1.2-5-3.3-6.5c-2.1-1.5-4.8-1.9-7.2-1.1l-48,16c-3.3,1.1-5.5,4.1-5.5,7.6v32.3l-16,4.9V262.7z M186.5,460.1l-72-34.4h0
			l-96-45.9v-30.3l168,80.3L186.5,460.1L186.5,460.1z M194.7,416l-33.5-16l144-63l37,15.9L194.7,416z M354.5,395.5l-152,65.1v-30.6
			l152-65.1V395.5z"/>
	</g>
</g>
<g>
	<g>
		<path class="st0" d="M175.2,66.3c-2.1-1.5-4.8-1.9-7.2-1.1l-144,48c-3.3,1.1-5.5,4.1-5.5,7.6v96c0,2.6,1.2,5,3.3,6.5
			c1.4,1,3,1.5,4.7,1.5c0.8,0,1.7-0.1,2.5-0.4l144-48c3.3-1.1,5.5-4.1,5.5-7.6v-96C178.5,70.2,177.3,67.8,175.2,66.3z M162.5,163.1
			l-128,42.7v-79.1l128-42.7V163.1z"/>
	</g>
</g>
<g>
	<g>
		<path class="st0" d="M132.9,115.2l-28.5,28.5l-19.3-6.4c-2.3-0.8-4.9-0.4-7,0.9l-24,16l8.9,13.3l20.7-13.8l20.3,6.8
			c2.9,1,6,0.2,8.2-1.9l32-32L132.9,115.2z"/>
	</g>
</g>
</svg>
