<?xml version="1.0" encoding="utf-8"?>
<!-- Generator: Adobe Illustrator 22.0.1, SVG Export Plug-In . SVG Version: 6.00 Build 0)  -->
<svg version="1.1" id="Capa_1" xmlns="http://www.w3.org/2000/svg" xmlns:xlink="http://www.w3.org/1999/xlink" x="0px" y="0px"
	 viewBox="0 0 512 512" style="enable-background:new 0 0 512 512;" xml:space="preserve">
<style type="text/css">
	.st0{fill:#FFFFFF;}
</style>
<g>
	<g>
		<path class="st0" d="M207.9,176.4c-4.1,0-7.5,3.4-7.5,7.5v8c0,4.1,3.4,7.5,7.5,7.5s7.5-3.4,7.5-7.5v-8
			C215.4,179.7,212,176.4,207.9,176.4z"/>
	</g>
</g>
<g>
	<g>
		<path class="st0" d="M304.1,176.4c-4.1,0-7.5,3.4-7.5,7.5v8c0,4.1,3.4,7.5,7.5,7.5s7.5-3.4,7.5-7.5v-8
			C311.6,179.7,308.2,176.4,304.1,176.4z"/>
	</g>
</g>
<g>
	<g>
		<path class="st0" d="M285.4,234.7c-2.9-2.9-7.7-3-10.6-0.1c-2.7,2.7-9.3,5.9-18.8,5.9s-16-3.2-18.8-5.9c-2.9-2.9-7.7-2.9-10.6,0.1
			c-2.9,2.9-2.9,7.7,0.1,10.6c6.5,6.4,17.4,10.2,29.3,10.2c11.9,0,22.9-3.8,29.3-10.2C288.3,242.4,288.3,237.6,285.4,234.7z"/>
	</g>
</g>
<g>
	<g>
		<path class="st0" d="M410.8,389.9l-11-3.9V143.8C399.8,64.5,335.3,0,256,0S112.2,64.5,112.2,143.8v61.5
			c0,57.3,18.8,99.9,34.5,125.5c9.6,15.6,19.1,26.9,25.8,34l-71.3,25.2c-22.2,7.8-37.1,28.9-37.1,52.4v62.2c0,4.1,3.4,7.5,7.5,7.5
			s7.5-3.4,7.5-7.5v-62.2c0-5,0.9-9.8,2.6-14.3l37.9,32.5c5.5,4.7,8.6,11.5,8.6,18.7v25.3c0,4.1,3.4,7.5,7.5,7.5s7.5-3.4,7.5-7.5
			v-25.3c0-11.6-5-22.5-13.8-30l-39.8-34.1c4.4-4.9,10-8.7,16.5-11l31.7-11.2c19.6,47.5,66.3,79,118.1,79c28.5,0,56-9.5,78.3-26.8
			c10.2,17.7,18.4,35.8,18.4,59.4c0,4.1,3.4,7.5,7.5,7.5s7.5-3.4,7.5-7.5c0-33.4-14.3-57-28.1-79.8c-14.4-23.8-28-46.3-28-80.5v-8
			c0-4.1-3.4-7.5-7.5-7.5s-7.5,3.4-7.5,7.5v8c0,23.9,5.9,42.7,14,59.4c-14.9,13.7-34.2,21.3-54.6,21.3c-31.9,0-60.7-18.9-73.6-47.7
			l6.6-2.3c15.8-5.6,26.4-20.6,26.4-37.3V312c12.6,4.9,26.3,7.6,40.6,7.6c56.3,0,103.1-41.9,110.6-96.2h4.5c4.9,0,9.6-1.2,13.7-3.4
			v284.5c0,4.1,3.4,7.5,7.5,7.5s7.5-3.4,7.5-7.5v-50.4l30.5-26.1c1.7,4.5,2.6,9.3,2.6,14.3v62.2c0,4.1,3.4,7.5,7.5,7.5
			s7.5-3.4,7.5-7.5v-62.2C447.9,418.8,433,397.7,410.8,389.9z M256,439.9c22.9,0,44.5-8,61.8-22.6c2.9,5.1,5.8,10,8.8,14.9
			c-20,16-44.8,24.8-70.6,24.8c-45.4,0-86.5-27.5-103.9-69l16.1-5.7C183.2,416.9,217.7,439.9,256,439.9z M200.4,337.5L200.4,337.5
			c0,8.9-4.9,17.1-12.5,21.4c-12.4-11.9-55.2-58.7-60.2-138.3c3.7,1.8,7.8,2.8,12.1,2.8h5.6c4.9,34.8,25.8,64.5,55,81.4L200.4,337.5
			L200.4,337.5z M384.7,197.2c-0.6,6.3-6.6,11.2-13.6,11.2h-3.4V208c0-4.1-3.4-7.5-7.5-7.5c0,0,0,0,0,0c-4.1,0-7.5,3.4-7.5,7.5
			c0,53.3-43.4,96.6-96.7,96.6c-53.3,0-96.7-43.4-96.7-96.7c0-4.1-3.4-7.5-7.5-7.5s-7.5,3.4-7.5,7.5v0.5h-4.5
			c-3.5,0-6.9-1.5-9.3-4.1c-2.4-2.7-3.5-6.1-3.2-9.7c0.6-6.3,6.6-11.2,13.6-11.2h2.9h0c8.4,0,16.3-3.3,22.3-9.2
			c6-6,9.2-13.9,9.2-22.3v-8c0-10.3,4.8-19.8,13-26.1c3.3-2.5,4-7.2,1.5-10.5s-7.2-4-10.5-1.5c-12.1,9.1-19,23-19,38.1v8
			c0,4.4-1.7,8.6-4.8,11.7c-3.1,3.1-7.3,4.8-11.7,4.8h-2.9c-4.9,0-9.6,1.2-13.7,3.4v-28c0-39.7,18-75.2,46.4-98.9
			c17.8,39.5,44.2,73.3,76.6,98.1c33.9,26,73,40.3,110,40.3h12c3.5,0,6.9,1.5,9.3,4.1C383.9,190.1,385.1,193.6,384.7,197.2z
			 M384.8,171.4c-3.8-2-8.1-3-12.5-3h-12c-33.7,0-69.6-13.2-100.9-37.2c-31.3-24-56.6-56.8-73.4-95.4C206.1,22.6,230.2,15,256,15
			c71,0,128.8,57.8,128.8,128.8L384.8,171.4L384.8,171.4z M399.8,434.4v-32.4l6,2.1c6.5,2.3,12.1,6.1,16.5,11L399.8,434.4z"/>
	</g>
</g>
<g>
	<g>
		<path class="st0" d="M223,149.4c-1.3-3.9-5.6-6.1-9.5-4.7l-24,8c-3.9,1.3-6.1,5.6-4.7,9.5c1,3.1,4,5.1,7.1,5.1
			c0.8,0,1.6-0.1,2.4-0.4l24-8C222.2,157.6,224.3,153.3,223,149.4z"/>
	</g>
</g>
</svg>
