<?xml version="1.0" encoding="utf-8"?>
<!-- Generator: Adobe Illustrator 22.0.1, SVG Export Plug-In . SVG Version: 6.00 Build 0)  -->
<svg version="1.1" id="Capa_1" xmlns="http://www.w3.org/2000/svg" xmlns:xlink="http://www.w3.org/1999/xlink" x="0px" y="0px"
	 viewBox="0 0 512 512" style="enable-background:new 0 0 512 512;" xml:space="preserve">
<style type="text/css">
	.st0{fill:#FFFFFF;}
</style>
<g>
	<g>
		<path class="st0" d="M416,366.9l-65.7-19.3l-11.7-23.3c-1.9-3.8-5.3-6.6-9.3-7.9c-3.2-1-6.6-0.9-9.7,0.2v-24.9
			c25-17.4,42.6-44.7,47-76.3h4.5c14.6,0,27.2-10.9,28.5-24.7c0.8-7.8-1.8-15.5-7-21.3c-2.3-2.5-5-4.6-8.1-6.1l8.8-53.1
			c2.9-17.7-6.1-34.6-21.7-42.1c7-17.8,5.5-39.9-4.7-63.5c-1-2.3-3-3.9-5.5-4.4c-2.4-0.5-5,0.3-6.7,2.1C354.8,2.3,340.1,16,304.1,16
			h-72.1c-31.3,0-57.9,20.1-67.6,48.1h-6.7c-11.7,0-22.7,5.1-30.2,14c-7.5,8.9-10.8,20.6-8.8,32.1l8.9,53.4
			c-8.2,4.2-14.2,12.2-15.1,21.5c-0.8,7.8,1.8,15.5,7,21.3c5.2,5.8,12.7,9.1,20.4,9.1h5.6c4.4,31.5,22,58.9,47,76.3v24.9
			c-3.1-1.1-6.5-1.2-9.7-0.2c-4,1.2-7.4,4.1-9.3,7.9l-11.7,23.3L96,366.9c-23.5,6.9-39.9,28.8-39.9,53.3v84.3c0,4.1,3.4,7.5,7.5,7.5
			s7.5-3.4,7.5-7.5v-84.3c0-17.9,12-33.9,29.1-38.9l28-8.2v131.4c0,4.1,3.4,7.5,7.5,7.5s7.5-3.4,7.5-7.5V368.6l17.1-5v140.9
			c0,4.1,3.4,7.5,7.5,7.5s7.5-3.4,7.5-7.5v-136l31.1,26.7c4.3,3.7,9.7,5.7,15.3,5.7c0.7,0,1.5,0,2.3-0.1c6.4-0.6,12.2-3.7,16.2-8.7
			l15.8-19.8l15.8,19.8c4,5,9.8,8.1,16.2,8.7c0.8,0.1,1.5,0.1,2.3,0.1c5.6,0,11-2,15.3-5.7l39.2-33.6l24,7.1v135.9
			c0,4.1,3.4,7.5,7.5,7.5s7.5-3.4,7.5-7.5V373.1l28,8.2c17.2,5,29.1,21.1,29.1,38.9v84.3c0,4.1,3.4,7.5,7.5,7.5s7.5-3.4,7.5-7.5
			v-84.3C455.9,395.8,439.5,373.8,416,366.9z M364.4,81.2c10.1,4.5,16.1,15.2,14.2,26.5l-8.8,52.6h-9.7c-4.7,0-8.5-3.8-8.5-8.5V93.4
			C356.5,90.1,360.8,86,364.4,81.2z M138.8,87.8c4.7-5.5,11.5-8.7,18.7-8.7h3.3c-0.3,2.8-0.5,5.6-0.5,8.5v64.1
			c0,4.7-3.8,8.5-8.5,8.5h-9.7l-8.8-52.6C132.2,100.6,134.2,93.3,138.8,87.8z M159.3,199.9c0-4.1-3.4-7.5-7.5-7.5s-7.5,3.4-7.5,7.5
			v0.5h-4.5c-3.5,0-6.9-1.5-9.3-4.1c-2.4-2.7-3.5-6.1-3.2-9.7c0.6-6.3,6.6-11.2,13.6-11.2h10.9c13,0,23.5-10.6,23.5-23.5V87.7
			c0-31.2,25.4-56.6,56.6-56.6h72.1c26.3,0,43.2-6.6,52.5-11.9c6.7,20.2,5.8,38.1-2.8,51.1c-7.4,11.2-20,18-33.7,18H199.9
			c-4.1,0-7.5,3.4-7.5,7.5s3.4,7.5,7.5,7.5h120.2c5.7,0,11.3-0.9,16.5-2.5v51.1c0,13,10.6,23.5,23.5,23.5h12c3.5,0,6.9,1.5,9.3,4.1
			c2.4,2.7,3.5,6.1,3.2,9.7c-0.6,6.3-6.6,11.2-13.6,11.2h-3.4V200c0-4.1-3.4-7.5-7.5-7.5c0,0,0,0,0,0c-4.1,0-7.5,3.4-7.5,7.5
			c0,53.3-43.4,96.6-96.7,96.6C202.7,296.6,159.3,253.2,159.3,199.9z M228.4,382.7c-1.5,1.8-3.5,2.9-5.9,3.2c-2.3,0.2-4.6-0.5-6.4-2
			l-39.1-33.5l9.7-19.3c0,0,0.1-0.2,0.3-0.3c0.2-0.1,0.4,0,0.4,0l57.1,31.7L228.4,382.7z M207.4,324.6v-24.2
			c14.7,7.1,31.2,11.1,48.6,11.1c17.4,0,33.9-4,48.6-11.2v24.2l-48.6,27L207.4,324.6z M295.8,383.8c-1.8,1.5-4,2.2-6.4,2
			c-2.3-0.2-4.4-1.3-5.9-3.2l-16.2-20.2l57.1-31.7c0,0,0.2-0.1,0.4,0c0.2,0.1,0.3,0.2,0.3,0.3l9.7,19.3L295.8,383.8z"/>
	</g>
</g>
<g>
	<g>
		<path class="st0" d="M344.2,384.8c-4.1,0-7.5,3.4-7.5,7.5v112.2c0,4.1,3.4,7.5,7.5,7.5s7.5-3.4,7.5-7.5V392.3
			C351.7,388.1,348.3,384.8,344.2,384.8z"/>
	</g>
</g>
<g>
	<g>
		<path class="st0" d="M256.1,400.8L256.1,400.8c-4.2,0-7.5,3.4-7.5,7.5s3.4,7.5,7.5,7.5c4.1,0,7.5-3.4,7.5-7.5
			S260.2,400.8,256.1,400.8z"/>
	</g>
</g>
<g>
	<g>
		<path class="st0" d="M256.1,497L256.1,497c-4.2,0-7.5,3.4-7.5,7.5s3.4,7.5,7.5,7.5c4.1,0,7.5-3.4,7.5-7.5S260.2,497,256.1,497z"/>
	</g>
</g>
<g>
	<g>
		<path class="st0" d="M256.1,448.9L256.1,448.9c-4.2,0-7.5,3.4-7.5,7.5s3.4,7.5,7.5,7.5c4.1,0,7.5-3.4,7.5-7.5
			S260.2,448.9,256.1,448.9z"/>
	</g>
</g>
<g>
	<g>
		<path class="st0" d="M207.9,169c-4.1,0-7.5,3.4-7.5,7.5v8c0,4.1,3.4,7.5,7.5,7.5s7.5-3.4,7.5-7.5v-8
			C215.4,172.4,212,169,207.9,169z"/>
	</g>
</g>
<g>
	<g>
		<path class="st0" d="M304.1,169c-4.1,0-7.5,3.4-7.5,7.5v8c0,4.1,3.4,7.5,7.5,7.5s7.5-3.4,7.5-7.5v-8
			C311.6,172.4,308.2,169,304.1,169z"/>
	</g>
</g>
<g>
	<g>
		<path class="st0" d="M215.9,144.3h-16c-4.1,0-7.5,3.4-7.5,7.5s3.4,7.5,7.5,7.5h16c4.1,0,7.5-3.4,7.5-7.5S220.1,144.3,215.9,144.3z
			"/>
	</g>
</g>
<g>
	<g>
		<path class="st0" d="M312.1,144.3h-16c-4.1,0-7.5,3.4-7.5,7.5s3.4,7.5,7.5,7.5h16c4.1,0,7.5-3.4,7.5-7.5S316.3,144.3,312.1,144.3z
			"/>
	</g>
</g>
<g>
	<g>
		<path class="st0" d="M292.1,213.1h-72.1c-4.1,0-7.5,3.4-7.5,7.5c0,21.8,19.5,39.6,43.6,39.6s43.6-17.7,43.6-39.6
			C299.6,216.5,296.2,213.1,292.1,213.1z M256,245.2c-12.7,0-23.5-7.2-27.2-17.1h54.4C279.5,238,268.7,245.2,256,245.2z"/>
	</g>
</g>
</svg>
