<?xml version="1.0" encoding="utf-8"?>
<!-- Generator: Adobe Illustrator 22.0.1, SVG Export Plug-In . SVG Version: 6.00 Build 0)  -->
<svg version="1.1" id="Camada_1" xmlns="http://www.w3.org/2000/svg" xmlns:xlink="http://www.w3.org/1999/xlink" x="0px" y="0px"
	 viewBox="0 0 512 512" style="enable-background:new 0 0 512 512;" xml:space="preserve">
<style type="text/css">
	.st0{fill:#FFFFFF;}
</style>
<path class="st0" d="M487.4,51H26.6C12.5,51,1,62.5,1,76.6v290.1c0,14.1,11.5,25.6,25.6,25.6h85.3v17.1c-23.6,0-42.6,19.1-42.7,42.7
	c0,4.7,3.8,8.5,8.5,8.5c4.7,0,8.5-3.8,8.5-8.5c0-14.1,11.5-25.6,25.6-25.6h290.1c14.1,0,25.6,11.5,25.6,25.6c0,4.7,3.8,8.5,8.5,8.5
	c4.7,0,8.5-3.8,8.5-8.5c0-23.6-19.1-42.6-42.7-42.7v-17.1h85.3c14.1,0,25.6-11.5,25.6-25.6V76.6C513,62.5,501.5,51,487.4,51z
	 M385,409.4H129v-17.1h256V409.4z M495.9,366.7c0,4.7-3.8,8.5-8.5,8.5H26.6c-4.7,0-8.5-3.8-8.5-8.5V76.6c0-4.7,3.8-8.5,8.5-8.5
	h460.8c4.7,0,8.5,3.8,8.5,8.5V366.7z"/>
<path class="st0" d="M478.9,76.6H35.1c-4.7,0-8.5,3.8-8.5,8.5v273.1c0,4.7,3.8,8.5,8.5,8.5h443.7c4.7,0,8.5-3.8,8.5-8.5V85.1
	C487.4,80.4,483.6,76.6,478.9,76.6z M470.3,349.7H43.7v-256h426.7V349.7z"/>
<path class="st0" d="M69.3,179c2.3,0,4.4-0.9,6-2.5l42.7-42.7c3.3-3.4,3.2-8.8-0.2-12.1c-3.3-3.2-8.6-3.2-11.9,0l-42.7,42.7
	c-3.3,3.3-3.3,8.7,0,12.1C64.8,178.1,67,179,69.3,179z"/>
<path class="st0" d="M69.3,221.7c2.3,0,4.4-0.9,6-2.5l8.5-8.5c3.3-3.4,3.2-8.8-0.2-12.1c-3.3-3.2-8.6-3.2-11.9,0l-8.5,8.5
	c-3.3,3.3-3.3,8.7,0,12.1C64.8,220.8,67,221.7,69.3,221.7z"/>
<path class="st0" d="M88.8,193.6c3.3,3.3,8.7,3.3,12.1,0l59.7-59.7c3.3-3.4,3.2-8.8-0.2-12.1c-3.3-3.2-8.5-3.2-11.9,0l-59.7,59.7
	C85.5,184.8,85.5,190.2,88.8,193.6z"/>
</svg>
