<svg height="512pt" viewBox="0 -51 512.00002 512" width="512pt" xmlns="http://www.w3.org/2000/svg"><path d="m486.398438 0h-460.796876c-14.140624 0-25.601562 11.460938-25.601562 25.601562v290.132813c0 14.136719 11.460938 25.597656 25.601562 25.597656h85.332032v17.066407c-23.550782.03125-42.640625 19.117187-42.667969 42.667968 0 4.714844 3.820313 8.535156 8.535156 8.535156 4.710938 0 8.53125-3.820312 8.53125-8.535156 0-14.136718 11.464844-25.597656 25.601563-25.597656h290.132812c14.136719 0 25.601563 11.460938 25.601563 25.597656 0 4.714844 3.820312 8.535156 8.53125 8.535156 4.714843 0 8.535156-3.820312 8.535156-8.535156-.027344-23.550781-19.117187-42.636718-42.667969-42.667968v-17.066407h85.332032c14.140624 0 25.601562-11.460937 25.601562-25.597656v-290.132813c0-14.140624-11.460938-25.601562-25.601562-25.601562zm-102.398438 358.398438h-256v-17.066407h256zm110.933594-42.664063c0 4.710937-3.820313 8.53125-8.535156 8.53125h-460.796876c-4.714843 0-8.535156-3.820313-8.535156-8.53125v-290.132813c0-4.714843 3.820313-8.535156 8.535156-8.535156h460.796876c4.714843 0 8.535156 3.820313 8.535156 8.535156zm0 0"/><path d="m477.867188 25.601562h-443.734376c-4.710937 0-8.53125 3.820313-8.53125 8.53125v273.066407c0 4.714843 3.820313 8.535156 8.53125 8.535156h443.734376c4.710937 0 8.53125-3.820313 8.53125-8.535156v-273.066407c0-4.710937-3.820313-8.53125-8.53125-8.53125zm-8.535157 273.066407h-426.664062v-256h426.664062zm0 0"/><path d="m68.265625 128c2.265625 0 4.433594-.898438 6.035156-2.5l42.664063-42.667969c3.273437-3.390625 3.179687-8.792969-.207032-12.066406-3.308593-3.191406-8.550781-3.191406-11.859374 0l-42.664063 42.667969c-3.332031 3.332031-3.332031 8.734375 0 12.066406 1.601563 1.601562 3.769531 2.5 6.03125 2.5zm0 0"/><path d="m68.265625 170.667969c2.265625-.003907 4.433594-.902344 6.035156-2.503907l8.53125-8.53125c3.273438-3.390624 3.179688-8.792968-.207031-12.066406-3.308594-3.195312-8.550781-3.195312-11.859375 0l-8.53125 8.535156c-3.332031 3.332032-3.332031 8.734376 0 12.066407 1.601563 1.597656 3.769531 2.5 6.03125 2.5zm0 0"/><path d="m87.832031 142.566406c3.332031 3.332032 8.734375 3.332032 12.066407 0l59.734374-59.734375c3.273438-3.390625 3.179688-8.792969-.210937-12.066406-3.304687-3.191406-8.546875-3.191406-11.855469 0l-59.734375 59.734375c-3.328125 3.332031-3.328125 8.734375 0 12.066406zm0 0"/></svg>