<?xml version="1.0" encoding="utf-8"?>
<!-- Generator: Adobe Illustrator 22.0.1, SVG Export Plug-In . SVG Version: 6.00 Build 0)  -->
<svg version="1.1" id="Layer_1" xmlns="http://www.w3.org/2000/svg" xmlns:xlink="http://www.w3.org/1999/xlink" x="0px" y="0px"
	 viewBox="0 0 512 512" style="enable-background:new 0 0 512 512;" xml:space="preserve">
<style type="text/css">
	.st0{fill:#FFFFFF;}
</style>
<g>
	<g>
		<path class="st0" d="M501.8,410h-54.6V220.3h25.5v126.5c0,5.6,4.6,10.2,10.2,10.2c5.6,0,10.2-4.6,10.2-10.2V220.3h8.7
			c5.6,0,10.2-4.6,10.2-10.2c0-5.6-4.6-10.2-10.2-10.2h-100V52c0-5.6-4.6-10.2-10.2-10.2H120.4c-5.6,0-10.2,4.6-10.2,10.2v147.9
			h-100c-5.6,0-10.2,4.6-10.2,10.2c0,5.6,4.6,10.2,10.2,10.2h8.7V410h-8.7C4.6,410,0,414.6,0,420.2V460c0,5.6,4.6,10.2,10.2,10.2
			h491.6c5.6,0,10.2-4.6,10.2-10.2v-39.8C512,414.6,507.4,410,501.8,410z M401.8,220.3h25V410h-25V220.3z M130.6,62.2h250.9v137.7
			h-24.5v-101c0-5.6-4.6-10.2-10.2-10.2H165.3c-5.6,0-10.2,4.6-10.2,10.2v101h-24.5V62.2z M381.5,220.3V410h-24.5V220.3H381.5z
			 M265.7,199.9v-90.8h70.8v90.8H265.7z M336.5,220.3V410h-24.9V220.3H336.5z M291.2,220.3V410h-25.5V220.3H291.2z M175.5,199.9
			v-90.8h69.8v90.8H175.5z M245.3,220.3V410h-24.5V220.3H245.3z M200.4,220.3V410h-24.9V220.3H200.4z M130.6,220.3h24.5V410h-24.5
			V220.3z M84.1,220.3h26V410h-26V220.3z M39.3,220.3h24.5V410H39.3V220.3z M491.6,449.8H20.4v-19.4h471.2L491.6,449.8L491.6,449.8z
			"/>
	</g>
</g>
<g>
	<g>
		<path class="st0" d="M482.9,369.2c-5.6,0-10.2,4.6-10.2,10.2v7.1c0,5.6,4.6,10.2,10.2,10.2c5.6,0,10.2-4.6,10.2-10.2v-7.1
			C493.1,373.8,488.6,369.2,482.9,369.2z"/>
	</g>
</g>
</svg>
