<?xml version="1.0" encoding="utf-8"?>
<!-- Generator: Adobe Illustrator 22.0.1, SVG Export Plug-In . SVG Version: 6.00 Build 0)  -->
<svg version="1.1" id="Capa_1" xmlns="http://www.w3.org/2000/svg" xmlns:xlink="http://www.w3.org/1999/xlink" x="0px" y="0px"
	 viewBox="0 0 496 496" style="enable-background:new 0 0 496 496;" xml:space="preserve">
<style type="text/css">
	.st0{fill:#FFFFFF;}
</style>
<g>
	<g>
		<rect x="376" y="32" class="st0" width="16" height="16"/>
	</g>
</g>
<g>
	<g>
		<rect x="342.1" y="46" transform="matrix(0.7069 -0.7074 0.7074 0.7069 64.408 263.4774)" class="st0" width="16" height="16"/>
	</g>
</g>
<g>
	<g>
		<rect x="328" y="80" class="st0" width="16" height="16"/>
	</g>
</g>
<g>
	<g>
		
			<rect x="342.1" y="113.9" transform="matrix(0.7074 -0.7069 0.7069 0.7074 16.2756 283.1464)" class="st0" width="16" height="16"/>
	</g>
</g>
<g>
	<g>
		<rect x="376" y="128" class="st0" width="16" height="16"/>
	</g>
</g>
<g>
	<g>
		<rect x="410" y="113.9" transform="matrix(0.7069 -0.7074 0.7074 0.7069 36.2947 331.3871)" class="st0" width="16" height="16"/>
	</g>
</g>
<g>
	<g>
		<rect x="424" y="80" class="st0" width="16" height="16"/>
	</g>
</g>
<g>
	<g>
		<rect x="410" y="46" transform="matrix(0.7074 -0.7069 0.7069 0.7074 84.1219 311.2691)" class="st0" width="16" height="16"/>
	</g>
</g>
<g>
	<g>
		<rect x="376" y="64" class="st0" width="16" height="16"/>
	</g>
</g>
<g>
	<g>
		<rect x="360" y="80" class="st0" width="16" height="16"/>
	</g>
</g>
<g>
	<g>
		<rect x="376" y="96" class="st0" width="16" height="16"/>
	</g>
</g>
<g>
	<g>
		<rect x="392" y="80" class="st0" width="16" height="16"/>
	</g>
</g>
<g>
	<g>
		<path class="st0" d="M416,169.9c32.7-12.8,56-44.7,56-81.9c0-48.5-39.5-88-88-88s-88,39.5-88,88c0,37.2,23.3,69,56,81.9V216h-32
			v80h32v16h8v8c0,10.4,6.7,19.2,16,22.5V404c0,41.9-34.1,76-76,76c-37.8,0-69.2-27.8-75-64h7c13.2,0,24-10.8,24-24v-27.4
			c14.1-6.2,24-20.2,24-36.6V40c0-22.1-17.9-40-40-40H64C41.9,0,24,17.9,24,40v288c0,22.1,17.9,40,40,40h16v27.1
			c-3.2,3.7-5.6,8.1-6.9,12.9H56v16h17.1c2.9,11.2,11.7,20,22.9,22.9V464h16v-17.1c11.2-2.9,20-11.7,22.9-22.9H152v-16h-17.1
			c-1.3-4.9-3.6-9.3-6.9-12.9V368h48v24c0,13.2,10.8,24,24,24h8.9c5.9,45.1,44.5,80,91.1,80c50.7,0,92-41.3,92-92v-61.5
			c9.3-3.3,16-12.1,16-22.5v-8h8v-16h32v-80h-32V169.9z M352,280h-16v-48h16V280z M104,432c-8.8,0-16-7.2-16-16s7.2-16,16-16
			s16,7.2,16,16S112.8,432,104,432z M96,385.1V368h16v17.1c-2.6-0.7-5.2-1.1-8-1.1S98.6,384.5,96,385.1z M208,400h-8
			c-4.4,0-8-3.6-8-8v-24h16V400z M80,352v-96H64v96c-13.2,0-24-10.8-24-24V168h16c4.4,0,8,3.6,8,8v64h16v-64c0-13.2-10.8-24-24-24
			H40v-16h40v-16H40V40c0-13.2,10.8-24,24-24h176c13.2,0,24,10.8,24,24v80h-40v16h40v16h-16c-13.2,0-24,10.8-24,24v64h16v-64
			c0-4.4,3.6-8,8-8h16v160c0,13.2-10.8,24-24,24v-96h-16v96H80z M224,368h16v24c0,4.4-3.6,8-8,8h-8V368z M392,320c0,4.4-3.6,8-8,8
			s-8-3.6-8-8v-8h16V320z M400,296h-32v-32h32V296z M400,248h-32v-73.5c5.2,1,10.5,1.5,16,1.5s10.8-0.6,16-1.5V248z M384,160
			c-39.7,0-72-32.3-72-72s32.3-72,72-72s72,32.3,72,72S423.7,160,384,160z M432,232v48h-16v-48H432z"/>
	</g>
</g>
<g>
	<g>
		<path class="st0" d="M160,240.7V224h-16v16.7c-22.7,3.8-40,23.5-40,47.3c0,26.5,21.5,48,48,48s48-21.5,48-48
			C200,264.3,182.7,244.6,160,240.7z M152,320c-17.6,0-32-14.4-32-32c0-14.9,10.2-27.3,24-30.9V272h16v-14.9c13.8,3.6,24,16,24,30.9
			C184,305.6,169.6,320,152,320z"/>
	</g>
</g>
<g>
	<g>
		<path class="st0" d="M168,32h-32c-13.2,0-24,10.8-24,24v152h80V56C192,42.8,181.2,32,168,32z M176,192h-48v-80h48V192z M176,96
			h-48V80h48V96z M176,64h-48v-8c0-4.4,3.6-8,8-8h32c4.4,0,8,3.6,8,8V64z"/>
	</g>
</g>
<g>
	<g>
		<rect x="144" y="128" class="st0" width="16" height="16"/>
	</g>
</g>
<g>
	<g>
		<rect x="144" y="160" class="st0" width="16" height="16"/>
	</g>
</g>
</svg>
