<?xml version="1.0" encoding="utf-8"?>
<!-- Generator: Adobe Illustrator 22.0.1, SVG Export Plug-In . SVG Version: 6.00 Build 0)  -->
<svg version="1.1" id="Capa_1" xmlns="http://www.w3.org/2000/svg" xmlns:xlink="http://www.w3.org/1999/xlink" x="0px" y="0px"
	 viewBox="0 0 480 480" style="enable-background:new 0 0 480 480;" xml:space="preserve">
<style type="text/css">
	.st0{fill:#FFFFFF;}
</style>
<g>
	<g>
		<path class="st0" d="M232,208H8c-4.4,0-8,3.6-8,8v64v192c0,4.4,3.6,8,8,8h224c4.4,0,8-3.6,8-8V280v-64
			C240,211.6,236.4,208,232,208z M224,464H16V288h208V464z M224,272H16v-48h208V272z"/>
	</g>
</g>
<g>
	<g>
		<path class="st0" d="M183.5,368c-4-35.9-34.5-64-71.5-64c-39.7,0-72,32.3-72,72s32.3,72,72,72c37,0,67.5-28.1,71.5-64H200v-16
			H183.5z M112,336c-22.1,0-40,17.9-40,40s17.9,40,40,40c19.3,0,35.5-13.8,39.2-32h16.2c-3.9,27.1-27.2,48-55.4,48
			c-30.9,0-56-25.1-56-56s25.1-56,56-56c28.2,0,51.5,20.9,55.4,48h-16.2C147.5,349.8,131.3,336,112,336z M136,376
			c0,13.2-10.8,24-24,24s-24-10.8-24-24s10.8-24,24-24S136,362.8,136,376z"/>
	</g>
</g>
<g>
	<g>
		<rect x="128" y="240" class="st0" width="16" height="16"/>
	</g>
</g>
<g>
	<g>
		<rect x="160" y="240" class="st0" width="16" height="16"/>
	</g>
</g>
<g>
	<g>
		<rect x="192" y="240" class="st0" width="16" height="16"/>
	</g>
</g>
<g>
	<g>
		<rect x="32" y="240" class="st0" width="64" height="16"/>
	</g>
</g>
<g>
	<g>
		<path class="st0" d="M472,288h-16v-8h8c2.4,0,4.7-1.1,6.2-2.9c1.5-1.8,2.1-4.3,1.7-6.6l-8-40c-0.7-3.7-4-6.4-7.8-6.4h-96
			c-2.1,0-4.2,0.8-5.7,2.3c-1.5,1.5-2.3,3.5-2.3,5.7v24.8c-15.6,3.2-28,15.5-31.2,31.2H264c-4.4,0-8,3.6-8,8v32c0,4.4,3.6,8,8,8h29
			l60.5,51.9l-86.9,78.2l10.7,11.9l88.4-79.6l93,79.7l10.4-12.2l-91.4-78.4l57.3-51.6H472c4.4,0,8-3.6,8-8v-32
			C480,291.6,476.4,288,472,288z M368,240h81.4l3.6,17.7c-0.4-0.3-0.8-0.5-1.3-0.7c-0.3-0.1-0.5-0.3-0.8-0.4
			c-0.9-0.4-1.9-0.6-2.9-0.6h-80V240z M360,272h80v16H337.4C340.7,278.7,349.6,272,360,272z M365.5,377.1L317.6,336h93.5
			L365.5,377.1z M464,320H272v-16h56h120h16V320z"/>
	</g>
</g>
<g>
	<g>
		<path class="st0" d="M465.2,132.5L384,98.7v-12c9.3-3.3,16-12.2,16-22.6c0-13.2-10.8-24-24-24s-24,10.8-24,24h16c0-4.4,3.6-8,8-8
			s8,3.6,8,8s-3.6,8-8,8c-4.4,0-8,3.6-8,8v18.7l-24.7,10.3c0-0.2-0.1-0.3-0.2-0.4c-0.1-0.3-0.1-0.6-0.2-0.9
			c-0.4-1.3-0.9-2.5-1.5-3.7c-0.1-0.2-0.3-0.5-0.4-0.7c-0.7-1.3-1.5-2.6-2.5-3.7c-0.2-0.2-0.3-0.4-0.5-0.6c-0.1-0.1-0.2-0.2-0.3-0.4
			c-0.1-0.1-0.2-0.1-0.2-0.2c-0.7-0.8-1.5-1.5-2.3-2.2c-0.2-0.2-0.5-0.4-0.8-0.6c-0.3-0.2-0.6-0.4-0.8-0.6c-1.4-1-2.9-1.8-4.5-2.5
			L248,58.7v-12c9.3-3.3,16-12.2,16-22.6c0-13.2-10.8-24-24-24s-24,10.8-24,24h16c0-4.4,3.6-8,8-8s8,3.6,8,8s-3.6,8-8,8
			c-4.4,0-8,3.6-8,8v18.7l-81.2,33.8c-1.6,0.7-3.1,1.5-4.5,2.5c-0.3,0.2-0.6,0.4-0.9,0.6c-1.3,1-2.5,2.1-3.6,3.3
			c-0.2,0.2-0.3,0.4-0.5,0.6c-0.9,1.2-1.8,2.4-2.5,3.7c-0.1,0.2-0.3,0.5-0.4,0.7c-0.7,1.4-1.3,3-1.7,4.6c0,0.2-0.1,0.3-0.2,0.4
			L112,98.7v-12c9.3-3.3,16-12.2,16-22.6c0-13.2-10.8-24-24-24S80,50.8,80,64h16c0-4.4,3.6-8,8-8s8,3.6,8,8s-3.6,8-8,8
			c-4.4,0-8,3.6-8,8v18.7l-81.2,33.8C5.8,136.2,0,144.9,0,154.7v5.3c0,13.2,10.8,24,24,24h160c13.2,0,24-10.8,24-24v-5.3
			c0-3.8-0.9-7.4-2.5-10.7h69c-1.6,3.2-2.5,6.9-2.5,10.7v5.3c0,13.2,10.8,24,24,24h160c13.2,0,24-10.8,24-24v-5.3
			C480,144.9,474.2,136.2,465.2,132.5z M192,160c0,4.4-3.6,8-8,8H24c-4.4,0-8-3.6-8-8v-5.3c0-3.2,1.9-6.1,4.9-7.4l83.1-34.6l33,13.7
			c2.8,10.1,12,17.6,23,17.6h19.2l7.9,3.3c3,1.2,4.9,4.1,4.9,7.4V160z M180.8,128H160c-4.4,0-8-3.6-8-8v-5.3c0-3.2,1.9-6.1,4.9-7.4
			L240,72.7l83.1,34.6c3,1.2,4.9,4.2,4.9,7.4v5c0,0.2,0,0.5-0.1,0.6c0,0.1,0,0.2-0.1,0.3c-0.1,1-0.3,1.9-0.7,2.8
			c-0.1,0.1-0.2,0.2-0.2,0.3c-0.4,0.8-0.9,1.5-1.5,2.1c-0.3,0.3-0.7,0.5-1.1,0.7c-0.4,0.3-0.9,0.7-1.4,0.9c-0.9,0.4-2,0.6-3,0.6
			h-20.8H180.8z M464,160c0,4.4-3.6,8-8,8H296c-4.4,0-8-3.6-8-8v-5.3c0-3.2,1.9-6.1,4.9-7.4l7.9-3.3H320c1.6,0,3.2-0.2,4.8-0.5
			c0.4-0.1,0.7-0.2,1.1-0.3c1.1-0.3,2.3-0.6,3.4-1c0.4-0.2,0.8-0.4,1.2-0.6c1-0.5,2-1,2.9-1.6c0.5-0.3,0.9-0.7,1.3-1
			c0.7-0.6,1.5-1.1,2.2-1.8c0.5-0.5,1-1.1,1.5-1.7c0.5-0.6,1-1.1,1.4-1.7c0.6-0.8,1-1.7,1.5-2.6c0.2-0.4,0.5-0.8,0.7-1.3
			c0.5-1.1,0.9-2.2,1.2-3.4c0,0,0,0,0,0l33-13.7l83.1,34.6c3,1.2,4.9,4.2,4.9,7.4V160z"/>
	</g>
</g>
</svg>
