<?xml version="1.0" encoding="iso-8859-1"?>
<!-- Generator: Adobe Illustrator 19.0.0, SVG Export Plug-In . SVG Version: 6.00 Build 0)  -->
<svg version="1.1" id="Capa_1" xmlns="http://www.w3.org/2000/svg" xmlns:xlink="http://www.w3.org/1999/xlink" x="0px" y="0px"
	 viewBox="0 0 480 480" style="enable-background:new 0 0 480 480;" xml:space="preserve">
<g>
	<g>
		<path d="M232,208H8c-4.416,0-8,3.584-8,8v64v192c0,4.416,3.584,8,8,8h224c4.416,0,8-3.584,8-8V280v-64
			C240,211.584,236.416,208,232,208z M224,464H16V288h208V464z M224,272H16v-48h208V272z"/>
	</g>
</g>
<g>
	<g>
		<path d="M183.528,368c-4-35.944-34.536-64-71.528-64c-39.696,0-72,32.304-72,72s32.304,72,72,72c36.992,0,67.528-28.056,71.528-64
			H200v-16H183.528z M112,336c-22.056,0-40,17.944-40,40c0,22.056,17.944,40,40,40c19.312,0,35.472-13.768,39.192-32h16.168
			c-3.904,27.096-27.208,48-55.36,48c-30.88,0-56-25.12-56-56s25.12-56,56-56c28.152,0,51.456,20.904,55.36,48h-16.168
			C147.472,349.768,131.32,336,112,336z M136,376c0,13.232-10.768,24-24,24s-24-10.768-24-24s10.768-24,24-24S136,362.768,136,376z"
			/>
	</g>
</g>
<g>
	<g>
		<rect x="128" y="240" width="16" height="16"/>
	</g>
</g>
<g>
	<g>
		<rect x="160" y="240" width="16" height="16"/>
	</g>
</g>
<g>
	<g>
		<rect x="192" y="240" width="16" height="16"/>
	</g>
</g>
<g>
	<g>
		<rect x="32" y="240" width="64" height="16"/>
	</g>
</g>
<g>
	<g>
		<path d="M472,288h-16v-8h8c2.4,0,4.664-1.072,6.184-2.928c1.52-1.848,2.128-4.288,1.656-6.64l-8-40
			c-0.744-3.744-4.024-6.432-7.84-6.432h-96c-2.12,0-4.16,0.84-5.656,2.344C352.848,227.848,352,229.88,352,232v24.808
			C336.352,260,324,272.352,320.816,288H264c-4.416,0-8,3.584-8,8v32c0,4.416,3.584,8,8,8h29.04l60.496,51.856l-86.888,78.2
			l10.704,11.888l88.432-79.592l93.008,79.72l10.416-12.152l-91.424-78.368L435.072,336H472c4.416,0,8-3.584,8-8v-32
			C480,291.584,476.416,288,472,288z M368,240h81.44l3.552,17.744c-0.376-0.304-0.848-0.48-1.272-0.712
			c-0.272-0.144-0.512-0.328-0.8-0.448c-0.912-0.352-1.88-0.584-2.92-0.584h-80V240z M360,272h80v16H337.376
			C340.672,278.688,349.576,272,360,272z M365.528,377.064L317.624,336h93.528L365.528,377.064z M464,320H272v-16h56h120h16V320z"/>
	</g>
</g>
<g>
	<g>
		<path d="M465.224,132.512L384,98.664v-12.04c9.312-3.304,16-12.2,16-22.632c0-13.232-10.768-24-24-24s-24,10.768-24,24h16
			c0-4.408,3.592-8,8-8c4.408,0,8,3.592,8,8s-3.592,8-8,8c-4.416,0-8,3.584-8,8v18.664l-24.68,10.288
			c-0.04-0.152-0.12-0.28-0.16-0.432c-0.08-0.296-0.112-0.6-0.2-0.888c-0.392-1.272-0.904-2.488-1.496-3.672
			c-0.12-0.24-0.264-0.456-0.392-0.696c-0.712-1.312-1.536-2.552-2.48-3.712c-0.16-0.2-0.304-0.408-0.472-0.6
			c-0.096-0.112-0.176-0.24-0.272-0.352c-0.072-0.08-0.16-0.144-0.232-0.224c-0.72-0.776-1.472-1.52-2.288-2.192
			c-0.24-0.2-0.528-0.36-0.776-0.552c-0.28-0.208-0.56-0.4-0.848-0.6c-1.392-0.968-2.856-1.848-4.464-2.52L248,58.664V46.632
			c9.312-3.304,16-12.2,16-22.632c0-13.232-10.768-24-24-24s-24,10.768-24,24h16c0-4.408,3.592-8,8-8s8,3.592,8,8s-3.592,8-8,8
			c-4.416,0-8,3.584-8,8v18.664l-81.224,33.84c-1.608,0.672-3.072,1.544-4.456,2.512c-0.288,0.2-0.584,0.4-0.864,0.608
			c-1.304,0.992-2.512,2.096-3.568,3.32c-0.168,0.192-0.304,0.408-0.472,0.608c-0.944,1.16-1.768,2.392-2.48,3.704
			c-0.128,0.24-0.28,0.456-0.4,0.704c-0.72,1.448-1.272,2.976-1.696,4.56c-0.04,0.152-0.128,0.28-0.16,0.432L112,98.664v-12.04
			c9.312-3.304,16-12.2,16-22.632c0-13.232-10.768-24-24-24s-24,10.768-24,24h16c0-4.408,3.592-8,8-8s8,3.592,8,8s-3.592,8-8,8
			c-4.416,0-8,3.584-8,8v18.664l-81.224,33.84C5.8,136.248,0,144.944,0,154.664V160c0,13.232,10.768,24,24,24h160
			c13.232,0,24-10.768,24-24v-5.336c0-3.792-0.88-7.424-2.488-10.664h68.976c-1.608,3.248-2.488,6.88-2.488,10.664V160
			c0,13.232,10.768,24,24,24h160c13.232,0,24-10.768,24-24v-5.336C480,144.944,474.2,136.248,465.224,132.512z M192,160
			c0,4.408-3.592,8-8,8H24c-4.408,0-8-3.592-8-8v-5.336c0-3.24,1.936-6.144,4.928-7.384L104,112.664l32.976,13.736
			C139.8,136.52,149,144,160,144h19.2l7.88,3.288c2.984,1.24,4.92,4.144,4.92,7.376V160z M180.8,128H160c-4.408,0-8-3.592-8-8
			v-5.336c0-3.24,1.936-6.144,4.928-7.384L240,72.664l83.08,34.616c2.984,1.248,4.92,4.152,4.92,7.384v4.968
			c-0.024,0.24-0.048,0.496-0.056,0.648c0,0.096-0.048,0.184-0.056,0.28c-0.072,0.976-0.28,1.92-0.664,2.768
			c-0.056,0.128-0.168,0.216-0.232,0.344c-0.392,0.76-0.864,1.48-1.464,2.072c-0.32,0.304-0.736,0.496-1.104,0.744
			c-0.448,0.312-0.864,0.688-1.376,0.896C322.112,127.776,321.08,128,320,128h-20.8H180.8z M464,160c0,4.408-3.592,8-8,8H296
			c-4.408,0-8-3.592-8-8v-5.336c0-3.24,1.936-6.144,4.928-7.384L300.8,144H320c1.632,0,3.232-0.168,4.776-0.48
			c0.384-0.08,0.728-0.24,1.104-0.328c1.144-0.288,2.288-0.6,3.36-1.048c0.408-0.168,0.768-0.416,1.168-0.616
			c0.976-0.472,1.96-0.952,2.856-1.552c0.464-0.312,0.872-0.704,1.312-1.04c0.744-0.576,1.504-1.136,2.176-1.8
			c0.536-0.528,0.992-1.136,1.48-1.712c0.472-0.56,0.976-1.088,1.392-1.688c0.576-0.816,1.032-1.704,1.504-2.592
			c0.224-0.432,0.496-0.832,0.696-1.28c0.496-1.088,0.856-2.24,1.184-3.408c0.008-0.016,0.016-0.032,0.016-0.048L376,112.664
			l83.072,34.616c2.992,1.248,4.928,4.152,4.928,7.384V160z"/>
	</g>
</g>
<g>
</g>
<g>
</g>
<g>
</g>
<g>
</g>
<g>
</g>
<g>
</g>
<g>
</g>
<g>
</g>
<g>
</g>
<g>
</g>
<g>
</g>
<g>
</g>
<g>
</g>
<g>
</g>
<g>
</g>
</svg>
